M48
; DRILL file {KiCad (7.0.0-0)} date Tuesday, 15 August 2023 at 00:25:22
; FORMAT={-:-/ absolute / metric / decimal}
; #@! TF.CreationDate,2023-08-15T00:25:22+01:00
; #@! TF.GenerationSoftware,Kicad,Pcbnew,(7.0.0-0)
; #@! TF.FileFunction,Plated,1,2,PTH
FMAT,2
METRIC
; #@! TA.AperFunction,Plated,PTH,ViaDrill
T1C0.400
; #@! TA.AperFunction,Plated,PTH,ComponentDrill
T2C0.800
; #@! TA.AperFunction,Plated,PTH,ComponentDrill
T3C1.016
; #@! TA.AperFunction,Plated,PTH,ComponentDrill
T4C1.190
%
G90
G05
T1
X131.013Y-119.837
X132.283Y-107.493
X133.502Y-111.354
X137.516Y-97.739
X137.516Y-112.573
X138.532Y-116.027
X140.208Y-101.803
X140.208Y-109.525
X141.122Y-105.207
X141.173Y-119.837
X142.291Y-112.42
X144.069Y-92.354
X146.253Y-97.942
X147.32Y-112.725
X150.419Y-107.798
T2
X126.898Y-80.112
X126.898Y-82.652
X126.898Y-85.192
X126.898Y-87.732
X126.898Y-90.272
X126.898Y-92.812
X126.898Y-95.352
X126.898Y-97.892
X126.898Y-100.432
X126.898Y-102.972
X126.898Y-105.512
X126.898Y-108.052
X126.898Y-110.592
X126.898Y-113.132
X126.898Y-115.672
X126.898Y-118.212
X126.898Y-120.752
X126.898Y-123.292
X129.438Y-80.112
X129.438Y-82.652
X129.438Y-85.192
X129.438Y-87.732
X129.438Y-90.272
X129.438Y-92.812
X129.438Y-95.352
X129.438Y-97.892
X129.438Y-100.432
X129.438Y-102.972
X129.438Y-105.512
X129.438Y-108.052
X129.438Y-110.592
X129.438Y-113.132
X129.438Y-115.672
X129.438Y-118.212
X129.438Y-120.752
X129.438Y-123.292
X146.964Y-80.112
X146.964Y-82.652
X146.964Y-85.192
X149.758Y-80.112
X149.758Y-82.652
X149.758Y-85.192
X149.758Y-87.732
X149.758Y-90.272
X149.758Y-92.812
X149.758Y-95.352
X149.758Y-97.892
X149.758Y-100.432
X149.758Y-102.972
X152.298Y-80.112
X152.298Y-82.652
X152.298Y-85.192
X152.298Y-87.732
X152.298Y-90.272
X152.298Y-92.812
X152.298Y-95.352
X152.298Y-97.892
X152.298Y-100.432
X152.298Y-102.972
X152.298Y-105.512
X152.298Y-108.052
X152.298Y-110.592
X152.298Y-113.132
X152.298Y-115.672
X152.298Y-118.212
X152.298Y-120.752
X152.298Y-123.292
X154.838Y-80.112
X154.838Y-82.652
X154.838Y-85.192
X154.838Y-87.732
X154.838Y-90.272
X154.838Y-92.812
X154.838Y-95.352
X154.838Y-97.892
X154.838Y-100.432
X154.838Y-102.972
X154.838Y-105.512
X154.838Y-108.052
X154.838Y-110.592
X154.838Y-113.132
X154.838Y-115.672
X154.838Y-118.212
X154.838Y-120.752
X154.838Y-123.292
T3
X149.758Y-115.672
X149.758Y-118.212
X149.758Y-120.752
T4
X132.791Y-82.398
X135.331Y-82.398
X137.871Y-82.398
X140.411Y-82.398
X142.951Y-82.398
T0
M30
