%TF.GenerationSoftware,KiCad,Pcbnew,(7.0.0-0)*%
%TF.CreationDate,2023-08-15T00:25:00+01:00*%
%TF.ProjectId,EMGSensor3.1,454d4753-656e-4736-9f72-332e312e6b69,rev?*%
%TF.SameCoordinates,Original*%
%TF.FileFunction,Legend,Bot*%
%TF.FilePolarity,Positive*%
%FSLAX46Y46*%
G04 Gerber Fmt 4.6, Leading zero omitted, Abs format (unit mm)*
G04 Created by KiCad (PCBNEW (7.0.0-0)) date 2023-08-15 00:25:00*
%MOMM*%
%LPD*%
G01*
G04 APERTURE LIST*
%ADD10C,0.150000*%
G04 APERTURE END LIST*
D10*
X131819638Y-87419619D02*
X132152971Y-86419619D01*
X132152971Y-86419619D02*
X132486304Y-87419619D01*
X132962495Y-86419619D02*
X132867257Y-86467238D01*
X132867257Y-86467238D02*
X132819638Y-86514857D01*
X132819638Y-86514857D02*
X132772019Y-86610095D01*
X132772019Y-86610095D02*
X132772019Y-86895809D01*
X132772019Y-86895809D02*
X132819638Y-86991047D01*
X132819638Y-86991047D02*
X132867257Y-87038666D01*
X132867257Y-87038666D02*
X132962495Y-87086285D01*
X132962495Y-87086285D02*
X133105352Y-87086285D01*
X133105352Y-87086285D02*
X133200590Y-87038666D01*
X133200590Y-87038666D02*
X133248209Y-86991047D01*
X133248209Y-86991047D02*
X133295828Y-86895809D01*
X133295828Y-86895809D02*
X133295828Y-86610095D01*
X133295828Y-86610095D02*
X133248209Y-86514857D01*
X133248209Y-86514857D02*
X133200590Y-86467238D01*
X133200590Y-86467238D02*
X133105352Y-86419619D01*
X133105352Y-86419619D02*
X132962495Y-86419619D01*
X133629162Y-86419619D02*
X134152971Y-87086285D01*
X133629162Y-87086285D02*
X134152971Y-86419619D01*
X134533924Y-86943428D02*
X134867257Y-86943428D01*
X135010114Y-86419619D02*
X134533924Y-86419619D01*
X134533924Y-86419619D02*
X134533924Y-87419619D01*
X134533924Y-87419619D02*
X135010114Y-87419619D01*
X135438686Y-86419619D02*
X135438686Y-87419619D01*
X135438686Y-87419619D02*
X135772019Y-86705333D01*
X135772019Y-86705333D02*
X136105352Y-87419619D01*
X136105352Y-87419619D02*
X136105352Y-86419619D01*
X137105352Y-87372000D02*
X137010114Y-87419619D01*
X137010114Y-87419619D02*
X136867257Y-87419619D01*
X136867257Y-87419619D02*
X136724400Y-87372000D01*
X136724400Y-87372000D02*
X136629162Y-87276761D01*
X136629162Y-87276761D02*
X136581543Y-87181523D01*
X136581543Y-87181523D02*
X136533924Y-86991047D01*
X136533924Y-86991047D02*
X136533924Y-86848190D01*
X136533924Y-86848190D02*
X136581543Y-86657714D01*
X136581543Y-86657714D02*
X136629162Y-86562476D01*
X136629162Y-86562476D02*
X136724400Y-86467238D01*
X136724400Y-86467238D02*
X136867257Y-86419619D01*
X136867257Y-86419619D02*
X136962495Y-86419619D01*
X136962495Y-86419619D02*
X137105352Y-86467238D01*
X137105352Y-86467238D02*
X137152971Y-86514857D01*
X137152971Y-86514857D02*
X137152971Y-86848190D01*
X137152971Y-86848190D02*
X136962495Y-86848190D01*
X138086305Y-87086285D02*
X138324400Y-86419619D01*
X138324400Y-86419619D02*
X138562495Y-87086285D01*
X138848210Y-87419619D02*
X139467257Y-87419619D01*
X139467257Y-87419619D02*
X139133924Y-87038666D01*
X139133924Y-87038666D02*
X139276781Y-87038666D01*
X139276781Y-87038666D02*
X139372019Y-86991047D01*
X139372019Y-86991047D02*
X139419638Y-86943428D01*
X139419638Y-86943428D02*
X139467257Y-86848190D01*
X139467257Y-86848190D02*
X139467257Y-86610095D01*
X139467257Y-86610095D02*
X139419638Y-86514857D01*
X139419638Y-86514857D02*
X139372019Y-86467238D01*
X139372019Y-86467238D02*
X139276781Y-86419619D01*
X139276781Y-86419619D02*
X138991067Y-86419619D01*
X138991067Y-86419619D02*
X138895829Y-86467238D01*
X138895829Y-86467238D02*
X138848210Y-86514857D01*
X139895829Y-86514857D02*
X139943448Y-86467238D01*
X139943448Y-86467238D02*
X139895829Y-86419619D01*
X139895829Y-86419619D02*
X139848210Y-86467238D01*
X139848210Y-86467238D02*
X139895829Y-86514857D01*
X139895829Y-86514857D02*
X139895829Y-86419619D01*
X140895828Y-86419619D02*
X140324400Y-86419619D01*
X140610114Y-86419619D02*
X140610114Y-87419619D01*
X140610114Y-87419619D02*
X140514876Y-87276761D01*
X140514876Y-87276761D02*
X140419638Y-87181523D01*
X140419638Y-87181523D02*
X140324400Y-87133904D01*
X141324400Y-86514857D02*
X141372019Y-86467238D01*
X141372019Y-86467238D02*
X141324400Y-86419619D01*
X141324400Y-86419619D02*
X141276781Y-86467238D01*
X141276781Y-86467238D02*
X141324400Y-86514857D01*
X141324400Y-86514857D02*
X141324400Y-86419619D01*
X141752971Y-87324380D02*
X141800590Y-87372000D01*
X141800590Y-87372000D02*
X141895828Y-87419619D01*
X141895828Y-87419619D02*
X142133923Y-87419619D01*
X142133923Y-87419619D02*
X142229161Y-87372000D01*
X142229161Y-87372000D02*
X142276780Y-87324380D01*
X142276780Y-87324380D02*
X142324399Y-87229142D01*
X142324399Y-87229142D02*
X142324399Y-87133904D01*
X142324399Y-87133904D02*
X142276780Y-86991047D01*
X142276780Y-86991047D02*
X141705352Y-86419619D01*
X141705352Y-86419619D02*
X142324399Y-86419619D01*
X132533923Y-84894857D02*
X132486304Y-84847238D01*
X132486304Y-84847238D02*
X132343447Y-84799619D01*
X132343447Y-84799619D02*
X132248209Y-84799619D01*
X132248209Y-84799619D02*
X132105352Y-84847238D01*
X132105352Y-84847238D02*
X132010114Y-84942476D01*
X132010114Y-84942476D02*
X131962495Y-85037714D01*
X131962495Y-85037714D02*
X131914876Y-85228190D01*
X131914876Y-85228190D02*
X131914876Y-85371047D01*
X131914876Y-85371047D02*
X131962495Y-85561523D01*
X131962495Y-85561523D02*
X132010114Y-85656761D01*
X132010114Y-85656761D02*
X132105352Y-85752000D01*
X132105352Y-85752000D02*
X132248209Y-85799619D01*
X132248209Y-85799619D02*
X132343447Y-85799619D01*
X132343447Y-85799619D02*
X132486304Y-85752000D01*
X132486304Y-85752000D02*
X132533923Y-85704380D01*
X132962495Y-84894857D02*
X133010114Y-84847238D01*
X133010114Y-84847238D02*
X132962495Y-84799619D01*
X132962495Y-84799619D02*
X132914876Y-84847238D01*
X132914876Y-84847238D02*
X132962495Y-84894857D01*
X132962495Y-84894857D02*
X132962495Y-84799619D01*
X134038685Y-84799619D02*
X134038685Y-85799619D01*
X134038685Y-85799619D02*
X134610113Y-84799619D01*
X134610113Y-84799619D02*
X134610113Y-85799619D01*
X135086304Y-84894857D02*
X135133923Y-84847238D01*
X135133923Y-84847238D02*
X135086304Y-84799619D01*
X135086304Y-84799619D02*
X135038685Y-84847238D01*
X135038685Y-84847238D02*
X135086304Y-84894857D01*
X135086304Y-84894857D02*
X135086304Y-84799619D01*
X136733922Y-84799619D02*
X136400589Y-85275809D01*
X136162494Y-84799619D02*
X136162494Y-85799619D01*
X136162494Y-85799619D02*
X136543446Y-85799619D01*
X136543446Y-85799619D02*
X136638684Y-85752000D01*
X136638684Y-85752000D02*
X136686303Y-85704380D01*
X136686303Y-85704380D02*
X136733922Y-85609142D01*
X136733922Y-85609142D02*
X136733922Y-85466285D01*
X136733922Y-85466285D02*
X136686303Y-85371047D01*
X136686303Y-85371047D02*
X136638684Y-85323428D01*
X136638684Y-85323428D02*
X136543446Y-85275809D01*
X136543446Y-85275809D02*
X136162494Y-85275809D01*
X137543446Y-84847238D02*
X137448208Y-84799619D01*
X137448208Y-84799619D02*
X137257732Y-84799619D01*
X137257732Y-84799619D02*
X137162494Y-84847238D01*
X137162494Y-84847238D02*
X137114875Y-84942476D01*
X137114875Y-84942476D02*
X137114875Y-85323428D01*
X137114875Y-85323428D02*
X137162494Y-85418666D01*
X137162494Y-85418666D02*
X137257732Y-85466285D01*
X137257732Y-85466285D02*
X137448208Y-85466285D01*
X137448208Y-85466285D02*
X137543446Y-85418666D01*
X137543446Y-85418666D02*
X137591065Y-85323428D01*
X137591065Y-85323428D02*
X137591065Y-85228190D01*
X137591065Y-85228190D02*
X137114875Y-85132952D01*
X138400589Y-84847238D02*
X138305351Y-84799619D01*
X138305351Y-84799619D02*
X138114875Y-84799619D01*
X138114875Y-84799619D02*
X138019637Y-84847238D01*
X138019637Y-84847238D02*
X137972018Y-84942476D01*
X137972018Y-84942476D02*
X137972018Y-85323428D01*
X137972018Y-85323428D02*
X138019637Y-85418666D01*
X138019637Y-85418666D02*
X138114875Y-85466285D01*
X138114875Y-85466285D02*
X138305351Y-85466285D01*
X138305351Y-85466285D02*
X138400589Y-85418666D01*
X138400589Y-85418666D02*
X138448208Y-85323428D01*
X138448208Y-85323428D02*
X138448208Y-85228190D01*
X138448208Y-85228190D02*
X137972018Y-85132952D01*
X139305351Y-84799619D02*
X139305351Y-85799619D01*
X139305351Y-84847238D02*
X139210113Y-84799619D01*
X139210113Y-84799619D02*
X139019637Y-84799619D01*
X139019637Y-84799619D02*
X138924399Y-84847238D01*
X138924399Y-84847238D02*
X138876780Y-84894857D01*
X138876780Y-84894857D02*
X138829161Y-84990095D01*
X138829161Y-84990095D02*
X138829161Y-85275809D01*
X138829161Y-85275809D02*
X138876780Y-85371047D01*
X138876780Y-85371047D02*
X138924399Y-85418666D01*
X138924399Y-85418666D02*
X139019637Y-85466285D01*
X139019637Y-85466285D02*
X139210113Y-85466285D01*
X139210113Y-85466285D02*
X139305351Y-85418666D01*
M02*
