M48
INCH,TZ
T1C0.0157
T2C0.0295
T3C0.0472
T4C0.0591
%
G90
G05
T1
X69900Y-24000
X71490Y-26950
X71500Y-27450
X72350Y-25050
X73106Y-28551
X75060Y-27330
X75087Y-25925
X75550Y-27330
X75850Y-22850
X76810Y-26590
X77713Y-28539
X78060Y-27480
T2
X69390Y-29100
X70177Y-29100
X70965Y-29100
X71050Y-21075
X71752Y-29100
X71837Y-21075
X72625Y-21075
X74790Y-29090
X74925Y-21075
X75577Y-29090
X75712Y-21075
X76365Y-29090
T3
X70720Y-18205
X71900Y-18205
X73080Y-18195
X74730Y-18195
X75910Y-18195
T4
G00X70720Y-18897
M15
G01X70720Y-19093
M16
G05
G00X71901Y-18897
M15
G01X71901Y-19093
M16
G05
G00X73082Y-18897
M15
G01X73082Y-19093
M16
G05
G00X74730Y-18897
M15
G01X74730Y-19093
M16
G05
G00X75911Y-18897
M15
G01X75911Y-19093
M16
G05
T0
M30
