%TF.GenerationSoftware,KiCad,Pcbnew,(5.1.9-0-10_14)*%
%TF.CreationDate,2021-05-07T17:02:22+01:00*%
%TF.ProjectId,EMGSensor3.1,454d4753-656e-4736-9f72-332e312e6b69,rev?*%
%TF.SameCoordinates,Original*%
%TF.FileFunction,Copper,L2,Bot*%
%TF.FilePolarity,Positive*%
%FSLAX46Y46*%
G04 Gerber Fmt 4.6, Leading zero omitted, Abs format (unit mm)*
G04 Created by KiCad (PCBNEW (5.1.9-0-10_14)) date 2021-05-07 17:02:22*
%MOMM*%
%LPD*%
G01*
G04 APERTURE LIST*
%TA.AperFunction,ComponentPad*%
%ADD10O,1.200000X1.750000*%
%TD*%
%TA.AperFunction,ComponentPad*%
%ADD11C,0.100000*%
%TD*%
%TA.AperFunction,ViaPad*%
%ADD12C,1.700000*%
%TD*%
%TA.AperFunction,ViaPad*%
%ADD13C,0.800000*%
%TD*%
%TA.AperFunction,Conductor*%
%ADD14C,0.250000*%
%TD*%
%TA.AperFunction,Conductor*%
%ADD15C,0.254000*%
%TD*%
%TA.AperFunction,Conductor*%
%ADD16C,0.100000*%
%TD*%
G04 APERTURE END LIST*
%TO.P,J1,1*%
%TO.N,GND*%
%TA.AperFunction,ComponentPad*%
G36*
G01*
X179867000Y-54155501D02*
X179867000Y-52905499D01*
G75*
G02*
X180116999Y-52655500I249999J0D01*
G01*
X180817001Y-52655500D01*
G75*
G02*
X181067000Y-52905499I0J-249999D01*
G01*
X181067000Y-54155501D01*
G75*
G02*
X180817001Y-54405500I-249999J0D01*
G01*
X180116999Y-54405500D01*
G75*
G02*
X179867000Y-54155501I0J249999D01*
G01*
G37*
%TD.AperFunction*%
D10*
%TO.P,J1,2*%
%TO.N,/End-Muscle-A*%
X182467000Y-53530500D03*
%TO.P,J1,3*%
%TO.N,/Mid-Muscle-A*%
X184467000Y-53530500D03*
%TD*%
%TO.P,J2,2*%
%TO.N,/End-Muscle-B*%
X192309500Y-53530500D03*
%TO.P,J2,1*%
%TO.N,/Mid-Muscle-B*%
%TA.AperFunction,ComponentPad*%
G36*
G01*
X189709500Y-54155501D02*
X189709500Y-52905499D01*
G75*
G02*
X189959499Y-52655500I249999J0D01*
G01*
X190659501Y-52655500D01*
G75*
G02*
X190909500Y-52905499I0J-249999D01*
G01*
X190909500Y-54155501D01*
G75*
G02*
X190659501Y-54405500I-249999J0D01*
G01*
X189959499Y-54405500D01*
G75*
G02*
X189709500Y-54155501I0J249999D01*
G01*
G37*
%TD.AperFunction*%
%TD*%
%TO.P,J4,1*%
%TO.N,+3V3*%
%TA.AperFunction,ComponentPad*%
G36*
G01*
X175650600Y-74539001D02*
X175650600Y-73288999D01*
G75*
G02*
X175900599Y-73039000I249999J0D01*
G01*
X176600601Y-73039000D01*
G75*
G02*
X176850600Y-73288999I0J-249999D01*
G01*
X176850600Y-74539001D01*
G75*
G02*
X176600601Y-74789000I-249999J0D01*
G01*
X175900599Y-74789000D01*
G75*
G02*
X175650600Y-74539001I0J249999D01*
G01*
G37*
%TD.AperFunction*%
%TO.P,J4,2*%
%TO.N,GND*%
X178250600Y-73914000D03*
%TO.P,J4,3*%
%TO.N,Out-A*%
X180250600Y-73914000D03*
%TO.P,J4,4*%
%TO.N,Out-B*%
X182250600Y-73914000D03*
%TD*%
%TO.P,J3,1*%
%TO.N,GND*%
%TA.AperFunction,ComponentPad*%
G36*
G01*
X189366600Y-74513601D02*
X189366600Y-73263599D01*
G75*
G02*
X189616599Y-73013600I249999J0D01*
G01*
X190316601Y-73013600D01*
G75*
G02*
X190566600Y-73263599I0J-249999D01*
G01*
X190566600Y-74513601D01*
G75*
G02*
X190316601Y-74763600I-249999J0D01*
G01*
X189616599Y-74763600D01*
G75*
G02*
X189366600Y-74513601I0J249999D01*
G01*
G37*
%TD.AperFunction*%
%TO.P,J3,2*%
%TO.N,+5V*%
X191966600Y-73888600D03*
%TO.P,J3,3*%
%TO.N,-5V*%
X193966600Y-73888600D03*
%TD*%
%TA.AperFunction,ComponentPad*%
D11*
%TO.P,J1B1,1*%
%TO.N,/Mid-Muscle-A*%
G36*
X186642159Y-49379532D02*
G01*
X186637891Y-49393601D01*
X186630960Y-49406568D01*
X186621633Y-49417933D01*
X186610268Y-49427260D01*
X186597301Y-49434191D01*
X186583232Y-49438459D01*
X186568600Y-49439900D01*
X184689000Y-49439900D01*
X184674368Y-49438459D01*
X184660299Y-49434191D01*
X184647332Y-49427260D01*
X184635967Y-49417933D01*
X184626640Y-49406568D01*
X184619709Y-49393601D01*
X184615441Y-49379532D01*
X184614000Y-49364900D01*
X184614000Y-46266100D01*
X184615441Y-46251468D01*
X184619709Y-46237399D01*
X184626640Y-46224432D01*
X184635967Y-46213067D01*
X184647332Y-46203740D01*
X184660299Y-46196809D01*
X184674368Y-46192541D01*
X184689000Y-46191100D01*
X186568600Y-46191100D01*
X186583232Y-46192541D01*
X186597301Y-46196809D01*
X186610268Y-46203740D01*
X186621633Y-46213067D01*
X186630960Y-46224432D01*
X186637891Y-46237399D01*
X186642159Y-46251468D01*
X186643600Y-46266100D01*
X186643600Y-49364900D01*
X186642159Y-49379532D01*
G37*
%TD.AperFunction*%
%TA.AperFunction,ComponentPad*%
%TO.P,J1B1,3*%
%TO.N,GND*%
G36*
X180642159Y-49379532D02*
G01*
X180637891Y-49393601D01*
X180630960Y-49406568D01*
X180621633Y-49417933D01*
X180610268Y-49427260D01*
X180597301Y-49434191D01*
X180583232Y-49438459D01*
X180568600Y-49439900D01*
X178689000Y-49439900D01*
X178674368Y-49438459D01*
X178660299Y-49434191D01*
X178647332Y-49427260D01*
X178635967Y-49417933D01*
X178626640Y-49406568D01*
X178619709Y-49393601D01*
X178615441Y-49379532D01*
X178614000Y-49364900D01*
X178614000Y-46266100D01*
X178615441Y-46251468D01*
X178619709Y-46237399D01*
X178626640Y-46224432D01*
X178635967Y-46213067D01*
X178647332Y-46203740D01*
X178660299Y-46196809D01*
X178674368Y-46192541D01*
X178689000Y-46191100D01*
X180568600Y-46191100D01*
X180583232Y-46192541D01*
X180597301Y-46196809D01*
X180610268Y-46203740D01*
X180621633Y-46213067D01*
X180630960Y-46224432D01*
X180637891Y-46237399D01*
X180642159Y-46251468D01*
X180643600Y-46266100D01*
X180643600Y-49364900D01*
X180642159Y-49379532D01*
G37*
%TD.AperFunction*%
%TA.AperFunction,ComponentPad*%
%TO.P,J1B1,2*%
%TO.N,/End-Muscle-A*%
G36*
X183642159Y-49379532D02*
G01*
X183637891Y-49393601D01*
X183630960Y-49406568D01*
X183621633Y-49417933D01*
X183610268Y-49427260D01*
X183597301Y-49434191D01*
X183583232Y-49438459D01*
X183568600Y-49439900D01*
X181689000Y-49439900D01*
X181674368Y-49438459D01*
X181660299Y-49434191D01*
X181647332Y-49427260D01*
X181635967Y-49417933D01*
X181626640Y-49406568D01*
X181619709Y-49393601D01*
X181615441Y-49379532D01*
X181614000Y-49364900D01*
X181614000Y-46266100D01*
X181615441Y-46251468D01*
X181619709Y-46237399D01*
X181626640Y-46224432D01*
X181635967Y-46213067D01*
X181647332Y-46203740D01*
X181660299Y-46196809D01*
X181674368Y-46192541D01*
X181689000Y-46191100D01*
X183568600Y-46191100D01*
X183583232Y-46192541D01*
X183597301Y-46196809D01*
X183610268Y-46203740D01*
X183621633Y-46213067D01*
X183630960Y-46224432D01*
X183637891Y-46237399D01*
X183642159Y-46251468D01*
X183643600Y-46266100D01*
X183643600Y-49364900D01*
X183642159Y-49379532D01*
G37*
%TD.AperFunction*%
%TD*%
%TA.AperFunction,ComponentPad*%
%TO.P,J2B1,1*%
%TO.N,/End-Muscle-B*%
G36*
X193827559Y-49379532D02*
G01*
X193823291Y-49393601D01*
X193816360Y-49406568D01*
X193807033Y-49417933D01*
X193795668Y-49427260D01*
X193782701Y-49434191D01*
X193768632Y-49438459D01*
X193754000Y-49439900D01*
X191874400Y-49439900D01*
X191859768Y-49438459D01*
X191845699Y-49434191D01*
X191832732Y-49427260D01*
X191821367Y-49417933D01*
X191812040Y-49406568D01*
X191805109Y-49393601D01*
X191800841Y-49379532D01*
X191799400Y-49364900D01*
X191799400Y-46266100D01*
X191800841Y-46251468D01*
X191805109Y-46237399D01*
X191812040Y-46224432D01*
X191821367Y-46213067D01*
X191832732Y-46203740D01*
X191845699Y-46196809D01*
X191859768Y-46192541D01*
X191874400Y-46191100D01*
X193754000Y-46191100D01*
X193768632Y-46192541D01*
X193782701Y-46196809D01*
X193795668Y-46203740D01*
X193807033Y-46213067D01*
X193816360Y-46224432D01*
X193823291Y-46237399D01*
X193827559Y-46251468D01*
X193829000Y-46266100D01*
X193829000Y-49364900D01*
X193827559Y-49379532D01*
G37*
%TD.AperFunction*%
%TA.AperFunction,ComponentPad*%
%TO.P,J2B1,2*%
%TO.N,/Mid-Muscle-B*%
G36*
X190827559Y-49379532D02*
G01*
X190823291Y-49393601D01*
X190816360Y-49406568D01*
X190807033Y-49417933D01*
X190795668Y-49427260D01*
X190782701Y-49434191D01*
X190768632Y-49438459D01*
X190754000Y-49439900D01*
X188874400Y-49439900D01*
X188859768Y-49438459D01*
X188845699Y-49434191D01*
X188832732Y-49427260D01*
X188821367Y-49417933D01*
X188812040Y-49406568D01*
X188805109Y-49393601D01*
X188800841Y-49379532D01*
X188799400Y-49364900D01*
X188799400Y-46266100D01*
X188800841Y-46251468D01*
X188805109Y-46237399D01*
X188812040Y-46224432D01*
X188821367Y-46213067D01*
X188832732Y-46203740D01*
X188845699Y-46196809D01*
X188859768Y-46192541D01*
X188874400Y-46191100D01*
X190754000Y-46191100D01*
X190768632Y-46192541D01*
X190782701Y-46196809D01*
X190795668Y-46203740D01*
X190807033Y-46213067D01*
X190816360Y-46224432D01*
X190823291Y-46237399D01*
X190827559Y-46251468D01*
X190829000Y-46266100D01*
X190829000Y-49364900D01*
X190827559Y-49379532D01*
G37*
%TD.AperFunction*%
%TD*%
D12*
%TO.N,GND*%
X179628800Y-46240700D03*
D13*
X192659000Y-58039000D03*
X181584600Y-68453000D03*
X183769000Y-63627000D03*
X190720000Y-65850000D03*
X190652400Y-69418200D03*
X198272400Y-69799200D03*
%TO.N,Net-(C5-Pad1)*%
X191897000Y-69418200D03*
X195097400Y-67538600D03*
%TO.N,+3V3*%
X197390000Y-72490000D03*
D12*
%TO.N,/End-Muscle-A*%
X182626000Y-46240700D03*
%TO.N,/Mid-Muscle-A*%
X185623200Y-46215300D03*
%TO.N,/Mid-Muscle-B*%
X189814200Y-46215300D03*
%TO.N,/End-Muscle-B*%
X192811400Y-46215300D03*
D13*
%TO.N,-5V*%
X177546000Y-60960000D03*
X181610000Y-69723000D03*
X185690000Y-72520000D03*
%TD*%
D14*
%TO.N,GND*%
X192659000Y-58039000D02*
X192151000Y-58547000D01*
X192151000Y-62071000D02*
X192151000Y-64897000D01*
X192151000Y-58547000D02*
X192151000Y-62071000D01*
X183769000Y-63627000D02*
X183769000Y-64821000D01*
X180467000Y-60325000D02*
X180467000Y-60128002D01*
X183769000Y-63627000D02*
X180467000Y-60325000D01*
X180467000Y-60128002D02*
X180467000Y-53530500D01*
X191673000Y-64897000D02*
X192151000Y-64897000D01*
X190720000Y-65850000D02*
X191673000Y-64897000D01*
X190720000Y-69350600D02*
X190652400Y-69418200D01*
X190720000Y-65850000D02*
X190720000Y-69350600D01*
X181770000Y-68597800D02*
X181610000Y-68757800D01*
X183769000Y-64821000D02*
X182295600Y-64821000D01*
X182295600Y-64821000D02*
X181584600Y-65532000D01*
X181584600Y-65532000D02*
X181584600Y-68453000D01*
X197928399Y-70143201D02*
X198272400Y-69799200D01*
X191377401Y-70143201D02*
X197928399Y-70143201D01*
X190652400Y-69418200D02*
X191377401Y-70143201D01*
X190595000Y-63627000D02*
X192151000Y-62071000D01*
X183769000Y-63627000D02*
X190595000Y-63627000D01*
%TO.N,Net-(C5-Pad1)*%
X193776600Y-67538600D02*
X195097400Y-67538600D01*
X191897000Y-69418200D02*
X193776600Y-67538600D01*
%TO.N,+3V3*%
X185449761Y-75530000D02*
X194350000Y-75530000D01*
X194350000Y-75530000D02*
X197390000Y-72490000D01*
X185033771Y-75114010D02*
X185449761Y-75530000D01*
X177450610Y-75114010D02*
X185033771Y-75114010D01*
X176250600Y-73914000D02*
X177450610Y-75114010D01*
%TO.N,-5V*%
X177546000Y-65659000D02*
X177546000Y-60960000D01*
X181610000Y-69723000D02*
X177546000Y-65659000D01*
X181610000Y-69723000D02*
X182643000Y-69723000D01*
X182893000Y-69723000D02*
X185690000Y-72520000D01*
X182643000Y-69723000D02*
X182893000Y-69723000D01*
%TD*%
D15*
%TO.N,GND*%
X177975928Y-49364900D02*
X177979000Y-49427437D01*
X177980441Y-49442069D01*
X178004847Y-49564763D01*
X178009115Y-49578832D01*
X178056980Y-49694386D01*
X178063911Y-49707353D01*
X178133403Y-49811356D01*
X178142730Y-49822721D01*
X178231179Y-49911170D01*
X178242544Y-49920497D01*
X178346547Y-49989989D01*
X178359514Y-49996920D01*
X178475068Y-50044785D01*
X178489137Y-50049053D01*
X178611831Y-50073459D01*
X178626463Y-50074900D01*
X178689000Y-50077972D01*
X180568600Y-50077972D01*
X180631137Y-50074900D01*
X180645769Y-50073459D01*
X180768463Y-50049053D01*
X180782532Y-50044785D01*
X180898086Y-49996920D01*
X180911053Y-49989989D01*
X181015056Y-49920497D01*
X181026421Y-49911170D01*
X181114870Y-49822721D01*
X181124197Y-49811356D01*
X181128800Y-49804467D01*
X181133403Y-49811356D01*
X181142730Y-49822721D01*
X181231179Y-49911170D01*
X181242544Y-49920497D01*
X181346547Y-49989989D01*
X181359514Y-49996920D01*
X181475068Y-50044785D01*
X181489137Y-50049053D01*
X181611831Y-50073459D01*
X181626463Y-50074900D01*
X181689000Y-50077972D01*
X183568600Y-50077972D01*
X183631137Y-50074900D01*
X183645769Y-50073459D01*
X183768463Y-50049053D01*
X183782532Y-50044785D01*
X183898086Y-49996920D01*
X183911053Y-49989989D01*
X184015056Y-49920497D01*
X184026421Y-49911170D01*
X184114870Y-49822721D01*
X184124197Y-49811356D01*
X184128800Y-49804467D01*
X184133403Y-49811356D01*
X184142730Y-49822721D01*
X184231179Y-49911170D01*
X184242544Y-49920497D01*
X184346547Y-49989989D01*
X184359514Y-49996920D01*
X184475068Y-50044785D01*
X184489137Y-50049053D01*
X184611831Y-50073459D01*
X184626463Y-50074900D01*
X184689000Y-50077972D01*
X186568600Y-50077972D01*
X186631137Y-50074900D01*
X186645769Y-50073459D01*
X186768463Y-50049053D01*
X186782532Y-50044785D01*
X186898086Y-49996920D01*
X186911053Y-49989989D01*
X187015056Y-49920497D01*
X187026421Y-49911170D01*
X187114870Y-49822721D01*
X187124197Y-49811356D01*
X187193689Y-49707353D01*
X187200620Y-49694386D01*
X187248485Y-49578832D01*
X187252753Y-49564763D01*
X187277159Y-49442069D01*
X187278600Y-49427437D01*
X187281672Y-49364900D01*
X187281672Y-46913000D01*
X188161328Y-46913000D01*
X188161328Y-49364900D01*
X188164400Y-49427437D01*
X188165841Y-49442069D01*
X188190247Y-49564763D01*
X188194515Y-49578832D01*
X188242380Y-49694386D01*
X188249311Y-49707353D01*
X188318803Y-49811356D01*
X188328130Y-49822721D01*
X188416579Y-49911170D01*
X188427944Y-49920497D01*
X188531947Y-49989989D01*
X188544914Y-49996920D01*
X188660468Y-50044785D01*
X188674537Y-50049053D01*
X188797231Y-50073459D01*
X188811863Y-50074900D01*
X188874400Y-50077972D01*
X190754000Y-50077972D01*
X190816537Y-50074900D01*
X190831169Y-50073459D01*
X190953863Y-50049053D01*
X190967932Y-50044785D01*
X191083486Y-49996920D01*
X191096453Y-49989989D01*
X191200456Y-49920497D01*
X191211821Y-49911170D01*
X191300270Y-49822721D01*
X191309597Y-49811356D01*
X191314200Y-49804467D01*
X191318803Y-49811356D01*
X191328130Y-49822721D01*
X191416579Y-49911170D01*
X191427944Y-49920497D01*
X191531947Y-49989989D01*
X191544914Y-49996920D01*
X191660468Y-50044785D01*
X191674537Y-50049053D01*
X191797231Y-50073459D01*
X191811863Y-50074900D01*
X191874400Y-50077972D01*
X193754000Y-50077972D01*
X193816537Y-50074900D01*
X193831169Y-50073459D01*
X193953863Y-50049053D01*
X193967932Y-50044785D01*
X194083486Y-49996920D01*
X194096453Y-49989989D01*
X194200456Y-49920497D01*
X194211821Y-49911170D01*
X194300270Y-49822721D01*
X194309597Y-49811356D01*
X194379089Y-49707353D01*
X194386020Y-49694386D01*
X194433885Y-49578832D01*
X194438153Y-49564763D01*
X194462559Y-49442069D01*
X194464000Y-49427437D01*
X194467072Y-49364900D01*
X194467072Y-46913000D01*
X199598013Y-46913000D01*
X199648894Y-47098033D01*
X199671112Y-47155987D01*
X199692532Y-47214281D01*
X199696750Y-47222864D01*
X199870857Y-47570919D01*
X199903911Y-47623458D01*
X199936242Y-47676475D01*
X199942048Y-47684075D01*
X200180443Y-47991685D01*
X200223086Y-48036817D01*
X200265086Y-48082530D01*
X200272257Y-48088859D01*
X200565860Y-48344305D01*
X200616475Y-48380308D01*
X200666537Y-48416980D01*
X200674801Y-48421795D01*
X201012429Y-48615348D01*
X201069042Y-48640820D01*
X201125303Y-48667084D01*
X201134345Y-48670202D01*
X201422812Y-48767419D01*
X201422800Y-60561846D01*
X201432712Y-60662482D01*
X201471881Y-60791605D01*
X201535488Y-60910606D01*
X201621089Y-61014910D01*
X201725393Y-61100511D01*
X201844394Y-61164118D01*
X201973517Y-61203287D01*
X202026496Y-61208505D01*
X202026333Y-61346510D01*
X201973518Y-61351712D01*
X201909818Y-61371035D01*
X201909814Y-61371036D01*
X201909811Y-61371037D01*
X201844395Y-61390881D01*
X201725394Y-61454488D01*
X201621090Y-61540089D01*
X201535489Y-61644393D01*
X201471882Y-61763394D01*
X201432713Y-61892517D01*
X201422801Y-61993153D01*
X201422800Y-65057646D01*
X201432712Y-65158282D01*
X201471881Y-65287405D01*
X201535488Y-65406406D01*
X201621089Y-65510710D01*
X201725393Y-65596312D01*
X201844394Y-65659919D01*
X201973517Y-65699088D01*
X202021176Y-65703782D01*
X202021012Y-65842834D01*
X201973517Y-65847512D01*
X201844394Y-65886681D01*
X201725393Y-65950288D01*
X201621089Y-66035890D01*
X201535488Y-66140194D01*
X201471881Y-66259195D01*
X201432712Y-66388318D01*
X201422800Y-66488954D01*
X201422801Y-75245887D01*
X201006293Y-75367899D01*
X200948724Y-75391074D01*
X200890790Y-75413461D01*
X200882277Y-75417822D01*
X200449249Y-75643504D01*
X200397254Y-75677435D01*
X200344792Y-75710635D01*
X200337289Y-75716566D01*
X199956342Y-76022061D01*
X199911929Y-76065443D01*
X199866915Y-76108201D01*
X199860707Y-76115477D01*
X199546353Y-76489145D01*
X199511202Y-76540343D01*
X199475360Y-76591016D01*
X199470683Y-76599359D01*
X199234896Y-77026971D01*
X199210350Y-77084041D01*
X199185043Y-77140689D01*
X199182075Y-77149781D01*
X199033835Y-77615046D01*
X199032153Y-77622911D01*
X173665430Y-77610788D01*
X173661825Y-77592878D01*
X173658968Y-77583750D01*
X173509843Y-77118767D01*
X173485194Y-77061757D01*
X173461363Y-77004455D01*
X173456788Y-76996056D01*
X173220186Y-76568895D01*
X173184943Y-76517772D01*
X173150427Y-76466177D01*
X173144311Y-76458832D01*
X173144307Y-76458826D01*
X173144302Y-76458821D01*
X172829243Y-76085756D01*
X172784738Y-76042449D01*
X172740860Y-75998544D01*
X172733430Y-75992522D01*
X172351903Y-75687753D01*
X172299832Y-75653914D01*
X172248265Y-75619369D01*
X172239809Y-75614908D01*
X172239805Y-75614905D01*
X172239801Y-75614903D01*
X171806349Y-75390046D01*
X171748671Y-75366955D01*
X171691401Y-75343095D01*
X171682236Y-75340359D01*
X171220600Y-75206082D01*
X171220600Y-73288999D01*
X175012528Y-73288999D01*
X175012528Y-74539001D01*
X175029592Y-74712255D01*
X175080128Y-74878851D01*
X175162195Y-75032387D01*
X175272638Y-75166962D01*
X175407213Y-75277405D01*
X175560749Y-75359472D01*
X175727345Y-75410008D01*
X175900599Y-75427072D01*
X176600601Y-75427072D01*
X176680955Y-75419158D01*
X176886815Y-75625018D01*
X176910609Y-75654011D01*
X176939602Y-75677805D01*
X176939606Y-75677809D01*
X177003039Y-75729866D01*
X177026334Y-75748984D01*
X177158363Y-75819556D01*
X177301624Y-75863013D01*
X177413277Y-75874010D01*
X177413286Y-75874010D01*
X177450609Y-75877686D01*
X177487932Y-75874010D01*
X184718970Y-75874010D01*
X184885957Y-76040997D01*
X184909760Y-76070001D01*
X185025485Y-76164974D01*
X185157514Y-76235546D01*
X185300775Y-76279003D01*
X185412428Y-76290000D01*
X185412436Y-76290000D01*
X185449761Y-76293676D01*
X185487086Y-76290000D01*
X194312678Y-76290000D01*
X194350000Y-76293676D01*
X194387322Y-76290000D01*
X194387333Y-76290000D01*
X194498986Y-76279003D01*
X194642247Y-76235546D01*
X194774276Y-76164974D01*
X194890001Y-76070001D01*
X194913804Y-76040997D01*
X197429802Y-73525000D01*
X197491939Y-73525000D01*
X197691898Y-73485226D01*
X197880256Y-73407205D01*
X198049774Y-73293937D01*
X198193937Y-73149774D01*
X198307205Y-72980256D01*
X198385226Y-72791898D01*
X198425000Y-72591939D01*
X198425000Y-72388061D01*
X198385226Y-72188102D01*
X198307205Y-71999744D01*
X198193937Y-71830226D01*
X198049774Y-71686063D01*
X197880256Y-71572795D01*
X197691898Y-71494774D01*
X197491939Y-71455000D01*
X197288061Y-71455000D01*
X197088102Y-71494774D01*
X196899744Y-71572795D01*
X196730226Y-71686063D01*
X196586063Y-71830226D01*
X196472795Y-71999744D01*
X196394774Y-72188102D01*
X196355000Y-72388061D01*
X196355000Y-72450198D01*
X195201600Y-73603599D01*
X195201600Y-73552935D01*
X195183730Y-73371498D01*
X195113111Y-73138699D01*
X194998433Y-72924151D01*
X194844102Y-72736098D01*
X194656048Y-72581767D01*
X194441500Y-72467089D01*
X194208701Y-72396470D01*
X193966600Y-72372625D01*
X193724498Y-72396470D01*
X193491699Y-72467089D01*
X193277151Y-72581767D01*
X193089098Y-72736098D01*
X192966600Y-72885363D01*
X192844102Y-72736098D01*
X192656048Y-72581767D01*
X192441500Y-72467089D01*
X192208701Y-72396470D01*
X191966600Y-72372625D01*
X191724498Y-72396470D01*
X191491699Y-72467089D01*
X191277151Y-72581767D01*
X191123291Y-72708036D01*
X191097137Y-72659106D01*
X191017785Y-72562415D01*
X190921094Y-72483063D01*
X190810780Y-72424098D01*
X190691082Y-72387788D01*
X190566600Y-72375528D01*
X190252350Y-72378600D01*
X190093600Y-72537350D01*
X190093600Y-73761600D01*
X190113600Y-73761600D01*
X190113600Y-74015600D01*
X190093600Y-74015600D01*
X190093600Y-74035600D01*
X189839600Y-74035600D01*
X189839600Y-74015600D01*
X188890350Y-74015600D01*
X188731600Y-74174350D01*
X188728528Y-74763600D01*
X188729158Y-74770000D01*
X185764562Y-74770000D01*
X185597575Y-74603013D01*
X185573772Y-74574009D01*
X185458047Y-74479036D01*
X185326018Y-74408464D01*
X185182757Y-74365007D01*
X185071104Y-74354010D01*
X185071093Y-74354010D01*
X185033771Y-74350334D01*
X184996449Y-74354010D01*
X183475323Y-74354010D01*
X183485600Y-74249664D01*
X183485600Y-73578335D01*
X183467730Y-73396898D01*
X183397111Y-73164099D01*
X183282433Y-72949551D01*
X183128102Y-72761498D01*
X182940048Y-72607167D01*
X182725500Y-72492489D01*
X182492701Y-72421870D01*
X182250600Y-72398025D01*
X182008498Y-72421870D01*
X181775699Y-72492489D01*
X181561151Y-72607167D01*
X181373098Y-72761498D01*
X181250600Y-72910763D01*
X181128102Y-72761498D01*
X180940048Y-72607167D01*
X180725500Y-72492489D01*
X180492701Y-72421870D01*
X180250600Y-72398025D01*
X180008498Y-72421870D01*
X179775699Y-72492489D01*
X179561151Y-72607167D01*
X179373098Y-72761498D01*
X179250119Y-72911349D01*
X179206907Y-72847275D01*
X179034074Y-72675922D01*
X178831133Y-72541579D01*
X178605882Y-72449409D01*
X178568209Y-72445538D01*
X178377600Y-72570269D01*
X178377600Y-73787000D01*
X178397600Y-73787000D01*
X178397600Y-74041000D01*
X178377600Y-74041000D01*
X178377600Y-74061000D01*
X178123600Y-74061000D01*
X178123600Y-74041000D01*
X178103600Y-74041000D01*
X178103600Y-73787000D01*
X178123600Y-73787000D01*
X178123600Y-72570269D01*
X177932991Y-72445538D01*
X177895318Y-72449409D01*
X177670067Y-72541579D01*
X177467126Y-72675922D01*
X177341567Y-72800406D01*
X177339005Y-72795613D01*
X177228562Y-72661038D01*
X177093987Y-72550595D01*
X176940451Y-72468528D01*
X176773855Y-72417992D01*
X176600601Y-72400928D01*
X175900599Y-72400928D01*
X175727345Y-72417992D01*
X175560749Y-72468528D01*
X175407213Y-72550595D01*
X175272638Y-72661038D01*
X175162195Y-72795613D01*
X175080128Y-72949149D01*
X175029592Y-73115745D01*
X175012528Y-73288999D01*
X171220600Y-73288999D01*
X171220600Y-66514353D01*
X171210688Y-66413717D01*
X171171519Y-66284594D01*
X171107912Y-66165593D01*
X171022310Y-66061289D01*
X170918006Y-65975688D01*
X170799005Y-65912081D01*
X170669882Y-65872912D01*
X170652760Y-65871226D01*
X170652642Y-65722227D01*
X170773605Y-65685533D01*
X170892606Y-65621926D01*
X170996910Y-65536325D01*
X171082511Y-65432021D01*
X171146118Y-65313020D01*
X171185287Y-65183897D01*
X171195199Y-65083261D01*
X171195201Y-62018555D01*
X171185289Y-61917919D01*
X171146120Y-61788796D01*
X171082513Y-61669795D01*
X170996912Y-61565491D01*
X170892608Y-61479890D01*
X170773607Y-61416283D01*
X170649213Y-61378548D01*
X170649096Y-61230735D01*
X170669882Y-61228688D01*
X170799005Y-61189519D01*
X170918006Y-61125912D01*
X171022310Y-61040311D01*
X171107912Y-60936007D01*
X171149574Y-60858061D01*
X176511000Y-60858061D01*
X176511000Y-61061939D01*
X176550774Y-61261898D01*
X176628795Y-61450256D01*
X176742063Y-61619774D01*
X176786001Y-61663712D01*
X176786000Y-65621677D01*
X176782324Y-65659000D01*
X176786000Y-65696322D01*
X176786000Y-65696332D01*
X176796997Y-65807985D01*
X176822672Y-65892625D01*
X176840454Y-65951246D01*
X176911026Y-66083276D01*
X176948096Y-66128445D01*
X177005999Y-66199001D01*
X177035003Y-66222804D01*
X180575000Y-69762802D01*
X180575000Y-69824939D01*
X180614774Y-70024898D01*
X180692795Y-70213256D01*
X180806063Y-70382774D01*
X180950226Y-70526937D01*
X181119744Y-70640205D01*
X181308102Y-70718226D01*
X181508061Y-70758000D01*
X181711939Y-70758000D01*
X181911898Y-70718226D01*
X182100256Y-70640205D01*
X182269774Y-70526937D01*
X182313711Y-70483000D01*
X182578199Y-70483000D01*
X184655000Y-72559802D01*
X184655000Y-72621939D01*
X184694774Y-72821898D01*
X184772795Y-73010256D01*
X184886063Y-73179774D01*
X185030226Y-73323937D01*
X185199744Y-73437205D01*
X185388102Y-73515226D01*
X185588061Y-73555000D01*
X185791939Y-73555000D01*
X185991898Y-73515226D01*
X186180256Y-73437205D01*
X186349774Y-73323937D01*
X186493937Y-73179774D01*
X186604970Y-73013600D01*
X188728528Y-73013600D01*
X188731600Y-73602850D01*
X188890350Y-73761600D01*
X189839600Y-73761600D01*
X189839600Y-72537350D01*
X189680850Y-72378600D01*
X189366600Y-72375528D01*
X189242118Y-72387788D01*
X189122420Y-72424098D01*
X189012106Y-72483063D01*
X188915415Y-72562415D01*
X188836063Y-72659106D01*
X188777098Y-72769420D01*
X188740788Y-72889118D01*
X188728528Y-73013600D01*
X186604970Y-73013600D01*
X186607205Y-73010256D01*
X186685226Y-72821898D01*
X186725000Y-72621939D01*
X186725000Y-72418061D01*
X186685226Y-72218102D01*
X186607205Y-72029744D01*
X186493937Y-71860226D01*
X186349774Y-71716063D01*
X186180256Y-71602795D01*
X185991898Y-71524774D01*
X185791939Y-71485000D01*
X185729802Y-71485000D01*
X183561063Y-69316261D01*
X190862000Y-69316261D01*
X190862000Y-69520139D01*
X190901774Y-69720098D01*
X190979795Y-69908456D01*
X191093063Y-70077974D01*
X191237226Y-70222137D01*
X191406744Y-70335405D01*
X191595102Y-70413426D01*
X191795061Y-70453200D01*
X191998939Y-70453200D01*
X192198898Y-70413426D01*
X192387256Y-70335405D01*
X192556774Y-70222137D01*
X192700937Y-70077974D01*
X192814205Y-69908456D01*
X192892226Y-69720098D01*
X192932000Y-69520139D01*
X192932000Y-69458001D01*
X194091402Y-68298600D01*
X194393689Y-68298600D01*
X194437626Y-68342537D01*
X194607144Y-68455805D01*
X194795502Y-68533826D01*
X194995461Y-68573600D01*
X195199339Y-68573600D01*
X195399298Y-68533826D01*
X195587656Y-68455805D01*
X195757174Y-68342537D01*
X195901337Y-68198374D01*
X196014605Y-68028856D01*
X196092626Y-67840498D01*
X196132400Y-67640539D01*
X196132400Y-67436661D01*
X196092626Y-67236702D01*
X196014605Y-67048344D01*
X195901337Y-66878826D01*
X195757174Y-66734663D01*
X195587656Y-66621395D01*
X195399298Y-66543374D01*
X195199339Y-66503600D01*
X194995461Y-66503600D01*
X194795502Y-66543374D01*
X194607144Y-66621395D01*
X194437626Y-66734663D01*
X194393689Y-66778600D01*
X193813923Y-66778600D01*
X193776600Y-66774924D01*
X193739277Y-66778600D01*
X193739267Y-66778600D01*
X193627614Y-66789597D01*
X193484353Y-66833054D01*
X193352324Y-66903626D01*
X193236599Y-66998599D01*
X193212801Y-67027597D01*
X191857199Y-68383200D01*
X191795061Y-68383200D01*
X191595102Y-68422974D01*
X191406744Y-68500995D01*
X191237226Y-68614263D01*
X191093063Y-68758426D01*
X190979795Y-68927944D01*
X190901774Y-69116302D01*
X190862000Y-69316261D01*
X183561063Y-69316261D01*
X183456804Y-69212003D01*
X183433001Y-69182999D01*
X183317276Y-69088026D01*
X183185247Y-69017454D01*
X183041986Y-68973997D01*
X182930333Y-68963000D01*
X182930322Y-68963000D01*
X182893000Y-68959324D01*
X182855678Y-68963000D01*
X182313711Y-68963000D01*
X182269774Y-68919063D01*
X182100256Y-68805795D01*
X181911898Y-68727774D01*
X181711939Y-68688000D01*
X181649802Y-68688000D01*
X178306000Y-65344199D01*
X178306000Y-61663711D01*
X178349937Y-61619774D01*
X178463205Y-61450256D01*
X178541226Y-61261898D01*
X178581000Y-61061939D01*
X178581000Y-60858061D01*
X178541226Y-60658102D01*
X178463205Y-60469744D01*
X178349937Y-60300226D01*
X178205774Y-60156063D01*
X178036256Y-60042795D01*
X177847898Y-59964774D01*
X177647939Y-59925000D01*
X177444061Y-59925000D01*
X177244102Y-59964774D01*
X177055744Y-60042795D01*
X176886226Y-60156063D01*
X176742063Y-60300226D01*
X176628795Y-60469744D01*
X176550774Y-60658102D01*
X176511000Y-60858061D01*
X171149574Y-60858061D01*
X171171519Y-60817006D01*
X171210688Y-60687883D01*
X171220600Y-60587247D01*
X171220600Y-54405500D01*
X179228928Y-54405500D01*
X179241188Y-54529982D01*
X179277498Y-54649680D01*
X179336463Y-54759994D01*
X179415815Y-54856685D01*
X179512506Y-54936037D01*
X179622820Y-54995002D01*
X179742518Y-55031312D01*
X179867000Y-55043572D01*
X180181250Y-55040500D01*
X180340000Y-54881750D01*
X180340000Y-53657500D01*
X179390750Y-53657500D01*
X179232000Y-53816250D01*
X179228928Y-54405500D01*
X171220600Y-54405500D01*
X171220600Y-52655500D01*
X179228928Y-52655500D01*
X179232000Y-53244750D01*
X179390750Y-53403500D01*
X180340000Y-53403500D01*
X180340000Y-52179250D01*
X180594000Y-52179250D01*
X180594000Y-53403500D01*
X180614000Y-53403500D01*
X180614000Y-53657500D01*
X180594000Y-53657500D01*
X180594000Y-54881750D01*
X180752750Y-55040500D01*
X181067000Y-55043572D01*
X181191482Y-55031312D01*
X181311180Y-54995002D01*
X181421494Y-54936037D01*
X181518185Y-54856685D01*
X181597537Y-54759994D01*
X181623692Y-54711063D01*
X181777552Y-54837333D01*
X181992100Y-54952011D01*
X182224899Y-55022630D01*
X182467000Y-55046475D01*
X182709102Y-55022630D01*
X182941901Y-54952011D01*
X183156449Y-54837333D01*
X183344502Y-54683002D01*
X183467001Y-54533737D01*
X183589499Y-54683002D01*
X183777552Y-54837333D01*
X183992100Y-54952011D01*
X184224899Y-55022630D01*
X184467000Y-55046475D01*
X184709102Y-55022630D01*
X184941901Y-54952011D01*
X185156449Y-54837333D01*
X185344502Y-54683002D01*
X185498833Y-54494949D01*
X185613511Y-54280400D01*
X185684130Y-54047601D01*
X185702000Y-53866164D01*
X185702000Y-53194835D01*
X185684130Y-53013398D01*
X185651400Y-52905499D01*
X189071428Y-52905499D01*
X189071428Y-54155501D01*
X189088492Y-54328755D01*
X189139028Y-54495351D01*
X189221095Y-54648887D01*
X189331538Y-54783462D01*
X189466113Y-54893905D01*
X189619649Y-54975972D01*
X189786245Y-55026508D01*
X189959499Y-55043572D01*
X190659501Y-55043572D01*
X190832755Y-55026508D01*
X190999351Y-54975972D01*
X191152887Y-54893905D01*
X191287462Y-54783462D01*
X191397905Y-54648887D01*
X191400310Y-54644388D01*
X191431999Y-54683002D01*
X191620052Y-54837333D01*
X191834600Y-54952011D01*
X192067399Y-55022630D01*
X192309500Y-55046475D01*
X192551602Y-55022630D01*
X192784401Y-54952011D01*
X192998949Y-54837333D01*
X193187002Y-54683002D01*
X193341333Y-54494949D01*
X193456011Y-54280400D01*
X193526630Y-54047601D01*
X193544500Y-53866164D01*
X193544500Y-53194835D01*
X193526630Y-53013398D01*
X193456011Y-52780599D01*
X193341333Y-52566051D01*
X193187002Y-52377998D01*
X192998948Y-52223667D01*
X192784400Y-52108989D01*
X192551601Y-52038370D01*
X192309500Y-52014525D01*
X192067398Y-52038370D01*
X191834599Y-52108989D01*
X191620051Y-52223667D01*
X191431998Y-52377998D01*
X191400309Y-52416611D01*
X191397905Y-52412113D01*
X191287462Y-52277538D01*
X191152887Y-52167095D01*
X190999351Y-52085028D01*
X190832755Y-52034492D01*
X190659501Y-52017428D01*
X189959499Y-52017428D01*
X189786245Y-52034492D01*
X189619649Y-52085028D01*
X189466113Y-52167095D01*
X189331538Y-52277538D01*
X189221095Y-52412113D01*
X189139028Y-52565649D01*
X189088492Y-52732245D01*
X189071428Y-52905499D01*
X185651400Y-52905499D01*
X185613511Y-52780599D01*
X185498833Y-52566051D01*
X185344502Y-52377998D01*
X185156448Y-52223667D01*
X184941900Y-52108989D01*
X184709101Y-52038370D01*
X184467000Y-52014525D01*
X184224898Y-52038370D01*
X183992099Y-52108989D01*
X183777551Y-52223667D01*
X183589498Y-52377998D01*
X183467000Y-52527263D01*
X183344502Y-52377998D01*
X183156448Y-52223667D01*
X182941900Y-52108989D01*
X182709101Y-52038370D01*
X182467000Y-52014525D01*
X182224898Y-52038370D01*
X181992099Y-52108989D01*
X181777551Y-52223667D01*
X181623691Y-52349936D01*
X181597537Y-52301006D01*
X181518185Y-52204315D01*
X181421494Y-52124963D01*
X181311180Y-52065998D01*
X181191482Y-52029688D01*
X181067000Y-52017428D01*
X180752750Y-52020500D01*
X180594000Y-52179250D01*
X180340000Y-52179250D01*
X180181250Y-52020500D01*
X179867000Y-52017428D01*
X179742518Y-52029688D01*
X179622820Y-52065998D01*
X179512506Y-52124963D01*
X179415815Y-52204315D01*
X179336463Y-52301006D01*
X179277498Y-52411320D01*
X179241188Y-52531018D01*
X179228928Y-52655500D01*
X171220600Y-52655500D01*
X171220600Y-48750765D01*
X171422511Y-48693858D01*
X171480338Y-48671266D01*
X171538476Y-48649482D01*
X171547033Y-48645209D01*
X171893972Y-48468892D01*
X171946290Y-48435510D01*
X171999111Y-48402836D01*
X172006674Y-48396983D01*
X172312761Y-48156635D01*
X172357612Y-48113714D01*
X172403065Y-48071418D01*
X172409348Y-48064206D01*
X172662921Y-47768984D01*
X172698575Y-47718178D01*
X172734956Y-47667846D01*
X172739718Y-47659552D01*
X172931119Y-47320700D01*
X172956222Y-47263944D01*
X172982136Y-47207500D01*
X172985196Y-47198438D01*
X173079375Y-46913000D01*
X177975928Y-46913000D01*
X177975928Y-49364900D01*
%TA.AperFunction,Conductor*%
D16*
G36*
X177975928Y-49364900D02*
G01*
X177979000Y-49427437D01*
X177980441Y-49442069D01*
X178004847Y-49564763D01*
X178009115Y-49578832D01*
X178056980Y-49694386D01*
X178063911Y-49707353D01*
X178133403Y-49811356D01*
X178142730Y-49822721D01*
X178231179Y-49911170D01*
X178242544Y-49920497D01*
X178346547Y-49989989D01*
X178359514Y-49996920D01*
X178475068Y-50044785D01*
X178489137Y-50049053D01*
X178611831Y-50073459D01*
X178626463Y-50074900D01*
X178689000Y-50077972D01*
X180568600Y-50077972D01*
X180631137Y-50074900D01*
X180645769Y-50073459D01*
X180768463Y-50049053D01*
X180782532Y-50044785D01*
X180898086Y-49996920D01*
X180911053Y-49989989D01*
X181015056Y-49920497D01*
X181026421Y-49911170D01*
X181114870Y-49822721D01*
X181124197Y-49811356D01*
X181128800Y-49804467D01*
X181133403Y-49811356D01*
X181142730Y-49822721D01*
X181231179Y-49911170D01*
X181242544Y-49920497D01*
X181346547Y-49989989D01*
X181359514Y-49996920D01*
X181475068Y-50044785D01*
X181489137Y-50049053D01*
X181611831Y-50073459D01*
X181626463Y-50074900D01*
X181689000Y-50077972D01*
X183568600Y-50077972D01*
X183631137Y-50074900D01*
X183645769Y-50073459D01*
X183768463Y-50049053D01*
X183782532Y-50044785D01*
X183898086Y-49996920D01*
X183911053Y-49989989D01*
X184015056Y-49920497D01*
X184026421Y-49911170D01*
X184114870Y-49822721D01*
X184124197Y-49811356D01*
X184128800Y-49804467D01*
X184133403Y-49811356D01*
X184142730Y-49822721D01*
X184231179Y-49911170D01*
X184242544Y-49920497D01*
X184346547Y-49989989D01*
X184359514Y-49996920D01*
X184475068Y-50044785D01*
X184489137Y-50049053D01*
X184611831Y-50073459D01*
X184626463Y-50074900D01*
X184689000Y-50077972D01*
X186568600Y-50077972D01*
X186631137Y-50074900D01*
X186645769Y-50073459D01*
X186768463Y-50049053D01*
X186782532Y-50044785D01*
X186898086Y-49996920D01*
X186911053Y-49989989D01*
X187015056Y-49920497D01*
X187026421Y-49911170D01*
X187114870Y-49822721D01*
X187124197Y-49811356D01*
X187193689Y-49707353D01*
X187200620Y-49694386D01*
X187248485Y-49578832D01*
X187252753Y-49564763D01*
X187277159Y-49442069D01*
X187278600Y-49427437D01*
X187281672Y-49364900D01*
X187281672Y-46913000D01*
X188161328Y-46913000D01*
X188161328Y-49364900D01*
X188164400Y-49427437D01*
X188165841Y-49442069D01*
X188190247Y-49564763D01*
X188194515Y-49578832D01*
X188242380Y-49694386D01*
X188249311Y-49707353D01*
X188318803Y-49811356D01*
X188328130Y-49822721D01*
X188416579Y-49911170D01*
X188427944Y-49920497D01*
X188531947Y-49989989D01*
X188544914Y-49996920D01*
X188660468Y-50044785D01*
X188674537Y-50049053D01*
X188797231Y-50073459D01*
X188811863Y-50074900D01*
X188874400Y-50077972D01*
X190754000Y-50077972D01*
X190816537Y-50074900D01*
X190831169Y-50073459D01*
X190953863Y-50049053D01*
X190967932Y-50044785D01*
X191083486Y-49996920D01*
X191096453Y-49989989D01*
X191200456Y-49920497D01*
X191211821Y-49911170D01*
X191300270Y-49822721D01*
X191309597Y-49811356D01*
X191314200Y-49804467D01*
X191318803Y-49811356D01*
X191328130Y-49822721D01*
X191416579Y-49911170D01*
X191427944Y-49920497D01*
X191531947Y-49989989D01*
X191544914Y-49996920D01*
X191660468Y-50044785D01*
X191674537Y-50049053D01*
X191797231Y-50073459D01*
X191811863Y-50074900D01*
X191874400Y-50077972D01*
X193754000Y-50077972D01*
X193816537Y-50074900D01*
X193831169Y-50073459D01*
X193953863Y-50049053D01*
X193967932Y-50044785D01*
X194083486Y-49996920D01*
X194096453Y-49989989D01*
X194200456Y-49920497D01*
X194211821Y-49911170D01*
X194300270Y-49822721D01*
X194309597Y-49811356D01*
X194379089Y-49707353D01*
X194386020Y-49694386D01*
X194433885Y-49578832D01*
X194438153Y-49564763D01*
X194462559Y-49442069D01*
X194464000Y-49427437D01*
X194467072Y-49364900D01*
X194467072Y-46913000D01*
X199598013Y-46913000D01*
X199648894Y-47098033D01*
X199671112Y-47155987D01*
X199692532Y-47214281D01*
X199696750Y-47222864D01*
X199870857Y-47570919D01*
X199903911Y-47623458D01*
X199936242Y-47676475D01*
X199942048Y-47684075D01*
X200180443Y-47991685D01*
X200223086Y-48036817D01*
X200265086Y-48082530D01*
X200272257Y-48088859D01*
X200565860Y-48344305D01*
X200616475Y-48380308D01*
X200666537Y-48416980D01*
X200674801Y-48421795D01*
X201012429Y-48615348D01*
X201069042Y-48640820D01*
X201125303Y-48667084D01*
X201134345Y-48670202D01*
X201422812Y-48767419D01*
X201422800Y-60561846D01*
X201432712Y-60662482D01*
X201471881Y-60791605D01*
X201535488Y-60910606D01*
X201621089Y-61014910D01*
X201725393Y-61100511D01*
X201844394Y-61164118D01*
X201973517Y-61203287D01*
X202026496Y-61208505D01*
X202026333Y-61346510D01*
X201973518Y-61351712D01*
X201909818Y-61371035D01*
X201909814Y-61371036D01*
X201909811Y-61371037D01*
X201844395Y-61390881D01*
X201725394Y-61454488D01*
X201621090Y-61540089D01*
X201535489Y-61644393D01*
X201471882Y-61763394D01*
X201432713Y-61892517D01*
X201422801Y-61993153D01*
X201422800Y-65057646D01*
X201432712Y-65158282D01*
X201471881Y-65287405D01*
X201535488Y-65406406D01*
X201621089Y-65510710D01*
X201725393Y-65596312D01*
X201844394Y-65659919D01*
X201973517Y-65699088D01*
X202021176Y-65703782D01*
X202021012Y-65842834D01*
X201973517Y-65847512D01*
X201844394Y-65886681D01*
X201725393Y-65950288D01*
X201621089Y-66035890D01*
X201535488Y-66140194D01*
X201471881Y-66259195D01*
X201432712Y-66388318D01*
X201422800Y-66488954D01*
X201422801Y-75245887D01*
X201006293Y-75367899D01*
X200948724Y-75391074D01*
X200890790Y-75413461D01*
X200882277Y-75417822D01*
X200449249Y-75643504D01*
X200397254Y-75677435D01*
X200344792Y-75710635D01*
X200337289Y-75716566D01*
X199956342Y-76022061D01*
X199911929Y-76065443D01*
X199866915Y-76108201D01*
X199860707Y-76115477D01*
X199546353Y-76489145D01*
X199511202Y-76540343D01*
X199475360Y-76591016D01*
X199470683Y-76599359D01*
X199234896Y-77026971D01*
X199210350Y-77084041D01*
X199185043Y-77140689D01*
X199182075Y-77149781D01*
X199033835Y-77615046D01*
X199032153Y-77622911D01*
X173665430Y-77610788D01*
X173661825Y-77592878D01*
X173658968Y-77583750D01*
X173509843Y-77118767D01*
X173485194Y-77061757D01*
X173461363Y-77004455D01*
X173456788Y-76996056D01*
X173220186Y-76568895D01*
X173184943Y-76517772D01*
X173150427Y-76466177D01*
X173144311Y-76458832D01*
X173144307Y-76458826D01*
X173144302Y-76458821D01*
X172829243Y-76085756D01*
X172784738Y-76042449D01*
X172740860Y-75998544D01*
X172733430Y-75992522D01*
X172351903Y-75687753D01*
X172299832Y-75653914D01*
X172248265Y-75619369D01*
X172239809Y-75614908D01*
X172239805Y-75614905D01*
X172239801Y-75614903D01*
X171806349Y-75390046D01*
X171748671Y-75366955D01*
X171691401Y-75343095D01*
X171682236Y-75340359D01*
X171220600Y-75206082D01*
X171220600Y-73288999D01*
X175012528Y-73288999D01*
X175012528Y-74539001D01*
X175029592Y-74712255D01*
X175080128Y-74878851D01*
X175162195Y-75032387D01*
X175272638Y-75166962D01*
X175407213Y-75277405D01*
X175560749Y-75359472D01*
X175727345Y-75410008D01*
X175900599Y-75427072D01*
X176600601Y-75427072D01*
X176680955Y-75419158D01*
X176886815Y-75625018D01*
X176910609Y-75654011D01*
X176939602Y-75677805D01*
X176939606Y-75677809D01*
X177003039Y-75729866D01*
X177026334Y-75748984D01*
X177158363Y-75819556D01*
X177301624Y-75863013D01*
X177413277Y-75874010D01*
X177413286Y-75874010D01*
X177450609Y-75877686D01*
X177487932Y-75874010D01*
X184718970Y-75874010D01*
X184885957Y-76040997D01*
X184909760Y-76070001D01*
X185025485Y-76164974D01*
X185157514Y-76235546D01*
X185300775Y-76279003D01*
X185412428Y-76290000D01*
X185412436Y-76290000D01*
X185449761Y-76293676D01*
X185487086Y-76290000D01*
X194312678Y-76290000D01*
X194350000Y-76293676D01*
X194387322Y-76290000D01*
X194387333Y-76290000D01*
X194498986Y-76279003D01*
X194642247Y-76235546D01*
X194774276Y-76164974D01*
X194890001Y-76070001D01*
X194913804Y-76040997D01*
X197429802Y-73525000D01*
X197491939Y-73525000D01*
X197691898Y-73485226D01*
X197880256Y-73407205D01*
X198049774Y-73293937D01*
X198193937Y-73149774D01*
X198307205Y-72980256D01*
X198385226Y-72791898D01*
X198425000Y-72591939D01*
X198425000Y-72388061D01*
X198385226Y-72188102D01*
X198307205Y-71999744D01*
X198193937Y-71830226D01*
X198049774Y-71686063D01*
X197880256Y-71572795D01*
X197691898Y-71494774D01*
X197491939Y-71455000D01*
X197288061Y-71455000D01*
X197088102Y-71494774D01*
X196899744Y-71572795D01*
X196730226Y-71686063D01*
X196586063Y-71830226D01*
X196472795Y-71999744D01*
X196394774Y-72188102D01*
X196355000Y-72388061D01*
X196355000Y-72450198D01*
X195201600Y-73603599D01*
X195201600Y-73552935D01*
X195183730Y-73371498D01*
X195113111Y-73138699D01*
X194998433Y-72924151D01*
X194844102Y-72736098D01*
X194656048Y-72581767D01*
X194441500Y-72467089D01*
X194208701Y-72396470D01*
X193966600Y-72372625D01*
X193724498Y-72396470D01*
X193491699Y-72467089D01*
X193277151Y-72581767D01*
X193089098Y-72736098D01*
X192966600Y-72885363D01*
X192844102Y-72736098D01*
X192656048Y-72581767D01*
X192441500Y-72467089D01*
X192208701Y-72396470D01*
X191966600Y-72372625D01*
X191724498Y-72396470D01*
X191491699Y-72467089D01*
X191277151Y-72581767D01*
X191123291Y-72708036D01*
X191097137Y-72659106D01*
X191017785Y-72562415D01*
X190921094Y-72483063D01*
X190810780Y-72424098D01*
X190691082Y-72387788D01*
X190566600Y-72375528D01*
X190252350Y-72378600D01*
X190093600Y-72537350D01*
X190093600Y-73761600D01*
X190113600Y-73761600D01*
X190113600Y-74015600D01*
X190093600Y-74015600D01*
X190093600Y-74035600D01*
X189839600Y-74035600D01*
X189839600Y-74015600D01*
X188890350Y-74015600D01*
X188731600Y-74174350D01*
X188728528Y-74763600D01*
X188729158Y-74770000D01*
X185764562Y-74770000D01*
X185597575Y-74603013D01*
X185573772Y-74574009D01*
X185458047Y-74479036D01*
X185326018Y-74408464D01*
X185182757Y-74365007D01*
X185071104Y-74354010D01*
X185071093Y-74354010D01*
X185033771Y-74350334D01*
X184996449Y-74354010D01*
X183475323Y-74354010D01*
X183485600Y-74249664D01*
X183485600Y-73578335D01*
X183467730Y-73396898D01*
X183397111Y-73164099D01*
X183282433Y-72949551D01*
X183128102Y-72761498D01*
X182940048Y-72607167D01*
X182725500Y-72492489D01*
X182492701Y-72421870D01*
X182250600Y-72398025D01*
X182008498Y-72421870D01*
X181775699Y-72492489D01*
X181561151Y-72607167D01*
X181373098Y-72761498D01*
X181250600Y-72910763D01*
X181128102Y-72761498D01*
X180940048Y-72607167D01*
X180725500Y-72492489D01*
X180492701Y-72421870D01*
X180250600Y-72398025D01*
X180008498Y-72421870D01*
X179775699Y-72492489D01*
X179561151Y-72607167D01*
X179373098Y-72761498D01*
X179250119Y-72911349D01*
X179206907Y-72847275D01*
X179034074Y-72675922D01*
X178831133Y-72541579D01*
X178605882Y-72449409D01*
X178568209Y-72445538D01*
X178377600Y-72570269D01*
X178377600Y-73787000D01*
X178397600Y-73787000D01*
X178397600Y-74041000D01*
X178377600Y-74041000D01*
X178377600Y-74061000D01*
X178123600Y-74061000D01*
X178123600Y-74041000D01*
X178103600Y-74041000D01*
X178103600Y-73787000D01*
X178123600Y-73787000D01*
X178123600Y-72570269D01*
X177932991Y-72445538D01*
X177895318Y-72449409D01*
X177670067Y-72541579D01*
X177467126Y-72675922D01*
X177341567Y-72800406D01*
X177339005Y-72795613D01*
X177228562Y-72661038D01*
X177093987Y-72550595D01*
X176940451Y-72468528D01*
X176773855Y-72417992D01*
X176600601Y-72400928D01*
X175900599Y-72400928D01*
X175727345Y-72417992D01*
X175560749Y-72468528D01*
X175407213Y-72550595D01*
X175272638Y-72661038D01*
X175162195Y-72795613D01*
X175080128Y-72949149D01*
X175029592Y-73115745D01*
X175012528Y-73288999D01*
X171220600Y-73288999D01*
X171220600Y-66514353D01*
X171210688Y-66413717D01*
X171171519Y-66284594D01*
X171107912Y-66165593D01*
X171022310Y-66061289D01*
X170918006Y-65975688D01*
X170799005Y-65912081D01*
X170669882Y-65872912D01*
X170652760Y-65871226D01*
X170652642Y-65722227D01*
X170773605Y-65685533D01*
X170892606Y-65621926D01*
X170996910Y-65536325D01*
X171082511Y-65432021D01*
X171146118Y-65313020D01*
X171185287Y-65183897D01*
X171195199Y-65083261D01*
X171195201Y-62018555D01*
X171185289Y-61917919D01*
X171146120Y-61788796D01*
X171082513Y-61669795D01*
X170996912Y-61565491D01*
X170892608Y-61479890D01*
X170773607Y-61416283D01*
X170649213Y-61378548D01*
X170649096Y-61230735D01*
X170669882Y-61228688D01*
X170799005Y-61189519D01*
X170918006Y-61125912D01*
X171022310Y-61040311D01*
X171107912Y-60936007D01*
X171149574Y-60858061D01*
X176511000Y-60858061D01*
X176511000Y-61061939D01*
X176550774Y-61261898D01*
X176628795Y-61450256D01*
X176742063Y-61619774D01*
X176786001Y-61663712D01*
X176786000Y-65621677D01*
X176782324Y-65659000D01*
X176786000Y-65696322D01*
X176786000Y-65696332D01*
X176796997Y-65807985D01*
X176822672Y-65892625D01*
X176840454Y-65951246D01*
X176911026Y-66083276D01*
X176948096Y-66128445D01*
X177005999Y-66199001D01*
X177035003Y-66222804D01*
X180575000Y-69762802D01*
X180575000Y-69824939D01*
X180614774Y-70024898D01*
X180692795Y-70213256D01*
X180806063Y-70382774D01*
X180950226Y-70526937D01*
X181119744Y-70640205D01*
X181308102Y-70718226D01*
X181508061Y-70758000D01*
X181711939Y-70758000D01*
X181911898Y-70718226D01*
X182100256Y-70640205D01*
X182269774Y-70526937D01*
X182313711Y-70483000D01*
X182578199Y-70483000D01*
X184655000Y-72559802D01*
X184655000Y-72621939D01*
X184694774Y-72821898D01*
X184772795Y-73010256D01*
X184886063Y-73179774D01*
X185030226Y-73323937D01*
X185199744Y-73437205D01*
X185388102Y-73515226D01*
X185588061Y-73555000D01*
X185791939Y-73555000D01*
X185991898Y-73515226D01*
X186180256Y-73437205D01*
X186349774Y-73323937D01*
X186493937Y-73179774D01*
X186604970Y-73013600D01*
X188728528Y-73013600D01*
X188731600Y-73602850D01*
X188890350Y-73761600D01*
X189839600Y-73761600D01*
X189839600Y-72537350D01*
X189680850Y-72378600D01*
X189366600Y-72375528D01*
X189242118Y-72387788D01*
X189122420Y-72424098D01*
X189012106Y-72483063D01*
X188915415Y-72562415D01*
X188836063Y-72659106D01*
X188777098Y-72769420D01*
X188740788Y-72889118D01*
X188728528Y-73013600D01*
X186604970Y-73013600D01*
X186607205Y-73010256D01*
X186685226Y-72821898D01*
X186725000Y-72621939D01*
X186725000Y-72418061D01*
X186685226Y-72218102D01*
X186607205Y-72029744D01*
X186493937Y-71860226D01*
X186349774Y-71716063D01*
X186180256Y-71602795D01*
X185991898Y-71524774D01*
X185791939Y-71485000D01*
X185729802Y-71485000D01*
X183561063Y-69316261D01*
X190862000Y-69316261D01*
X190862000Y-69520139D01*
X190901774Y-69720098D01*
X190979795Y-69908456D01*
X191093063Y-70077974D01*
X191237226Y-70222137D01*
X191406744Y-70335405D01*
X191595102Y-70413426D01*
X191795061Y-70453200D01*
X191998939Y-70453200D01*
X192198898Y-70413426D01*
X192387256Y-70335405D01*
X192556774Y-70222137D01*
X192700937Y-70077974D01*
X192814205Y-69908456D01*
X192892226Y-69720098D01*
X192932000Y-69520139D01*
X192932000Y-69458001D01*
X194091402Y-68298600D01*
X194393689Y-68298600D01*
X194437626Y-68342537D01*
X194607144Y-68455805D01*
X194795502Y-68533826D01*
X194995461Y-68573600D01*
X195199339Y-68573600D01*
X195399298Y-68533826D01*
X195587656Y-68455805D01*
X195757174Y-68342537D01*
X195901337Y-68198374D01*
X196014605Y-68028856D01*
X196092626Y-67840498D01*
X196132400Y-67640539D01*
X196132400Y-67436661D01*
X196092626Y-67236702D01*
X196014605Y-67048344D01*
X195901337Y-66878826D01*
X195757174Y-66734663D01*
X195587656Y-66621395D01*
X195399298Y-66543374D01*
X195199339Y-66503600D01*
X194995461Y-66503600D01*
X194795502Y-66543374D01*
X194607144Y-66621395D01*
X194437626Y-66734663D01*
X194393689Y-66778600D01*
X193813923Y-66778600D01*
X193776600Y-66774924D01*
X193739277Y-66778600D01*
X193739267Y-66778600D01*
X193627614Y-66789597D01*
X193484353Y-66833054D01*
X193352324Y-66903626D01*
X193236599Y-66998599D01*
X193212801Y-67027597D01*
X191857199Y-68383200D01*
X191795061Y-68383200D01*
X191595102Y-68422974D01*
X191406744Y-68500995D01*
X191237226Y-68614263D01*
X191093063Y-68758426D01*
X190979795Y-68927944D01*
X190901774Y-69116302D01*
X190862000Y-69316261D01*
X183561063Y-69316261D01*
X183456804Y-69212003D01*
X183433001Y-69182999D01*
X183317276Y-69088026D01*
X183185247Y-69017454D01*
X183041986Y-68973997D01*
X182930333Y-68963000D01*
X182930322Y-68963000D01*
X182893000Y-68959324D01*
X182855678Y-68963000D01*
X182313711Y-68963000D01*
X182269774Y-68919063D01*
X182100256Y-68805795D01*
X181911898Y-68727774D01*
X181711939Y-68688000D01*
X181649802Y-68688000D01*
X178306000Y-65344199D01*
X178306000Y-61663711D01*
X178349937Y-61619774D01*
X178463205Y-61450256D01*
X178541226Y-61261898D01*
X178581000Y-61061939D01*
X178581000Y-60858061D01*
X178541226Y-60658102D01*
X178463205Y-60469744D01*
X178349937Y-60300226D01*
X178205774Y-60156063D01*
X178036256Y-60042795D01*
X177847898Y-59964774D01*
X177647939Y-59925000D01*
X177444061Y-59925000D01*
X177244102Y-59964774D01*
X177055744Y-60042795D01*
X176886226Y-60156063D01*
X176742063Y-60300226D01*
X176628795Y-60469744D01*
X176550774Y-60658102D01*
X176511000Y-60858061D01*
X171149574Y-60858061D01*
X171171519Y-60817006D01*
X171210688Y-60687883D01*
X171220600Y-60587247D01*
X171220600Y-54405500D01*
X179228928Y-54405500D01*
X179241188Y-54529982D01*
X179277498Y-54649680D01*
X179336463Y-54759994D01*
X179415815Y-54856685D01*
X179512506Y-54936037D01*
X179622820Y-54995002D01*
X179742518Y-55031312D01*
X179867000Y-55043572D01*
X180181250Y-55040500D01*
X180340000Y-54881750D01*
X180340000Y-53657500D01*
X179390750Y-53657500D01*
X179232000Y-53816250D01*
X179228928Y-54405500D01*
X171220600Y-54405500D01*
X171220600Y-52655500D01*
X179228928Y-52655500D01*
X179232000Y-53244750D01*
X179390750Y-53403500D01*
X180340000Y-53403500D01*
X180340000Y-52179250D01*
X180594000Y-52179250D01*
X180594000Y-53403500D01*
X180614000Y-53403500D01*
X180614000Y-53657500D01*
X180594000Y-53657500D01*
X180594000Y-54881750D01*
X180752750Y-55040500D01*
X181067000Y-55043572D01*
X181191482Y-55031312D01*
X181311180Y-54995002D01*
X181421494Y-54936037D01*
X181518185Y-54856685D01*
X181597537Y-54759994D01*
X181623692Y-54711063D01*
X181777552Y-54837333D01*
X181992100Y-54952011D01*
X182224899Y-55022630D01*
X182467000Y-55046475D01*
X182709102Y-55022630D01*
X182941901Y-54952011D01*
X183156449Y-54837333D01*
X183344502Y-54683002D01*
X183467001Y-54533737D01*
X183589499Y-54683002D01*
X183777552Y-54837333D01*
X183992100Y-54952011D01*
X184224899Y-55022630D01*
X184467000Y-55046475D01*
X184709102Y-55022630D01*
X184941901Y-54952011D01*
X185156449Y-54837333D01*
X185344502Y-54683002D01*
X185498833Y-54494949D01*
X185613511Y-54280400D01*
X185684130Y-54047601D01*
X185702000Y-53866164D01*
X185702000Y-53194835D01*
X185684130Y-53013398D01*
X185651400Y-52905499D01*
X189071428Y-52905499D01*
X189071428Y-54155501D01*
X189088492Y-54328755D01*
X189139028Y-54495351D01*
X189221095Y-54648887D01*
X189331538Y-54783462D01*
X189466113Y-54893905D01*
X189619649Y-54975972D01*
X189786245Y-55026508D01*
X189959499Y-55043572D01*
X190659501Y-55043572D01*
X190832755Y-55026508D01*
X190999351Y-54975972D01*
X191152887Y-54893905D01*
X191287462Y-54783462D01*
X191397905Y-54648887D01*
X191400310Y-54644388D01*
X191431999Y-54683002D01*
X191620052Y-54837333D01*
X191834600Y-54952011D01*
X192067399Y-55022630D01*
X192309500Y-55046475D01*
X192551602Y-55022630D01*
X192784401Y-54952011D01*
X192998949Y-54837333D01*
X193187002Y-54683002D01*
X193341333Y-54494949D01*
X193456011Y-54280400D01*
X193526630Y-54047601D01*
X193544500Y-53866164D01*
X193544500Y-53194835D01*
X193526630Y-53013398D01*
X193456011Y-52780599D01*
X193341333Y-52566051D01*
X193187002Y-52377998D01*
X192998948Y-52223667D01*
X192784400Y-52108989D01*
X192551601Y-52038370D01*
X192309500Y-52014525D01*
X192067398Y-52038370D01*
X191834599Y-52108989D01*
X191620051Y-52223667D01*
X191431998Y-52377998D01*
X191400309Y-52416611D01*
X191397905Y-52412113D01*
X191287462Y-52277538D01*
X191152887Y-52167095D01*
X190999351Y-52085028D01*
X190832755Y-52034492D01*
X190659501Y-52017428D01*
X189959499Y-52017428D01*
X189786245Y-52034492D01*
X189619649Y-52085028D01*
X189466113Y-52167095D01*
X189331538Y-52277538D01*
X189221095Y-52412113D01*
X189139028Y-52565649D01*
X189088492Y-52732245D01*
X189071428Y-52905499D01*
X185651400Y-52905499D01*
X185613511Y-52780599D01*
X185498833Y-52566051D01*
X185344502Y-52377998D01*
X185156448Y-52223667D01*
X184941900Y-52108989D01*
X184709101Y-52038370D01*
X184467000Y-52014525D01*
X184224898Y-52038370D01*
X183992099Y-52108989D01*
X183777551Y-52223667D01*
X183589498Y-52377998D01*
X183467000Y-52527263D01*
X183344502Y-52377998D01*
X183156448Y-52223667D01*
X182941900Y-52108989D01*
X182709101Y-52038370D01*
X182467000Y-52014525D01*
X182224898Y-52038370D01*
X181992099Y-52108989D01*
X181777551Y-52223667D01*
X181623691Y-52349936D01*
X181597537Y-52301006D01*
X181518185Y-52204315D01*
X181421494Y-52124963D01*
X181311180Y-52065998D01*
X181191482Y-52029688D01*
X181067000Y-52017428D01*
X180752750Y-52020500D01*
X180594000Y-52179250D01*
X180340000Y-52179250D01*
X180181250Y-52020500D01*
X179867000Y-52017428D01*
X179742518Y-52029688D01*
X179622820Y-52065998D01*
X179512506Y-52124963D01*
X179415815Y-52204315D01*
X179336463Y-52301006D01*
X179277498Y-52411320D01*
X179241188Y-52531018D01*
X179228928Y-52655500D01*
X171220600Y-52655500D01*
X171220600Y-48750765D01*
X171422511Y-48693858D01*
X171480338Y-48671266D01*
X171538476Y-48649482D01*
X171547033Y-48645209D01*
X171893972Y-48468892D01*
X171946290Y-48435510D01*
X171999111Y-48402836D01*
X172006674Y-48396983D01*
X172312761Y-48156635D01*
X172357612Y-48113714D01*
X172403065Y-48071418D01*
X172409348Y-48064206D01*
X172662921Y-47768984D01*
X172698575Y-47718178D01*
X172734956Y-47667846D01*
X172739718Y-47659552D01*
X172931119Y-47320700D01*
X172956222Y-47263944D01*
X172982136Y-47207500D01*
X172985196Y-47198438D01*
X173079375Y-46913000D01*
X177975928Y-46913000D01*
X177975928Y-49364900D01*
G37*
%TD.AperFunction*%
%TD*%
M02*
