%TF.GenerationSoftware,KiCad,Pcbnew,(5.1.9-0-10_14)*%
%TF.CreationDate,2021-05-07T17:02:22+01:00*%
%TF.ProjectId,EMGSensor3.1,454d4753-656e-4736-9f72-332e312e6b69,rev?*%
%TF.SameCoordinates,Original*%
%TF.FileFunction,Copper,L1,Top*%
%TF.FilePolarity,Positive*%
%FSLAX46Y46*%
G04 Gerber Fmt 4.6, Leading zero omitted, Abs format (unit mm)*
G04 Created by KiCad (PCBNEW (5.1.9-0-10_14)) date 2021-05-07 17:02:22*
%MOMM*%
%LPD*%
G01*
G04 APERTURE LIST*
%TA.AperFunction,SMDPad,CuDef*%
%ADD10R,1.168400X0.457200*%
%TD*%
%TA.AperFunction,SMDPad,CuDef*%
%ADD11R,1.300000X2.000000*%
%TD*%
%TA.AperFunction,SMDPad,CuDef*%
%ADD12R,2.000000X2.000000*%
%TD*%
%TA.AperFunction,ComponentPad*%
%ADD13O,1.200000X1.750000*%
%TD*%
%TA.AperFunction,ComponentPad*%
%ADD14C,0.100000*%
%TD*%
%TA.AperFunction,SMDPad,CuDef*%
%ADD15R,1.981200X0.558800*%
%TD*%
%TA.AperFunction,ViaPad*%
%ADD16C,1.700000*%
%TD*%
%TA.AperFunction,ViaPad*%
%ADD17C,0.800000*%
%TD*%
%TA.AperFunction,Conductor*%
%ADD18C,0.250000*%
%TD*%
%TA.AperFunction,Conductor*%
%ADD19C,0.254000*%
%TD*%
%TA.AperFunction,Conductor*%
%ADD20C,0.100000*%
%TD*%
G04 APERTURE END LIST*
D10*
%TO.P,D2,1*%
%TO.N,GND*%
X199148700Y-68315599D03*
%TO.P,D2,2*%
%TO.N,+3V3*%
X199148700Y-67015601D03*
%TO.P,D2,3*%
%TO.N,Out-B*%
X197396100Y-67665600D03*
%TD*%
%TO.P,R9,2*%
%TO.N,Out-A*%
%TA.AperFunction,SMDPad,CuDef*%
G36*
G01*
X174782700Y-70497200D02*
X175127700Y-70497200D01*
G75*
G02*
X175275200Y-70644700I0J-147500D01*
G01*
X175275200Y-70939700D01*
G75*
G02*
X175127700Y-71087200I-147500J0D01*
G01*
X174782700Y-71087200D01*
G75*
G02*
X174635200Y-70939700I0J147500D01*
G01*
X174635200Y-70644700D01*
G75*
G02*
X174782700Y-70497200I147500J0D01*
G01*
G37*
%TD.AperFunction*%
%TO.P,R9,1*%
%TO.N,Net-(C2-Pad1)*%
%TA.AperFunction,SMDPad,CuDef*%
G36*
G01*
X174782700Y-69527200D02*
X175127700Y-69527200D01*
G75*
G02*
X175275200Y-69674700I0J-147500D01*
G01*
X175275200Y-69969700D01*
G75*
G02*
X175127700Y-70117200I-147500J0D01*
G01*
X174782700Y-70117200D01*
G75*
G02*
X174635200Y-69969700I0J147500D01*
G01*
X174635200Y-69674700D01*
G75*
G02*
X174782700Y-69527200I147500J0D01*
G01*
G37*
%TD.AperFunction*%
%TD*%
D11*
%TO.P,RV22,1*%
%TO.N,Out-B*%
X199651000Y-59849000D03*
D12*
%TO.P,RV22,2*%
%TO.N,GND*%
X198501000Y-63849000D03*
D11*
%TO.P,RV22,3*%
X197351000Y-59849000D03*
%TD*%
%TO.P,C5,1*%
%TO.N,Net-(C5-Pad1)*%
%TA.AperFunction,SMDPad,CuDef*%
G36*
G01*
X194660000Y-65317500D02*
X194660000Y-65662500D01*
G75*
G02*
X194512500Y-65810000I-147500J0D01*
G01*
X194217500Y-65810000D01*
G75*
G02*
X194070000Y-65662500I0J147500D01*
G01*
X194070000Y-65317500D01*
G75*
G02*
X194217500Y-65170000I147500J0D01*
G01*
X194512500Y-65170000D01*
G75*
G02*
X194660000Y-65317500I0J-147500D01*
G01*
G37*
%TD.AperFunction*%
%TO.P,C5,2*%
%TO.N,Net-(C5-Pad2)*%
%TA.AperFunction,SMDPad,CuDef*%
G36*
G01*
X193690000Y-65317500D02*
X193690000Y-65662500D01*
G75*
G02*
X193542500Y-65810000I-147500J0D01*
G01*
X193247500Y-65810000D01*
G75*
G02*
X193100000Y-65662500I0J147500D01*
G01*
X193100000Y-65317500D01*
G75*
G02*
X193247500Y-65170000I147500J0D01*
G01*
X193542500Y-65170000D01*
G75*
G02*
X193690000Y-65317500I0J-147500D01*
G01*
G37*
%TD.AperFunction*%
%TD*%
%TO.P,C8,2*%
%TO.N,-5V*%
%TA.AperFunction,SMDPad,CuDef*%
G36*
G01*
X185995000Y-73747500D02*
X185995000Y-74092500D01*
G75*
G02*
X185847500Y-74240000I-147500J0D01*
G01*
X185552500Y-74240000D01*
G75*
G02*
X185405000Y-74092500I0J147500D01*
G01*
X185405000Y-73747500D01*
G75*
G02*
X185552500Y-73600000I147500J0D01*
G01*
X185847500Y-73600000D01*
G75*
G02*
X185995000Y-73747500I0J-147500D01*
G01*
G37*
%TD.AperFunction*%
%TO.P,C8,1*%
%TO.N,GND*%
%TA.AperFunction,SMDPad,CuDef*%
G36*
G01*
X186965000Y-73747500D02*
X186965000Y-74092500D01*
G75*
G02*
X186817500Y-74240000I-147500J0D01*
G01*
X186522500Y-74240000D01*
G75*
G02*
X186375000Y-74092500I0J147500D01*
G01*
X186375000Y-73747500D01*
G75*
G02*
X186522500Y-73600000I147500J0D01*
G01*
X186817500Y-73600000D01*
G75*
G02*
X186965000Y-73747500I0J-147500D01*
G01*
G37*
%TD.AperFunction*%
%TD*%
%TO.P,J1,1*%
%TO.N,GND*%
%TA.AperFunction,ComponentPad*%
G36*
G01*
X179867000Y-54155501D02*
X179867000Y-52905499D01*
G75*
G02*
X180116999Y-52655500I249999J0D01*
G01*
X180817001Y-52655500D01*
G75*
G02*
X181067000Y-52905499I0J-249999D01*
G01*
X181067000Y-54155501D01*
G75*
G02*
X180817001Y-54405500I-249999J0D01*
G01*
X180116999Y-54405500D01*
G75*
G02*
X179867000Y-54155501I0J249999D01*
G01*
G37*
%TD.AperFunction*%
D13*
%TO.P,J1,2*%
%TO.N,/End-Muscle-A*%
X182467000Y-53530500D03*
%TO.P,J1,3*%
%TO.N,/Mid-Muscle-A*%
X184467000Y-53530500D03*
%TD*%
%TO.P,J2,2*%
%TO.N,/End-Muscle-B*%
X192309500Y-53530500D03*
%TO.P,J2,1*%
%TO.N,/Mid-Muscle-B*%
%TA.AperFunction,ComponentPad*%
G36*
G01*
X189709500Y-54155501D02*
X189709500Y-52905499D01*
G75*
G02*
X189959499Y-52655500I249999J0D01*
G01*
X190659501Y-52655500D01*
G75*
G02*
X190909500Y-52905499I0J-249999D01*
G01*
X190909500Y-54155501D01*
G75*
G02*
X190659501Y-54405500I-249999J0D01*
G01*
X189959499Y-54405500D01*
G75*
G02*
X189709500Y-54155501I0J249999D01*
G01*
G37*
%TD.AperFunction*%
%TD*%
%TO.P,R1,1*%
%TO.N,Net-(R1-Pad1)*%
%TA.AperFunction,SMDPad,CuDef*%
G36*
G01*
X178163000Y-57957500D02*
X178163000Y-57612500D01*
G75*
G02*
X178310500Y-57465000I147500J0D01*
G01*
X178605500Y-57465000D01*
G75*
G02*
X178753000Y-57612500I0J-147500D01*
G01*
X178753000Y-57957500D01*
G75*
G02*
X178605500Y-58105000I-147500J0D01*
G01*
X178310500Y-58105000D01*
G75*
G02*
X178163000Y-57957500I0J147500D01*
G01*
G37*
%TD.AperFunction*%
%TO.P,R1,2*%
%TO.N,/End-Muscle-A*%
%TA.AperFunction,SMDPad,CuDef*%
G36*
G01*
X179133000Y-57957500D02*
X179133000Y-57612500D01*
G75*
G02*
X179280500Y-57465000I147500J0D01*
G01*
X179575500Y-57465000D01*
G75*
G02*
X179723000Y-57612500I0J-147500D01*
G01*
X179723000Y-57957500D01*
G75*
G02*
X179575500Y-58105000I-147500J0D01*
G01*
X179280500Y-58105000D01*
G75*
G02*
X179133000Y-57957500I0J147500D01*
G01*
G37*
%TD.AperFunction*%
%TD*%
%TO.P,R2,1*%
%TO.N,Net-(R2-Pad1)*%
%TA.AperFunction,SMDPad,CuDef*%
G36*
G01*
X180322000Y-57957500D02*
X180322000Y-57612500D01*
G75*
G02*
X180469500Y-57465000I147500J0D01*
G01*
X180764500Y-57465000D01*
G75*
G02*
X180912000Y-57612500I0J-147500D01*
G01*
X180912000Y-57957500D01*
G75*
G02*
X180764500Y-58105000I-147500J0D01*
G01*
X180469500Y-58105000D01*
G75*
G02*
X180322000Y-57957500I0J147500D01*
G01*
G37*
%TD.AperFunction*%
%TO.P,R2,2*%
%TO.N,/Mid-Muscle-A*%
%TA.AperFunction,SMDPad,CuDef*%
G36*
G01*
X181292000Y-57957500D02*
X181292000Y-57612500D01*
G75*
G02*
X181439500Y-57465000I147500J0D01*
G01*
X181734500Y-57465000D01*
G75*
G02*
X181882000Y-57612500I0J-147500D01*
G01*
X181882000Y-57957500D01*
G75*
G02*
X181734500Y-58105000I-147500J0D01*
G01*
X181439500Y-58105000D01*
G75*
G02*
X181292000Y-57957500I0J147500D01*
G01*
G37*
%TD.AperFunction*%
%TD*%
%TO.P,R3,1*%
%TO.N,Net-(R1-Pad1)*%
%TA.AperFunction,SMDPad,CuDef*%
G36*
G01*
X181968500Y-60406500D02*
X181968500Y-60751500D01*
G75*
G02*
X181821000Y-60899000I-147500J0D01*
G01*
X181526000Y-60899000D01*
G75*
G02*
X181378500Y-60751500I0J147500D01*
G01*
X181378500Y-60406500D01*
G75*
G02*
X181526000Y-60259000I147500J0D01*
G01*
X181821000Y-60259000D01*
G75*
G02*
X181968500Y-60406500I0J-147500D01*
G01*
G37*
%TD.AperFunction*%
%TO.P,R3,2*%
%TO.N,Net-(R3-Pad2)*%
%TA.AperFunction,SMDPad,CuDef*%
G36*
G01*
X180998500Y-60406500D02*
X180998500Y-60751500D01*
G75*
G02*
X180851000Y-60899000I-147500J0D01*
G01*
X180556000Y-60899000D01*
G75*
G02*
X180408500Y-60751500I0J147500D01*
G01*
X180408500Y-60406500D01*
G75*
G02*
X180556000Y-60259000I147500J0D01*
G01*
X180851000Y-60259000D01*
G75*
G02*
X180998500Y-60406500I0J-147500D01*
G01*
G37*
%TD.AperFunction*%
%TD*%
%TO.P,R6,1*%
%TO.N,Net-(R6-Pad1)*%
%TA.AperFunction,SMDPad,CuDef*%
G36*
G01*
X179723000Y-64470500D02*
X179723000Y-64815500D01*
G75*
G02*
X179575500Y-64963000I-147500J0D01*
G01*
X179280500Y-64963000D01*
G75*
G02*
X179133000Y-64815500I0J147500D01*
G01*
X179133000Y-64470500D01*
G75*
G02*
X179280500Y-64323000I147500J0D01*
G01*
X179575500Y-64323000D01*
G75*
G02*
X179723000Y-64470500I0J-147500D01*
G01*
G37*
%TD.AperFunction*%
%TO.P,R6,2*%
%TO.N,Net-(R4-Pad1)*%
%TA.AperFunction,SMDPad,CuDef*%
G36*
G01*
X178753000Y-64470500D02*
X178753000Y-64815500D01*
G75*
G02*
X178605500Y-64963000I-147500J0D01*
G01*
X178310500Y-64963000D01*
G75*
G02*
X178163000Y-64815500I0J147500D01*
G01*
X178163000Y-64470500D01*
G75*
G02*
X178310500Y-64323000I147500J0D01*
G01*
X178605500Y-64323000D01*
G75*
G02*
X178753000Y-64470500I0J-147500D01*
G01*
G37*
%TD.AperFunction*%
%TD*%
%TO.P,R7,2*%
%TO.N,Net-(R6-Pad1)*%
%TA.AperFunction,SMDPad,CuDef*%
G36*
G01*
X181378500Y-65577500D02*
X181378500Y-65232500D01*
G75*
G02*
X181526000Y-65085000I147500J0D01*
G01*
X181821000Y-65085000D01*
G75*
G02*
X181968500Y-65232500I0J-147500D01*
G01*
X181968500Y-65577500D01*
G75*
G02*
X181821000Y-65725000I-147500J0D01*
G01*
X181526000Y-65725000D01*
G75*
G02*
X181378500Y-65577500I0J147500D01*
G01*
G37*
%TD.AperFunction*%
%TO.P,R7,1*%
%TO.N,Net-(C1-Pad1)*%
%TA.AperFunction,SMDPad,CuDef*%
G36*
G01*
X180408500Y-65577500D02*
X180408500Y-65232500D01*
G75*
G02*
X180556000Y-65085000I147500J0D01*
G01*
X180851000Y-65085000D01*
G75*
G02*
X180998500Y-65232500I0J-147500D01*
G01*
X180998500Y-65577500D01*
G75*
G02*
X180851000Y-65725000I-147500J0D01*
G01*
X180556000Y-65725000D01*
G75*
G02*
X180408500Y-65577500I0J147500D01*
G01*
G37*
%TD.AperFunction*%
%TD*%
%TO.P,R8,1*%
%TO.N,Net-(C1-Pad1)*%
%TA.AperFunction,SMDPad,CuDef*%
G36*
G01*
X179507100Y-68231800D02*
X179852100Y-68231800D01*
G75*
G02*
X179999600Y-68379300I0J-147500D01*
G01*
X179999600Y-68674300D01*
G75*
G02*
X179852100Y-68821800I-147500J0D01*
G01*
X179507100Y-68821800D01*
G75*
G02*
X179359600Y-68674300I0J147500D01*
G01*
X179359600Y-68379300D01*
G75*
G02*
X179507100Y-68231800I147500J0D01*
G01*
G37*
%TD.AperFunction*%
%TO.P,R8,2*%
%TO.N,Net-(C1-Pad2)*%
%TA.AperFunction,SMDPad,CuDef*%
G36*
G01*
X179507100Y-69201800D02*
X179852100Y-69201800D01*
G75*
G02*
X179999600Y-69349300I0J-147500D01*
G01*
X179999600Y-69644300D01*
G75*
G02*
X179852100Y-69791800I-147500J0D01*
G01*
X179507100Y-69791800D01*
G75*
G02*
X179359600Y-69644300I0J147500D01*
G01*
X179359600Y-69349300D01*
G75*
G02*
X179507100Y-69201800I147500J0D01*
G01*
G37*
%TD.AperFunction*%
%TD*%
%TO.P,R10,2*%
%TO.N,Out-A*%
%TA.AperFunction,SMDPad,CuDef*%
G36*
G01*
X173324300Y-70119600D02*
X172979300Y-70119600D01*
G75*
G02*
X172831800Y-69972100I0J147500D01*
G01*
X172831800Y-69677100D01*
G75*
G02*
X172979300Y-69529600I147500J0D01*
G01*
X173324300Y-69529600D01*
G75*
G02*
X173471800Y-69677100I0J-147500D01*
G01*
X173471800Y-69972100D01*
G75*
G02*
X173324300Y-70119600I-147500J0D01*
G01*
G37*
%TD.AperFunction*%
%TO.P,R10,1*%
%TO.N,+3V3*%
%TA.AperFunction,SMDPad,CuDef*%
G36*
G01*
X173324300Y-71089600D02*
X172979300Y-71089600D01*
G75*
G02*
X172831800Y-70942100I0J147500D01*
G01*
X172831800Y-70647100D01*
G75*
G02*
X172979300Y-70499600I147500J0D01*
G01*
X173324300Y-70499600D01*
G75*
G02*
X173471800Y-70647100I0J-147500D01*
G01*
X173471800Y-70942100D01*
G75*
G02*
X173324300Y-71089600I-147500J0D01*
G01*
G37*
%TD.AperFunction*%
%TD*%
%TO.P,R12,2*%
%TO.N,/End-Muscle-B*%
%TA.AperFunction,SMDPad,CuDef*%
G36*
G01*
X195498500Y-60897000D02*
X195153500Y-60897000D01*
G75*
G02*
X195006000Y-60749500I0J147500D01*
G01*
X195006000Y-60454500D01*
G75*
G02*
X195153500Y-60307000I147500J0D01*
G01*
X195498500Y-60307000D01*
G75*
G02*
X195646000Y-60454500I0J-147500D01*
G01*
X195646000Y-60749500D01*
G75*
G02*
X195498500Y-60897000I-147500J0D01*
G01*
G37*
%TD.AperFunction*%
%TO.P,R12,1*%
%TO.N,Net-(R12-Pad1)*%
%TA.AperFunction,SMDPad,CuDef*%
G36*
G01*
X195498500Y-61867000D02*
X195153500Y-61867000D01*
G75*
G02*
X195006000Y-61719500I0J147500D01*
G01*
X195006000Y-61424500D01*
G75*
G02*
X195153500Y-61277000I147500J0D01*
G01*
X195498500Y-61277000D01*
G75*
G02*
X195646000Y-61424500I0J-147500D01*
G01*
X195646000Y-61719500D01*
G75*
G02*
X195498500Y-61867000I-147500J0D01*
G01*
G37*
%TD.AperFunction*%
%TD*%
%TO.P,R13,1*%
%TO.N,Net-(R13-Pad1)*%
%TA.AperFunction,SMDPad,CuDef*%
G36*
G01*
X193339500Y-61867000D02*
X192994500Y-61867000D01*
G75*
G02*
X192847000Y-61719500I0J147500D01*
G01*
X192847000Y-61424500D01*
G75*
G02*
X192994500Y-61277000I147500J0D01*
G01*
X193339500Y-61277000D01*
G75*
G02*
X193487000Y-61424500I0J-147500D01*
G01*
X193487000Y-61719500D01*
G75*
G02*
X193339500Y-61867000I-147500J0D01*
G01*
G37*
%TD.AperFunction*%
%TO.P,R13,2*%
%TO.N,/Mid-Muscle-B*%
%TA.AperFunction,SMDPad,CuDef*%
G36*
G01*
X193339500Y-60897000D02*
X192994500Y-60897000D01*
G75*
G02*
X192847000Y-60749500I0J147500D01*
G01*
X192847000Y-60454500D01*
G75*
G02*
X192994500Y-60307000I147500J0D01*
G01*
X193339500Y-60307000D01*
G75*
G02*
X193487000Y-60454500I0J-147500D01*
G01*
X193487000Y-60749500D01*
G75*
G02*
X193339500Y-60897000I-147500J0D01*
G01*
G37*
%TD.AperFunction*%
%TD*%
%TO.P,R14,1*%
%TO.N,Net-(R12-Pad1)*%
%TA.AperFunction,SMDPad,CuDef*%
G36*
G01*
X194188300Y-62618400D02*
X194533300Y-62618400D01*
G75*
G02*
X194680800Y-62765900I0J-147500D01*
G01*
X194680800Y-63060900D01*
G75*
G02*
X194533300Y-63208400I-147500J0D01*
G01*
X194188300Y-63208400D01*
G75*
G02*
X194040800Y-63060900I0J147500D01*
G01*
X194040800Y-62765900D01*
G75*
G02*
X194188300Y-62618400I147500J0D01*
G01*
G37*
%TD.AperFunction*%
%TO.P,R14,2*%
%TO.N,Net-(R14-Pad2)*%
%TA.AperFunction,SMDPad,CuDef*%
G36*
G01*
X194188300Y-63588400D02*
X194533300Y-63588400D01*
G75*
G02*
X194680800Y-63735900I0J-147500D01*
G01*
X194680800Y-64030900D01*
G75*
G02*
X194533300Y-64178400I-147500J0D01*
G01*
X194188300Y-64178400D01*
G75*
G02*
X194040800Y-64030900I0J147500D01*
G01*
X194040800Y-63735900D01*
G75*
G02*
X194188300Y-63588400I147500J0D01*
G01*
G37*
%TD.AperFunction*%
%TD*%
%TO.P,R15,1*%
%TO.N,Net-(R15-Pad1)*%
%TA.AperFunction,SMDPad,CuDef*%
G36*
G01*
X190835500Y-60307000D02*
X191180500Y-60307000D01*
G75*
G02*
X191328000Y-60454500I0J-147500D01*
G01*
X191328000Y-60749500D01*
G75*
G02*
X191180500Y-60897000I-147500J0D01*
G01*
X190835500Y-60897000D01*
G75*
G02*
X190688000Y-60749500I0J147500D01*
G01*
X190688000Y-60454500D01*
G75*
G02*
X190835500Y-60307000I147500J0D01*
G01*
G37*
%TD.AperFunction*%
%TO.P,R15,2*%
%TO.N,Net-(R13-Pad1)*%
%TA.AperFunction,SMDPad,CuDef*%
G36*
G01*
X190835500Y-61277000D02*
X191180500Y-61277000D01*
G75*
G02*
X191328000Y-61424500I0J-147500D01*
G01*
X191328000Y-61719500D01*
G75*
G02*
X191180500Y-61867000I-147500J0D01*
G01*
X190835500Y-61867000D01*
G75*
G02*
X190688000Y-61719500I0J147500D01*
G01*
X190688000Y-61424500D01*
G75*
G02*
X190835500Y-61277000I147500J0D01*
G01*
G37*
%TD.AperFunction*%
%TD*%
%TO.P,R17,2*%
%TO.N,Net-(R15-Pad1)*%
%TA.AperFunction,SMDPad,CuDef*%
G36*
G01*
X194391500Y-58483000D02*
X194736500Y-58483000D01*
G75*
G02*
X194884000Y-58630500I0J-147500D01*
G01*
X194884000Y-58925500D01*
G75*
G02*
X194736500Y-59073000I-147500J0D01*
G01*
X194391500Y-59073000D01*
G75*
G02*
X194244000Y-58925500I0J147500D01*
G01*
X194244000Y-58630500D01*
G75*
G02*
X194391500Y-58483000I147500J0D01*
G01*
G37*
%TD.AperFunction*%
%TO.P,R17,1*%
%TO.N,Net-(R17-Pad1)*%
%TA.AperFunction,SMDPad,CuDef*%
G36*
G01*
X194391500Y-57513000D02*
X194736500Y-57513000D01*
G75*
G02*
X194884000Y-57660500I0J-147500D01*
G01*
X194884000Y-57955500D01*
G75*
G02*
X194736500Y-58103000I-147500J0D01*
G01*
X194391500Y-58103000D01*
G75*
G02*
X194244000Y-57955500I0J147500D01*
G01*
X194244000Y-57660500D01*
G75*
G02*
X194391500Y-57513000I147500J0D01*
G01*
G37*
%TD.AperFunction*%
%TD*%
%TO.P,R18,2*%
%TO.N,Net-(R17-Pad1)*%
%TA.AperFunction,SMDPad,CuDef*%
G36*
G01*
X191180500Y-63945000D02*
X190835500Y-63945000D01*
G75*
G02*
X190688000Y-63797500I0J147500D01*
G01*
X190688000Y-63502500D01*
G75*
G02*
X190835500Y-63355000I147500J0D01*
G01*
X191180500Y-63355000D01*
G75*
G02*
X191328000Y-63502500I0J-147500D01*
G01*
X191328000Y-63797500D01*
G75*
G02*
X191180500Y-63945000I-147500J0D01*
G01*
G37*
%TD.AperFunction*%
%TO.P,R18,1*%
%TO.N,Net-(C5-Pad1)*%
%TA.AperFunction,SMDPad,CuDef*%
G36*
G01*
X191180500Y-64915000D02*
X190835500Y-64915000D01*
G75*
G02*
X190688000Y-64767500I0J147500D01*
G01*
X190688000Y-64472500D01*
G75*
G02*
X190835500Y-64325000I147500J0D01*
G01*
X191180500Y-64325000D01*
G75*
G02*
X191328000Y-64472500I0J-147500D01*
G01*
X191328000Y-64767500D01*
G75*
G02*
X191180500Y-64915000I-147500J0D01*
G01*
G37*
%TD.AperFunction*%
%TD*%
%TO.P,R19,2*%
%TO.N,Net-(C5-Pad2)*%
%TA.AperFunction,SMDPad,CuDef*%
G36*
G01*
X193629500Y-67700000D02*
X193974500Y-67700000D01*
G75*
G02*
X194122000Y-67847500I0J-147500D01*
G01*
X194122000Y-68142500D01*
G75*
G02*
X193974500Y-68290000I-147500J0D01*
G01*
X193629500Y-68290000D01*
G75*
G02*
X193482000Y-68142500I0J147500D01*
G01*
X193482000Y-67847500D01*
G75*
G02*
X193629500Y-67700000I147500J0D01*
G01*
G37*
%TD.AperFunction*%
%TO.P,R19,1*%
%TO.N,Net-(C5-Pad1)*%
%TA.AperFunction,SMDPad,CuDef*%
G36*
G01*
X193629500Y-66730000D02*
X193974500Y-66730000D01*
G75*
G02*
X194122000Y-66877500I0J-147500D01*
G01*
X194122000Y-67172500D01*
G75*
G02*
X193974500Y-67320000I-147500J0D01*
G01*
X193629500Y-67320000D01*
G75*
G02*
X193482000Y-67172500I0J147500D01*
G01*
X193482000Y-66877500D01*
G75*
G02*
X193629500Y-66730000I147500J0D01*
G01*
G37*
%TD.AperFunction*%
%TD*%
%TO.P,R20,2*%
%TO.N,Out-B*%
%TA.AperFunction,SMDPad,CuDef*%
G36*
G01*
X193217500Y-70160000D02*
X193562500Y-70160000D01*
G75*
G02*
X193710000Y-70307500I0J-147500D01*
G01*
X193710000Y-70602500D01*
G75*
G02*
X193562500Y-70750000I-147500J0D01*
G01*
X193217500Y-70750000D01*
G75*
G02*
X193070000Y-70602500I0J147500D01*
G01*
X193070000Y-70307500D01*
G75*
G02*
X193217500Y-70160000I147500J0D01*
G01*
G37*
%TD.AperFunction*%
%TO.P,R20,1*%
%TO.N,Net-(C6-Pad1)*%
%TA.AperFunction,SMDPad,CuDef*%
G36*
G01*
X193217500Y-69190000D02*
X193562500Y-69190000D01*
G75*
G02*
X193710000Y-69337500I0J-147500D01*
G01*
X193710000Y-69632500D01*
G75*
G02*
X193562500Y-69780000I-147500J0D01*
G01*
X193217500Y-69780000D01*
G75*
G02*
X193070000Y-69632500I0J147500D01*
G01*
X193070000Y-69337500D01*
G75*
G02*
X193217500Y-69190000I147500J0D01*
G01*
G37*
%TD.AperFunction*%
%TD*%
%TO.P,R21,1*%
%TO.N,+3V3*%
%TA.AperFunction,SMDPad,CuDef*%
G36*
G01*
X196102500Y-70770000D02*
X195757500Y-70770000D01*
G75*
G02*
X195610000Y-70622500I0J147500D01*
G01*
X195610000Y-70327500D01*
G75*
G02*
X195757500Y-70180000I147500J0D01*
G01*
X196102500Y-70180000D01*
G75*
G02*
X196250000Y-70327500I0J-147500D01*
G01*
X196250000Y-70622500D01*
G75*
G02*
X196102500Y-70770000I-147500J0D01*
G01*
G37*
%TD.AperFunction*%
%TO.P,R21,2*%
%TO.N,Out-B*%
%TA.AperFunction,SMDPad,CuDef*%
G36*
G01*
X196102500Y-69800000D02*
X195757500Y-69800000D01*
G75*
G02*
X195610000Y-69652500I0J147500D01*
G01*
X195610000Y-69357500D01*
G75*
G02*
X195757500Y-69210000I147500J0D01*
G01*
X196102500Y-69210000D01*
G75*
G02*
X196250000Y-69357500I0J-147500D01*
G01*
X196250000Y-69652500D01*
G75*
G02*
X196102500Y-69800000I-147500J0D01*
G01*
G37*
%TD.AperFunction*%
%TD*%
D11*
%TO.P,RV5,3*%
%TO.N,Net-(R3-Pad2)*%
X173729000Y-51568600D03*
D12*
%TO.P,RV5,2*%
%TO.N,GND*%
X174879000Y-55568600D03*
D11*
%TO.P,RV5,1*%
X176029000Y-51568600D03*
%TD*%
%TO.P,RV11,1*%
%TO.N,Out-A*%
X175394000Y-59912500D03*
D12*
%TO.P,RV11,2*%
%TO.N,GND*%
X174244000Y-63912500D03*
D11*
%TO.P,RV11,3*%
X173094000Y-59912500D03*
%TD*%
%TO.P,RV16,3*%
%TO.N,Net-(R14-Pad2)*%
X196817600Y-51594000D03*
D12*
%TO.P,RV16,2*%
%TO.N,GND*%
X197967600Y-55594000D03*
D11*
%TO.P,RV16,1*%
X199117600Y-51594000D03*
%TD*%
%TO.P,R4,1*%
%TO.N,Net-(R4-Pad1)*%
%TA.AperFunction,SMDPad,CuDef*%
G36*
G01*
X178186000Y-62275500D02*
X178186000Y-61930500D01*
G75*
G02*
X178333500Y-61783000I147500J0D01*
G01*
X178628500Y-61783000D01*
G75*
G02*
X178776000Y-61930500I0J-147500D01*
G01*
X178776000Y-62275500D01*
G75*
G02*
X178628500Y-62423000I-147500J0D01*
G01*
X178333500Y-62423000D01*
G75*
G02*
X178186000Y-62275500I0J147500D01*
G01*
G37*
%TD.AperFunction*%
%TO.P,R4,2*%
%TO.N,Net-(R2-Pad1)*%
%TA.AperFunction,SMDPad,CuDef*%
G36*
G01*
X179156000Y-62275500D02*
X179156000Y-61930500D01*
G75*
G02*
X179303500Y-61783000I147500J0D01*
G01*
X179598500Y-61783000D01*
G75*
G02*
X179746000Y-61930500I0J-147500D01*
G01*
X179746000Y-62275500D01*
G75*
G02*
X179598500Y-62423000I-147500J0D01*
G01*
X179303500Y-62423000D01*
G75*
G02*
X179156000Y-62275500I0J147500D01*
G01*
G37*
%TD.AperFunction*%
%TD*%
%TO.P,J4,1*%
%TO.N,+3V3*%
%TA.AperFunction,ComponentPad*%
G36*
G01*
X175650600Y-74539001D02*
X175650600Y-73288999D01*
G75*
G02*
X175900599Y-73039000I249999J0D01*
G01*
X176600601Y-73039000D01*
G75*
G02*
X176850600Y-73288999I0J-249999D01*
G01*
X176850600Y-74539001D01*
G75*
G02*
X176600601Y-74789000I-249999J0D01*
G01*
X175900599Y-74789000D01*
G75*
G02*
X175650600Y-74539001I0J249999D01*
G01*
G37*
%TD.AperFunction*%
D13*
%TO.P,J4,2*%
%TO.N,GND*%
X178250600Y-73914000D03*
%TO.P,J4,3*%
%TO.N,Out-A*%
X180250600Y-73914000D03*
%TO.P,J4,4*%
%TO.N,Out-B*%
X182250600Y-73914000D03*
%TD*%
%TO.P,C1,1*%
%TO.N,Net-(C1-Pad1)*%
%TA.AperFunction,SMDPad,CuDef*%
G36*
G01*
X177718500Y-68598000D02*
X177373500Y-68598000D01*
G75*
G02*
X177226000Y-68450500I0J147500D01*
G01*
X177226000Y-68155500D01*
G75*
G02*
X177373500Y-68008000I147500J0D01*
G01*
X177718500Y-68008000D01*
G75*
G02*
X177866000Y-68155500I0J-147500D01*
G01*
X177866000Y-68450500D01*
G75*
G02*
X177718500Y-68598000I-147500J0D01*
G01*
G37*
%TD.AperFunction*%
%TO.P,C1,2*%
%TO.N,Net-(C1-Pad2)*%
%TA.AperFunction,SMDPad,CuDef*%
G36*
G01*
X177718500Y-67628000D02*
X177373500Y-67628000D01*
G75*
G02*
X177226000Y-67480500I0J147500D01*
G01*
X177226000Y-67185500D01*
G75*
G02*
X177373500Y-67038000I147500J0D01*
G01*
X177718500Y-67038000D01*
G75*
G02*
X177866000Y-67185500I0J-147500D01*
G01*
X177866000Y-67480500D01*
G75*
G02*
X177718500Y-67628000I-147500J0D01*
G01*
G37*
%TD.AperFunction*%
%TD*%
%TO.P,C6,2*%
%TO.N,Net-(C5-Pad2)*%
%TA.AperFunction,SMDPad,CuDef*%
G36*
G01*
X191764700Y-67348600D02*
X191419700Y-67348600D01*
G75*
G02*
X191272200Y-67201100I0J147500D01*
G01*
X191272200Y-66906100D01*
G75*
G02*
X191419700Y-66758600I147500J0D01*
G01*
X191764700Y-66758600D01*
G75*
G02*
X191912200Y-66906100I0J-147500D01*
G01*
X191912200Y-67201100D01*
G75*
G02*
X191764700Y-67348600I-147500J0D01*
G01*
G37*
%TD.AperFunction*%
%TO.P,C6,1*%
%TO.N,Net-(C6-Pad1)*%
%TA.AperFunction,SMDPad,CuDef*%
G36*
G01*
X191764700Y-68318600D02*
X191419700Y-68318600D01*
G75*
G02*
X191272200Y-68171100I0J147500D01*
G01*
X191272200Y-67876100D01*
G75*
G02*
X191419700Y-67728600I147500J0D01*
G01*
X191764700Y-67728600D01*
G75*
G02*
X191912200Y-67876100I0J-147500D01*
G01*
X191912200Y-68171100D01*
G75*
G02*
X191764700Y-68318600I-147500J0D01*
G01*
G37*
%TD.AperFunction*%
%TD*%
%TO.P,C2,2*%
%TO.N,Net-(C1-Pad2)*%
%TA.AperFunction,SMDPad,CuDef*%
G36*
G01*
X177718500Y-70104500D02*
X177373500Y-70104500D01*
G75*
G02*
X177226000Y-69957000I0J147500D01*
G01*
X177226000Y-69662000D01*
G75*
G02*
X177373500Y-69514500I147500J0D01*
G01*
X177718500Y-69514500D01*
G75*
G02*
X177866000Y-69662000I0J-147500D01*
G01*
X177866000Y-69957000D01*
G75*
G02*
X177718500Y-70104500I-147500J0D01*
G01*
G37*
%TD.AperFunction*%
%TO.P,C2,1*%
%TO.N,Net-(C2-Pad1)*%
%TA.AperFunction,SMDPad,CuDef*%
G36*
G01*
X177718500Y-71074500D02*
X177373500Y-71074500D01*
G75*
G02*
X177226000Y-70927000I0J147500D01*
G01*
X177226000Y-70632000D01*
G75*
G02*
X177373500Y-70484500I147500J0D01*
G01*
X177718500Y-70484500D01*
G75*
G02*
X177866000Y-70632000I0J-147500D01*
G01*
X177866000Y-70927000D01*
G75*
G02*
X177718500Y-71074500I-147500J0D01*
G01*
G37*
%TD.AperFunction*%
%TD*%
%TO.P,C3,1*%
%TO.N,+5V*%
%TA.AperFunction,SMDPad,CuDef*%
G36*
G01*
X190835500Y-57487600D02*
X191180500Y-57487600D01*
G75*
G02*
X191328000Y-57635100I0J-147500D01*
G01*
X191328000Y-57930100D01*
G75*
G02*
X191180500Y-58077600I-147500J0D01*
G01*
X190835500Y-58077600D01*
G75*
G02*
X190688000Y-57930100I0J147500D01*
G01*
X190688000Y-57635100D01*
G75*
G02*
X190835500Y-57487600I147500J0D01*
G01*
G37*
%TD.AperFunction*%
%TO.P,C3,2*%
%TO.N,GND*%
%TA.AperFunction,SMDPad,CuDef*%
G36*
G01*
X190835500Y-58457600D02*
X191180500Y-58457600D01*
G75*
G02*
X191328000Y-58605100I0J-147500D01*
G01*
X191328000Y-58900100D01*
G75*
G02*
X191180500Y-59047600I-147500J0D01*
G01*
X190835500Y-59047600D01*
G75*
G02*
X190688000Y-58900100I0J147500D01*
G01*
X190688000Y-58605100D01*
G75*
G02*
X190835500Y-58457600I147500J0D01*
G01*
G37*
%TD.AperFunction*%
%TD*%
%TO.P,C4,2*%
%TO.N,+5V*%
%TA.AperFunction,SMDPad,CuDef*%
G36*
G01*
X188735200Y-64470500D02*
X188735200Y-64815500D01*
G75*
G02*
X188587700Y-64963000I-147500J0D01*
G01*
X188292700Y-64963000D01*
G75*
G02*
X188145200Y-64815500I0J147500D01*
G01*
X188145200Y-64470500D01*
G75*
G02*
X188292700Y-64323000I147500J0D01*
G01*
X188587700Y-64323000D01*
G75*
G02*
X188735200Y-64470500I0J-147500D01*
G01*
G37*
%TD.AperFunction*%
%TO.P,C4,1*%
%TO.N,GND*%
%TA.AperFunction,SMDPad,CuDef*%
G36*
G01*
X189705200Y-64470500D02*
X189705200Y-64815500D01*
G75*
G02*
X189557700Y-64963000I-147500J0D01*
G01*
X189262700Y-64963000D01*
G75*
G02*
X189115200Y-64815500I0J147500D01*
G01*
X189115200Y-64470500D01*
G75*
G02*
X189262700Y-64323000I147500J0D01*
G01*
X189557700Y-64323000D01*
G75*
G02*
X189705200Y-64470500I0J-147500D01*
G01*
G37*
%TD.AperFunction*%
%TD*%
%TO.P,C7,2*%
%TO.N,-5V*%
%TA.AperFunction,SMDPad,CuDef*%
G36*
G01*
X181782500Y-62040000D02*
X181437500Y-62040000D01*
G75*
G02*
X181290000Y-61892500I0J147500D01*
G01*
X181290000Y-61597500D01*
G75*
G02*
X181437500Y-61450000I147500J0D01*
G01*
X181782500Y-61450000D01*
G75*
G02*
X181930000Y-61597500I0J-147500D01*
G01*
X181930000Y-61892500D01*
G75*
G02*
X181782500Y-62040000I-147500J0D01*
G01*
G37*
%TD.AperFunction*%
%TO.P,C7,1*%
%TO.N,GND*%
%TA.AperFunction,SMDPad,CuDef*%
G36*
G01*
X181782500Y-63010000D02*
X181437500Y-63010000D01*
G75*
G02*
X181290000Y-62862500I0J147500D01*
G01*
X181290000Y-62567500D01*
G75*
G02*
X181437500Y-62420000I147500J0D01*
G01*
X181782500Y-62420000D01*
G75*
G02*
X181930000Y-62567500I0J-147500D01*
G01*
X181930000Y-62862500D01*
G75*
G02*
X181782500Y-63010000I-147500J0D01*
G01*
G37*
%TD.AperFunction*%
%TD*%
%TO.P,J3,1*%
%TO.N,GND*%
%TA.AperFunction,ComponentPad*%
G36*
G01*
X189366600Y-74513601D02*
X189366600Y-73263599D01*
G75*
G02*
X189616599Y-73013600I249999J0D01*
G01*
X190316601Y-73013600D01*
G75*
G02*
X190566600Y-73263599I0J-249999D01*
G01*
X190566600Y-74513601D01*
G75*
G02*
X190316601Y-74763600I-249999J0D01*
G01*
X189616599Y-74763600D01*
G75*
G02*
X189366600Y-74513601I0J249999D01*
G01*
G37*
%TD.AperFunction*%
%TO.P,J3,2*%
%TO.N,+5V*%
X191966600Y-73888600D03*
%TO.P,J3,3*%
%TO.N,-5V*%
X193966600Y-73888600D03*
%TD*%
%TA.AperFunction,ComponentPad*%
D14*
%TO.P,J1B1,1*%
%TO.N,/Mid-Muscle-A*%
G36*
X186642159Y-49379532D02*
G01*
X186637891Y-49393601D01*
X186630960Y-49406568D01*
X186621633Y-49417933D01*
X186610268Y-49427260D01*
X186597301Y-49434191D01*
X186583232Y-49438459D01*
X186568600Y-49439900D01*
X184689000Y-49439900D01*
X184674368Y-49438459D01*
X184660299Y-49434191D01*
X184647332Y-49427260D01*
X184635967Y-49417933D01*
X184626640Y-49406568D01*
X184619709Y-49393601D01*
X184615441Y-49379532D01*
X184614000Y-49364900D01*
X184614000Y-46266100D01*
X184615441Y-46251468D01*
X184619709Y-46237399D01*
X184626640Y-46224432D01*
X184635967Y-46213067D01*
X184647332Y-46203740D01*
X184660299Y-46196809D01*
X184674368Y-46192541D01*
X184689000Y-46191100D01*
X186568600Y-46191100D01*
X186583232Y-46192541D01*
X186597301Y-46196809D01*
X186610268Y-46203740D01*
X186621633Y-46213067D01*
X186630960Y-46224432D01*
X186637891Y-46237399D01*
X186642159Y-46251468D01*
X186643600Y-46266100D01*
X186643600Y-49364900D01*
X186642159Y-49379532D01*
G37*
%TD.AperFunction*%
%TA.AperFunction,ComponentPad*%
%TO.P,J1B1,3*%
%TO.N,GND*%
G36*
X180642159Y-49379532D02*
G01*
X180637891Y-49393601D01*
X180630960Y-49406568D01*
X180621633Y-49417933D01*
X180610268Y-49427260D01*
X180597301Y-49434191D01*
X180583232Y-49438459D01*
X180568600Y-49439900D01*
X178689000Y-49439900D01*
X178674368Y-49438459D01*
X178660299Y-49434191D01*
X178647332Y-49427260D01*
X178635967Y-49417933D01*
X178626640Y-49406568D01*
X178619709Y-49393601D01*
X178615441Y-49379532D01*
X178614000Y-49364900D01*
X178614000Y-46266100D01*
X178615441Y-46251468D01*
X178619709Y-46237399D01*
X178626640Y-46224432D01*
X178635967Y-46213067D01*
X178647332Y-46203740D01*
X178660299Y-46196809D01*
X178674368Y-46192541D01*
X178689000Y-46191100D01*
X180568600Y-46191100D01*
X180583232Y-46192541D01*
X180597301Y-46196809D01*
X180610268Y-46203740D01*
X180621633Y-46213067D01*
X180630960Y-46224432D01*
X180637891Y-46237399D01*
X180642159Y-46251468D01*
X180643600Y-46266100D01*
X180643600Y-49364900D01*
X180642159Y-49379532D01*
G37*
%TD.AperFunction*%
%TA.AperFunction,ComponentPad*%
%TO.P,J1B1,2*%
%TO.N,/End-Muscle-A*%
G36*
X183642159Y-49379532D02*
G01*
X183637891Y-49393601D01*
X183630960Y-49406568D01*
X183621633Y-49417933D01*
X183610268Y-49427260D01*
X183597301Y-49434191D01*
X183583232Y-49438459D01*
X183568600Y-49439900D01*
X181689000Y-49439900D01*
X181674368Y-49438459D01*
X181660299Y-49434191D01*
X181647332Y-49427260D01*
X181635967Y-49417933D01*
X181626640Y-49406568D01*
X181619709Y-49393601D01*
X181615441Y-49379532D01*
X181614000Y-49364900D01*
X181614000Y-46266100D01*
X181615441Y-46251468D01*
X181619709Y-46237399D01*
X181626640Y-46224432D01*
X181635967Y-46213067D01*
X181647332Y-46203740D01*
X181660299Y-46196809D01*
X181674368Y-46192541D01*
X181689000Y-46191100D01*
X183568600Y-46191100D01*
X183583232Y-46192541D01*
X183597301Y-46196809D01*
X183610268Y-46203740D01*
X183621633Y-46213067D01*
X183630960Y-46224432D01*
X183637891Y-46237399D01*
X183642159Y-46251468D01*
X183643600Y-46266100D01*
X183643600Y-49364900D01*
X183642159Y-49379532D01*
G37*
%TD.AperFunction*%
%TD*%
%TA.AperFunction,ComponentPad*%
%TO.P,J2B1,1*%
%TO.N,/End-Muscle-B*%
G36*
X193827559Y-49379532D02*
G01*
X193823291Y-49393601D01*
X193816360Y-49406568D01*
X193807033Y-49417933D01*
X193795668Y-49427260D01*
X193782701Y-49434191D01*
X193768632Y-49438459D01*
X193754000Y-49439900D01*
X191874400Y-49439900D01*
X191859768Y-49438459D01*
X191845699Y-49434191D01*
X191832732Y-49427260D01*
X191821367Y-49417933D01*
X191812040Y-49406568D01*
X191805109Y-49393601D01*
X191800841Y-49379532D01*
X191799400Y-49364900D01*
X191799400Y-46266100D01*
X191800841Y-46251468D01*
X191805109Y-46237399D01*
X191812040Y-46224432D01*
X191821367Y-46213067D01*
X191832732Y-46203740D01*
X191845699Y-46196809D01*
X191859768Y-46192541D01*
X191874400Y-46191100D01*
X193754000Y-46191100D01*
X193768632Y-46192541D01*
X193782701Y-46196809D01*
X193795668Y-46203740D01*
X193807033Y-46213067D01*
X193816360Y-46224432D01*
X193823291Y-46237399D01*
X193827559Y-46251468D01*
X193829000Y-46266100D01*
X193829000Y-49364900D01*
X193827559Y-49379532D01*
G37*
%TD.AperFunction*%
%TA.AperFunction,ComponentPad*%
%TO.P,J2B1,2*%
%TO.N,/Mid-Muscle-B*%
G36*
X190827559Y-49379532D02*
G01*
X190823291Y-49393601D01*
X190816360Y-49406568D01*
X190807033Y-49417933D01*
X190795668Y-49427260D01*
X190782701Y-49434191D01*
X190768632Y-49438459D01*
X190754000Y-49439900D01*
X188874400Y-49439900D01*
X188859768Y-49438459D01*
X188845699Y-49434191D01*
X188832732Y-49427260D01*
X188821367Y-49417933D01*
X188812040Y-49406568D01*
X188805109Y-49393601D01*
X188800841Y-49379532D01*
X188799400Y-49364900D01*
X188799400Y-46266100D01*
X188800841Y-46251468D01*
X188805109Y-46237399D01*
X188812040Y-46224432D01*
X188821367Y-46213067D01*
X188832732Y-46203740D01*
X188845699Y-46196809D01*
X188859768Y-46192541D01*
X188874400Y-46191100D01*
X190754000Y-46191100D01*
X190768632Y-46192541D01*
X190782701Y-46196809D01*
X190795668Y-46203740D01*
X190807033Y-46213067D01*
X190816360Y-46224432D01*
X190823291Y-46237399D01*
X190827559Y-46251468D01*
X190829000Y-46266100D01*
X190829000Y-49364900D01*
X190827559Y-49379532D01*
G37*
%TD.AperFunction*%
%TD*%
D10*
%TO.P,D1,3*%
%TO.N,Out-A*%
X175348900Y-67640200D03*
%TO.P,D1,2*%
%TO.N,+3V3*%
X173596300Y-68290199D03*
%TO.P,D1,1*%
%TO.N,GND*%
X173596300Y-66990201D03*
%TD*%
D15*
%TO.P,U1,8*%
%TO.N,+5V*%
X188645800Y-58191400D03*
%TO.P,U1,7*%
%TO.N,Net-(R17-Pad1)*%
X188645800Y-59461400D03*
%TO.P,U1,6*%
%TO.N,Net-(R13-Pad1)*%
X188645800Y-60731400D03*
%TO.P,U1,5*%
%TO.N,Net-(R12-Pad1)*%
X188645800Y-62001400D03*
%TO.P,U1,4*%
%TO.N,-5V*%
X183718200Y-62001400D03*
%TO.P,U1,3*%
%TO.N,Net-(R1-Pad1)*%
X183718200Y-60731400D03*
%TO.P,U1,2*%
%TO.N,Net-(R2-Pad1)*%
X183718200Y-59461400D03*
%TO.P,U1,1*%
%TO.N,Net-(R6-Pad1)*%
X183718200Y-58191400D03*
%TD*%
%TO.P,U2,1*%
%TO.N,Net-(C1-Pad2)*%
X183654700Y-66230500D03*
%TO.P,U2,2*%
%TO.N,Net-(C1-Pad1)*%
X183654700Y-67500500D03*
%TO.P,U2,3*%
%TO.N,GND*%
X183654700Y-68770500D03*
%TO.P,U2,4*%
%TO.N,-5V*%
X183654700Y-70040500D03*
%TO.P,U2,5*%
%TO.N,GND*%
X188582300Y-70040500D03*
%TO.P,U2,6*%
%TO.N,Net-(C5-Pad1)*%
X188582300Y-68770500D03*
%TO.P,U2,7*%
%TO.N,Net-(C5-Pad2)*%
X188582300Y-67500500D03*
%TO.P,U2,8*%
%TO.N,+5V*%
X188582300Y-66230500D03*
%TD*%
D16*
%TO.N,GND*%
X179628800Y-46240700D03*
D17*
X192659000Y-58039000D03*
X181584600Y-68453000D03*
X183769000Y-63627000D03*
X190720000Y-65850000D03*
X190652400Y-69418200D03*
X198272400Y-69799200D03*
%TO.N,Net-(C5-Pad1)*%
X191897000Y-69418200D03*
X195097400Y-67538600D03*
%TO.N,+3V3*%
X197390000Y-72490000D03*
D16*
%TO.N,/End-Muscle-A*%
X182626000Y-46240700D03*
%TO.N,/Mid-Muscle-A*%
X185623200Y-46215300D03*
%TO.N,/Mid-Muscle-B*%
X189814200Y-46215300D03*
%TO.N,/End-Muscle-B*%
X192811400Y-46215300D03*
D17*
%TO.N,-5V*%
X177546000Y-60960000D03*
X181610000Y-69723000D03*
X185690000Y-72520000D03*
%TD*%
D18*
%TO.N,Net-(C1-Pad2)*%
X185267600Y-66602800D02*
X185267600Y-70612000D01*
X184895300Y-66230500D02*
X185267600Y-66602800D01*
X183654700Y-66230500D02*
X184895300Y-66230500D01*
X185267600Y-70612000D02*
X184581800Y-71297800D01*
X181480600Y-71297800D02*
X179679600Y-69496800D01*
X184581800Y-71297800D02*
X181480600Y-71297800D01*
X179366900Y-69809500D02*
X179679600Y-69496800D01*
X177546000Y-69809500D02*
X179366900Y-69809500D01*
X176900990Y-69164490D02*
X177546000Y-69809500D01*
X176900990Y-67658010D02*
X176900990Y-69164490D01*
X177226000Y-67333000D02*
X176900990Y-67658010D01*
X177546000Y-67333000D02*
X177226000Y-67333000D01*
%TO.N,Net-(C1-Pad1)*%
X183654700Y-67500500D02*
X183069698Y-67500500D01*
X183610199Y-67545001D02*
X183654700Y-67500500D01*
X181421999Y-67545001D02*
X183610199Y-67545001D01*
X180703500Y-66826502D02*
X181421999Y-67545001D01*
X180703500Y-65405000D02*
X180703500Y-66826502D01*
X179455800Y-68303000D02*
X179679600Y-68526800D01*
X177546000Y-68303000D02*
X179455800Y-68303000D01*
X180440200Y-68526800D02*
X181421999Y-67545001D01*
X179679600Y-68526800D02*
X180440200Y-68526800D01*
%TO.N,Net-(C2-Pad1)*%
X177527768Y-70779500D02*
X177546000Y-70779500D01*
X176570468Y-69822200D02*
X177527768Y-70779500D01*
X174955200Y-69822200D02*
X176570468Y-69822200D01*
%TO.N,GND*%
X173087000Y-59905500D02*
X173094000Y-59912500D01*
X197351000Y-56210600D02*
X197967600Y-55594000D01*
X179628800Y-52692300D02*
X180467000Y-53530500D01*
X179628800Y-49682400D02*
X179628800Y-52692300D01*
X191945400Y-58752600D02*
X192659000Y-58039000D01*
X191008000Y-58752600D02*
X191945400Y-58752600D01*
X181610000Y-62715000D02*
X181610000Y-62992000D01*
X181610000Y-62992000D02*
X182245000Y-63627000D01*
X182245000Y-63627000D02*
X183769000Y-63627000D01*
X198676001Y-58523999D02*
X197351000Y-59849000D01*
X200561001Y-58523999D02*
X198676001Y-58523999D01*
X200626001Y-58588999D02*
X200561001Y-58523999D01*
X200626001Y-61723999D02*
X200626001Y-58588999D01*
X198501000Y-63849000D02*
X200626001Y-61723999D01*
X189513000Y-64643000D02*
X190720000Y-65850000D01*
X189410200Y-64643000D02*
X189513000Y-64643000D01*
X179628800Y-49682400D02*
X179628800Y-48247300D01*
X174879000Y-52718600D02*
X176029000Y-51568600D01*
X174879000Y-55568600D02*
X174879000Y-52718600D01*
X188582300Y-70040500D02*
X189207000Y-70040500D01*
X188582300Y-70040500D02*
X189179500Y-70040500D01*
X190030100Y-70040500D02*
X190652400Y-69418200D01*
X188582300Y-70040500D02*
X190030100Y-70040500D01*
X183642000Y-68757800D02*
X183654700Y-68770500D01*
X181902100Y-68770500D02*
X181584600Y-68453000D01*
X183654700Y-68770500D02*
X181902100Y-68770500D01*
X198272400Y-69191899D02*
X199148700Y-68315599D01*
X198272400Y-69799200D02*
X198272400Y-69191899D01*
%TO.N,Net-(C5-Pad1)*%
X189167302Y-68770500D02*
X188582300Y-68770500D01*
X188582300Y-68770500D02*
X189166500Y-68770500D01*
X188592800Y-68760000D02*
X188582300Y-68770500D01*
X193792000Y-67035000D02*
X193802000Y-67025000D01*
X194365000Y-66462000D02*
X193802000Y-67025000D01*
X194365000Y-65490000D02*
X194365000Y-66462000D01*
X194365000Y-65170000D02*
X194365000Y-65490000D01*
X193815000Y-64620000D02*
X194365000Y-65170000D01*
X191008000Y-64620000D02*
X193815000Y-64620000D01*
X191171999Y-68693199D02*
X191897000Y-69418200D01*
X188659601Y-68693199D02*
X191171999Y-68693199D01*
X188582300Y-68770500D02*
X188659601Y-68693199D01*
X195097400Y-66222400D02*
X194365000Y-65490000D01*
X195097400Y-67538600D02*
X195097400Y-66222400D01*
%TO.N,Net-(C5-Pad2)*%
X193802000Y-67995000D02*
X194122000Y-67995000D01*
X193155800Y-65490000D02*
X191592200Y-67053600D01*
X193395000Y-65490000D02*
X193155800Y-65490000D01*
X192842368Y-67053600D02*
X193783768Y-67995000D01*
X193783768Y-67995000D02*
X193802000Y-67995000D01*
X191592200Y-67053600D02*
X192842368Y-67053600D01*
X189029200Y-67053600D02*
X191592200Y-67053600D01*
X188582300Y-67500500D02*
X189029200Y-67053600D01*
%TO.N,Net-(C6-Pad1)*%
X191928600Y-68023600D02*
X193390000Y-69485000D01*
X191592200Y-68023600D02*
X191928600Y-68023600D01*
%TO.N,Out-A*%
X175348900Y-67947500D02*
X175348900Y-67640200D01*
X173471800Y-69824600D02*
X175348900Y-67947500D01*
X173151800Y-69824600D02*
X173471800Y-69824600D01*
X174936968Y-70792200D02*
X174955200Y-70792200D01*
X173969368Y-69824600D02*
X174936968Y-70792200D01*
X173151800Y-69824600D02*
X173969368Y-69824600D01*
X179050590Y-72713990D02*
X180250600Y-73914000D01*
X176876990Y-72713990D02*
X179050590Y-72713990D01*
X174955200Y-70792200D02*
X176876990Y-72713990D01*
X175569001Y-67420099D02*
X175348900Y-67640200D01*
X175569001Y-60087501D02*
X175569001Y-67420099D01*
X175394000Y-59912500D02*
X175569001Y-60087501D01*
%TO.N,+3V3*%
X195930000Y-71030000D02*
X195930000Y-70475000D01*
X197390000Y-72490000D02*
X195930000Y-71030000D01*
X200057901Y-69086701D02*
X200057901Y-67924802D01*
X200057901Y-67924802D02*
X199148700Y-67015601D01*
X198620401Y-70524201D02*
X200057901Y-69086701D01*
X195979201Y-70524201D02*
X198620401Y-70524201D01*
X195930000Y-70475000D02*
X195979201Y-70524201D01*
X173151800Y-70815200D02*
X176250600Y-73914000D01*
X173151800Y-70794600D02*
X173151800Y-70815200D01*
X172506790Y-69379709D02*
X173596300Y-68290199D01*
X172506790Y-70469590D02*
X172506790Y-69379709D01*
X172831800Y-70794600D02*
X172506790Y-70469590D01*
X173151800Y-70794600D02*
X172831800Y-70794600D01*
%TO.N,Out-B*%
X199826001Y-60024001D02*
X199651000Y-59849000D01*
X195911768Y-69505000D02*
X195930000Y-69505000D01*
X194961768Y-70455000D02*
X195911768Y-69505000D01*
X193390000Y-70455000D02*
X194961768Y-70455000D01*
X193390000Y-70455000D02*
X194891610Y-71956610D01*
X194891610Y-74597551D02*
X194891610Y-71956610D01*
X193899742Y-75589419D02*
X194891610Y-74597551D01*
X183926019Y-75589419D02*
X193899742Y-75589419D01*
X182250600Y-73914000D02*
X183926019Y-75589419D01*
X199586002Y-59849000D02*
X199651000Y-59849000D01*
X195930000Y-63505002D02*
X199586002Y-59849000D01*
X195930000Y-69505000D02*
X195930000Y-63505002D01*
X195930000Y-69505000D02*
X196130000Y-69505000D01*
X197396100Y-68038900D02*
X195930000Y-69505000D01*
X197396100Y-67665600D02*
X197396100Y-68038900D01*
%TO.N,/End-Muscle-A*%
X182467000Y-54746000D02*
X179428000Y-57785000D01*
X182467000Y-53530500D02*
X182467000Y-54746000D01*
X182628800Y-53368700D02*
X182467000Y-53530500D01*
X182628800Y-49682400D02*
X182628800Y-53368700D01*
X182628800Y-49682400D02*
X182628800Y-48247300D01*
%TO.N,/Mid-Muscle-A*%
X181587000Y-56410500D02*
X184467000Y-53530500D01*
X181587000Y-57785000D02*
X181587000Y-56410500D01*
X185628800Y-52368700D02*
X184467000Y-53530500D01*
X185628800Y-49682400D02*
X185628800Y-52368700D01*
X185628800Y-49682400D02*
X185628800Y-48247300D01*
%TO.N,/Mid-Muscle-B*%
X189814200Y-53035200D02*
X190309500Y-53530500D01*
X189814200Y-49682400D02*
X189814200Y-53035200D01*
X190309500Y-53530500D02*
X191770000Y-54991000D01*
X193728232Y-60602000D02*
X193167000Y-60602000D01*
X195326000Y-55381610D02*
X195326000Y-59004232D01*
X194935390Y-54991000D02*
X195326000Y-55381610D01*
X195326000Y-59004232D02*
X193728232Y-60602000D01*
X191770000Y-54991000D02*
X194935390Y-54991000D01*
X189814200Y-49682400D02*
X189814200Y-48247300D01*
%TO.N,/End-Muscle-B*%
X192814200Y-53025800D02*
X192309500Y-53530500D01*
X192814200Y-49682400D02*
X192814200Y-53025800D01*
X195834000Y-54356000D02*
X195834000Y-60094000D01*
X195834000Y-60094000D02*
X195326000Y-60602000D01*
X195008500Y-53530500D02*
X195834000Y-54356000D01*
X192309500Y-53530500D02*
X195008500Y-53530500D01*
X192814200Y-49682400D02*
X192814200Y-48247300D01*
%TO.N,Net-(R1-Pad1)*%
X180286990Y-59933990D02*
X181348490Y-59933990D01*
X181673500Y-60259000D02*
X181673500Y-60579000D01*
X181348490Y-59933990D02*
X181673500Y-60259000D01*
X178458000Y-58105000D02*
X180286990Y-59933990D01*
X178458000Y-57785000D02*
X178458000Y-58105000D01*
X183565800Y-60579000D02*
X183718200Y-60731400D01*
X181673500Y-60579000D02*
X183565800Y-60579000D01*
%TO.N,Net-(R2-Pad1)*%
X179451000Y-62103000D02*
X181102000Y-63754000D01*
X181973400Y-59461400D02*
X183718200Y-59461400D01*
X180617000Y-58105000D02*
X181973400Y-59461400D01*
X180617000Y-57785000D02*
X180617000Y-58105000D01*
X181102000Y-63754000D02*
X181102000Y-63728600D01*
X185033801Y-59536401D02*
X184958800Y-59461400D01*
X184783590Y-64516000D02*
X185033801Y-64265789D01*
X181864000Y-64516000D02*
X184783590Y-64516000D01*
X185033801Y-64265789D02*
X185033801Y-59536401D01*
X184958800Y-59461400D02*
X183718200Y-59461400D01*
X181102000Y-63754000D02*
X181864000Y-64516000D01*
%TO.N,Net-(R3-Pad2)*%
X179090000Y-60579000D02*
X180703500Y-60579000D01*
X173553999Y-51743601D02*
X173729000Y-51568600D01*
X173553999Y-56828601D02*
X173553999Y-51743601D01*
X173618999Y-56893601D02*
X173553999Y-56828601D01*
X175422701Y-56893601D02*
X173618999Y-56893601D01*
X179090000Y-60560900D02*
X175422701Y-56893601D01*
X179090000Y-60579000D02*
X179090000Y-60560900D01*
%TO.N,Net-(R4-Pad1)*%
X178481000Y-64620000D02*
X178458000Y-64643000D01*
X178481000Y-62103000D02*
X178481000Y-64620000D01*
%TO.N,Net-(R6-Pad1)*%
X179428000Y-64643000D02*
X181231500Y-64643000D01*
X181673500Y-65085000D02*
X181673500Y-65405000D01*
X181231500Y-64643000D02*
X181673500Y-65085000D01*
X182245000Y-65024000D02*
X181864000Y-65405000D01*
X184912000Y-65024000D02*
X182245000Y-65024000D01*
X185483811Y-64452189D02*
X184912000Y-65024000D01*
X185483810Y-58716410D02*
X185483811Y-64452189D01*
X184958800Y-58191400D02*
X185483810Y-58716410D01*
X181864000Y-65405000D02*
X181673500Y-65405000D01*
X183718200Y-58191400D02*
X184958800Y-58191400D01*
%TO.N,Net-(R12-Pad1)*%
X188645800Y-62001400D02*
X188813410Y-62169010D01*
X189557800Y-62913400D02*
X194360800Y-62913400D01*
X188645800Y-62001400D02*
X189557800Y-62913400D01*
X194360800Y-62537200D02*
X195326000Y-61572000D01*
X194360800Y-62913400D02*
X194360800Y-62537200D01*
%TO.N,Net-(R13-Pad1)*%
X188777600Y-60599600D02*
X188645800Y-60731400D01*
X188798200Y-60579000D02*
X188645800Y-60731400D01*
X190727000Y-61572000D02*
X191008000Y-61572000D01*
X189886400Y-60731400D02*
X190727000Y-61572000D01*
X188645800Y-60731400D02*
X189886400Y-60731400D01*
X191008000Y-61572000D02*
X193167000Y-61572000D01*
%TO.N,Net-(R14-Pad2)*%
X197175999Y-51896001D02*
X197351000Y-51721000D01*
X196375999Y-52035601D02*
X196817600Y-51594000D01*
X196375999Y-62188201D02*
X196375999Y-52035601D01*
X194680800Y-63883400D02*
X196375999Y-62188201D01*
X194360800Y-63883400D02*
X194680800Y-63883400D01*
%TO.N,Net-(R15-Pad1)*%
X191403590Y-59911410D02*
X193430590Y-59911410D01*
X193430590Y-59911410D02*
X194564000Y-58778000D01*
X191008000Y-60307000D02*
X191403590Y-59911410D01*
X191008000Y-60602000D02*
X191008000Y-60307000D01*
%TO.N,Net-(R17-Pad1)*%
X187405200Y-59461400D02*
X186383829Y-60482771D01*
X188645800Y-59461400D02*
X187405200Y-59461400D01*
X186383829Y-60482771D02*
X186383829Y-63192419D01*
X186841410Y-63650000D02*
X191008000Y-63650000D01*
X186383829Y-63192419D02*
X186841410Y-63650000D01*
X194545768Y-57808000D02*
X194564000Y-57808000D01*
X192892368Y-59461400D02*
X194545768Y-57808000D01*
X188645800Y-59461400D02*
X192892368Y-59461400D01*
%TO.N,+5V*%
X187975290Y-66230500D02*
X188582300Y-66230500D01*
X188440200Y-66088400D02*
X188582300Y-66230500D01*
X188440200Y-64643000D02*
X188440200Y-66088400D01*
X188645800Y-58191400D02*
X186441818Y-58191400D01*
X186441818Y-58191400D02*
X185933819Y-58699398D01*
X185933819Y-63378819D02*
X187198000Y-64643000D01*
X185933819Y-58699398D02*
X185933819Y-63378819D01*
X190599200Y-58191400D02*
X191008000Y-57782600D01*
X188645800Y-58191400D02*
X190599200Y-58191400D01*
X188440200Y-64643000D02*
X187198000Y-64643000D01*
X186891690Y-66680510D02*
X186891690Y-70204892D01*
X187341700Y-66230500D02*
X186891690Y-66680510D01*
X188582300Y-66230500D02*
X187341700Y-66230500D01*
X186891690Y-70204892D02*
X188009998Y-71323200D01*
X188009998Y-71323200D02*
X191033400Y-71323200D01*
X191966600Y-72256400D02*
X191966600Y-73888600D01*
X191033400Y-71323200D02*
X191966600Y-72256400D01*
%TO.N,-5V*%
X177615010Y-61029010D02*
X177546000Y-60960000D01*
X181927500Y-70040500D02*
X181610000Y-69723000D01*
X183654700Y-70040500D02*
X181927500Y-70040500D01*
X177945999Y-61359999D02*
X181224999Y-61359999D01*
X181224999Y-61359999D02*
X181610000Y-61745000D01*
X177546000Y-60960000D02*
X177945999Y-61359999D01*
X183461800Y-61745000D02*
X183718200Y-62001400D01*
X181610000Y-61745000D02*
X183461800Y-61745000D01*
X185690000Y-73910000D02*
X185700000Y-73920000D01*
X185690000Y-72520000D02*
X185690000Y-73910000D01*
X186599410Y-75139410D02*
X192766590Y-75139410D01*
X192766590Y-75139410D02*
X193966600Y-73939400D01*
X185700000Y-74240000D02*
X186599410Y-75139410D01*
X185700000Y-73920000D02*
X185700000Y-74240000D01*
%TD*%
D19*
%TO.N,GND*%
X177975928Y-49364900D02*
X177979000Y-49427437D01*
X177980441Y-49442069D01*
X178004847Y-49564763D01*
X178009115Y-49578832D01*
X178056980Y-49694386D01*
X178063911Y-49707353D01*
X178133403Y-49811356D01*
X178142730Y-49822721D01*
X178231179Y-49911170D01*
X178242544Y-49920497D01*
X178346547Y-49989989D01*
X178359514Y-49996920D01*
X178475068Y-50044785D01*
X178489137Y-50049053D01*
X178611831Y-50073459D01*
X178626463Y-50074900D01*
X178689000Y-50077972D01*
X180568600Y-50077972D01*
X180631137Y-50074900D01*
X180645769Y-50073459D01*
X180768463Y-50049053D01*
X180782532Y-50044785D01*
X180898086Y-49996920D01*
X180911053Y-49989989D01*
X181015056Y-49920497D01*
X181026421Y-49911170D01*
X181114870Y-49822721D01*
X181124197Y-49811356D01*
X181128800Y-49804467D01*
X181133403Y-49811356D01*
X181142730Y-49822721D01*
X181231179Y-49911170D01*
X181242544Y-49920497D01*
X181346547Y-49989989D01*
X181359514Y-49996920D01*
X181475068Y-50044785D01*
X181489137Y-50049053D01*
X181611831Y-50073459D01*
X181626463Y-50074900D01*
X181689000Y-50077972D01*
X181868800Y-50077972D01*
X181868801Y-52174893D01*
X181777551Y-52223667D01*
X181623691Y-52349936D01*
X181597537Y-52301006D01*
X181518185Y-52204315D01*
X181421494Y-52124963D01*
X181311180Y-52065998D01*
X181191482Y-52029688D01*
X181067000Y-52017428D01*
X180752750Y-52020500D01*
X180594000Y-52179250D01*
X180594000Y-53403500D01*
X180614000Y-53403500D01*
X180614000Y-53657500D01*
X180594000Y-53657500D01*
X180594000Y-54881750D01*
X180752750Y-55040500D01*
X181067000Y-55043572D01*
X181097644Y-55040554D01*
X179311271Y-56826928D01*
X179280500Y-56826928D01*
X179127243Y-56842023D01*
X178979875Y-56886726D01*
X178943000Y-56906436D01*
X178906125Y-56886726D01*
X178758757Y-56842023D01*
X178605500Y-56826928D01*
X178310500Y-56826928D01*
X178157243Y-56842023D01*
X178009875Y-56886726D01*
X177874060Y-56959321D01*
X177755017Y-57057017D01*
X177657321Y-57176060D01*
X177584726Y-57311875D01*
X177540023Y-57459243D01*
X177524928Y-57612500D01*
X177524928Y-57921027D01*
X176450451Y-56846550D01*
X176468502Y-56812780D01*
X176504812Y-56693082D01*
X176517072Y-56568600D01*
X176514000Y-55854350D01*
X176355250Y-55695600D01*
X175006000Y-55695600D01*
X175006000Y-55715600D01*
X174752000Y-55715600D01*
X174752000Y-55695600D01*
X174732000Y-55695600D01*
X174732000Y-55441600D01*
X174752000Y-55441600D01*
X174752000Y-54092350D01*
X175006000Y-54092350D01*
X175006000Y-55441600D01*
X176355250Y-55441600D01*
X176514000Y-55282850D01*
X176517072Y-54568600D01*
X176504812Y-54444118D01*
X176493098Y-54405500D01*
X179228928Y-54405500D01*
X179241188Y-54529982D01*
X179277498Y-54649680D01*
X179336463Y-54759994D01*
X179415815Y-54856685D01*
X179512506Y-54936037D01*
X179622820Y-54995002D01*
X179742518Y-55031312D01*
X179867000Y-55043572D01*
X180181250Y-55040500D01*
X180340000Y-54881750D01*
X180340000Y-53657500D01*
X179390750Y-53657500D01*
X179232000Y-53816250D01*
X179228928Y-54405500D01*
X176493098Y-54405500D01*
X176468502Y-54324420D01*
X176409537Y-54214106D01*
X176330185Y-54117415D01*
X176233494Y-54038063D01*
X176123180Y-53979098D01*
X176003482Y-53942788D01*
X175879000Y-53930528D01*
X175164750Y-53933600D01*
X175006000Y-54092350D01*
X174752000Y-54092350D01*
X174593250Y-53933600D01*
X174313999Y-53932399D01*
X174313999Y-53206672D01*
X174379000Y-53206672D01*
X174503482Y-53194412D01*
X174623180Y-53158102D01*
X174733494Y-53099137D01*
X174830185Y-53019785D01*
X174879000Y-52960304D01*
X174927815Y-53019785D01*
X175024506Y-53099137D01*
X175134820Y-53158102D01*
X175254518Y-53194412D01*
X175379000Y-53206672D01*
X175743250Y-53203600D01*
X175902000Y-53044850D01*
X175902000Y-51695600D01*
X176156000Y-51695600D01*
X176156000Y-53044850D01*
X176314750Y-53203600D01*
X176679000Y-53206672D01*
X176803482Y-53194412D01*
X176923180Y-53158102D01*
X177033494Y-53099137D01*
X177130185Y-53019785D01*
X177209537Y-52923094D01*
X177268502Y-52812780D01*
X177304812Y-52693082D01*
X177308513Y-52655500D01*
X179228928Y-52655500D01*
X179232000Y-53244750D01*
X179390750Y-53403500D01*
X180340000Y-53403500D01*
X180340000Y-52179250D01*
X180181250Y-52020500D01*
X179867000Y-52017428D01*
X179742518Y-52029688D01*
X179622820Y-52065998D01*
X179512506Y-52124963D01*
X179415815Y-52204315D01*
X179336463Y-52301006D01*
X179277498Y-52411320D01*
X179241188Y-52531018D01*
X179228928Y-52655500D01*
X177308513Y-52655500D01*
X177317072Y-52568600D01*
X177314000Y-51854350D01*
X177155250Y-51695600D01*
X176156000Y-51695600D01*
X175902000Y-51695600D01*
X175882000Y-51695600D01*
X175882000Y-51441600D01*
X175902000Y-51441600D01*
X175902000Y-50092350D01*
X176156000Y-50092350D01*
X176156000Y-51441600D01*
X177155250Y-51441600D01*
X177314000Y-51282850D01*
X177317072Y-50568600D01*
X177304812Y-50444118D01*
X177268502Y-50324420D01*
X177209537Y-50214106D01*
X177130185Y-50117415D01*
X177033494Y-50038063D01*
X176923180Y-49979098D01*
X176803482Y-49942788D01*
X176679000Y-49930528D01*
X176314750Y-49933600D01*
X176156000Y-50092350D01*
X175902000Y-50092350D01*
X175743250Y-49933600D01*
X175379000Y-49930528D01*
X175254518Y-49942788D01*
X175134820Y-49979098D01*
X175024506Y-50038063D01*
X174927815Y-50117415D01*
X174879000Y-50176896D01*
X174830185Y-50117415D01*
X174733494Y-50038063D01*
X174623180Y-49979098D01*
X174503482Y-49942788D01*
X174379000Y-49930528D01*
X173079000Y-49930528D01*
X172954518Y-49942788D01*
X172834820Y-49979098D01*
X172724506Y-50038063D01*
X172627815Y-50117415D01*
X172548463Y-50214106D01*
X172489498Y-50324420D01*
X172453188Y-50444118D01*
X172440928Y-50568600D01*
X172440928Y-52568600D01*
X172453188Y-52693082D01*
X172489498Y-52812780D01*
X172548463Y-52923094D01*
X172627815Y-53019785D01*
X172724506Y-53099137D01*
X172794000Y-53136283D01*
X172793999Y-56791278D01*
X172790323Y-56828601D01*
X172793999Y-56865923D01*
X172793999Y-56865933D01*
X172804996Y-56977586D01*
X172842874Y-57102454D01*
X172848453Y-57120847D01*
X172919025Y-57252877D01*
X172936359Y-57273998D01*
X173013998Y-57368602D01*
X173043002Y-57392405D01*
X173055195Y-57404598D01*
X173078998Y-57433602D01*
X173194723Y-57528575D01*
X173326752Y-57599147D01*
X173470013Y-57642604D01*
X173581666Y-57653601D01*
X173581677Y-57653601D01*
X173618999Y-57657277D01*
X173656322Y-57653601D01*
X175107900Y-57653601D01*
X175728727Y-58274428D01*
X174744000Y-58274428D01*
X174619518Y-58286688D01*
X174499820Y-58322998D01*
X174389506Y-58381963D01*
X174292815Y-58461315D01*
X174244000Y-58520796D01*
X174195185Y-58461315D01*
X174098494Y-58381963D01*
X173988180Y-58322998D01*
X173868482Y-58286688D01*
X173744000Y-58274428D01*
X173379750Y-58277500D01*
X173221000Y-58436250D01*
X173221000Y-59785500D01*
X173241000Y-59785500D01*
X173241000Y-60039500D01*
X173221000Y-60039500D01*
X173221000Y-61388750D01*
X173379750Y-61547500D01*
X173744000Y-61550572D01*
X173868482Y-61538312D01*
X173988180Y-61502002D01*
X174098494Y-61443037D01*
X174195185Y-61363685D01*
X174244000Y-61304204D01*
X174292815Y-61363685D01*
X174389506Y-61443037D01*
X174499820Y-61502002D01*
X174619518Y-61538312D01*
X174744000Y-61550572D01*
X174809001Y-61550572D01*
X174809001Y-62276299D01*
X174529750Y-62277500D01*
X174371000Y-62436250D01*
X174371000Y-63785500D01*
X174391000Y-63785500D01*
X174391000Y-64039500D01*
X174371000Y-64039500D01*
X174371000Y-65388750D01*
X174529750Y-65547500D01*
X174809002Y-65548701D01*
X174809002Y-66671122D01*
X174804023Y-66626123D01*
X174765612Y-66507082D01*
X174704715Y-66397823D01*
X174623673Y-66302544D01*
X174525600Y-66224906D01*
X174414265Y-66167892D01*
X174293946Y-66133695D01*
X174169268Y-66123628D01*
X173882050Y-66126601D01*
X173723300Y-66285351D01*
X173723300Y-66888601D01*
X173743300Y-66888601D01*
X173743300Y-67091801D01*
X173723300Y-67091801D01*
X173723300Y-67137201D01*
X173469300Y-67137201D01*
X173469300Y-67091801D01*
X172535850Y-67091801D01*
X172377100Y-67250551D01*
X172388577Y-67354279D01*
X172426988Y-67473320D01*
X172487885Y-67582579D01*
X172536679Y-67639945D01*
X172481563Y-67707105D01*
X172422598Y-67817419D01*
X172386288Y-67937117D01*
X172374028Y-68061599D01*
X172374028Y-68437670D01*
X171995788Y-68815910D01*
X171966790Y-68839708D01*
X171942992Y-68868706D01*
X171942991Y-68868707D01*
X171871816Y-68955433D01*
X171801244Y-69087463D01*
X171772265Y-69182999D01*
X171757788Y-69230723D01*
X171749638Y-69313475D01*
X171743114Y-69379709D01*
X171746791Y-69417041D01*
X171746790Y-70432267D01*
X171743114Y-70469590D01*
X171746790Y-70506912D01*
X171746790Y-70506922D01*
X171757787Y-70618575D01*
X171796454Y-70746046D01*
X171801244Y-70761836D01*
X171871816Y-70893866D01*
X171895829Y-70923125D01*
X171966789Y-71009591D01*
X171995793Y-71033394D01*
X172267996Y-71305597D01*
X172291799Y-71334601D01*
X172311103Y-71350443D01*
X172326121Y-71378540D01*
X172423817Y-71497583D01*
X172542860Y-71595279D01*
X172678675Y-71667874D01*
X172826043Y-71712577D01*
X172979300Y-71727672D01*
X172989471Y-71727672D01*
X175012528Y-73750730D01*
X175012528Y-74539001D01*
X175029592Y-74712255D01*
X175080128Y-74878851D01*
X175162195Y-75032387D01*
X175272638Y-75166962D01*
X175407213Y-75277405D01*
X175560749Y-75359472D01*
X175727345Y-75410008D01*
X175900599Y-75427072D01*
X176600601Y-75427072D01*
X176773855Y-75410008D01*
X176940451Y-75359472D01*
X177093987Y-75277405D01*
X177228562Y-75166962D01*
X177339005Y-75032387D01*
X177341567Y-75027594D01*
X177467126Y-75152078D01*
X177670067Y-75286421D01*
X177895318Y-75378591D01*
X177932991Y-75382462D01*
X178123600Y-75257731D01*
X178123600Y-74041000D01*
X178103600Y-74041000D01*
X178103600Y-73787000D01*
X178123600Y-73787000D01*
X178123600Y-73767000D01*
X178377600Y-73767000D01*
X178377600Y-73787000D01*
X178397600Y-73787000D01*
X178397600Y-74041000D01*
X178377600Y-74041000D01*
X178377600Y-75257731D01*
X178568209Y-75382462D01*
X178605882Y-75378591D01*
X178831133Y-75286421D01*
X179034074Y-75152078D01*
X179206907Y-74980725D01*
X179250120Y-74916651D01*
X179373099Y-75066502D01*
X179561152Y-75220833D01*
X179775700Y-75335511D01*
X180008499Y-75406130D01*
X180250600Y-75429975D01*
X180492702Y-75406130D01*
X180725501Y-75335511D01*
X180940049Y-75220833D01*
X181128102Y-75066502D01*
X181250601Y-74917237D01*
X181373099Y-75066502D01*
X181561152Y-75220833D01*
X181775700Y-75335511D01*
X182008499Y-75406130D01*
X182250600Y-75429975D01*
X182492702Y-75406130D01*
X182627145Y-75365347D01*
X183362220Y-76100422D01*
X183386018Y-76129420D01*
X183501743Y-76224393D01*
X183633772Y-76294965D01*
X183777033Y-76338422D01*
X183888686Y-76349419D01*
X183888695Y-76349419D01*
X183926018Y-76353095D01*
X183963341Y-76349419D01*
X193862420Y-76349419D01*
X193899742Y-76353095D01*
X193937064Y-76349419D01*
X193937075Y-76349419D01*
X194048728Y-76338422D01*
X194191989Y-76294965D01*
X194324018Y-76224393D01*
X194439743Y-76129420D01*
X194463546Y-76100417D01*
X195402614Y-75161349D01*
X195431611Y-75137552D01*
X195526584Y-75021827D01*
X195597156Y-74889798D01*
X195640613Y-74746537D01*
X195651610Y-74634884D01*
X195651610Y-74634875D01*
X195655286Y-74597552D01*
X195651610Y-74560229D01*
X195651610Y-71993932D01*
X195655286Y-71956609D01*
X195651610Y-71919286D01*
X195651610Y-71919277D01*
X195641464Y-71816265D01*
X196355000Y-72529802D01*
X196355000Y-72591939D01*
X196394774Y-72791898D01*
X196472795Y-72980256D01*
X196586063Y-73149774D01*
X196730226Y-73293937D01*
X196899744Y-73407205D01*
X197088102Y-73485226D01*
X197288061Y-73525000D01*
X197491939Y-73525000D01*
X197691898Y-73485226D01*
X197880256Y-73407205D01*
X198049774Y-73293937D01*
X198193937Y-73149774D01*
X198307205Y-72980256D01*
X198385226Y-72791898D01*
X198425000Y-72591939D01*
X198425000Y-72388061D01*
X198385226Y-72188102D01*
X198307205Y-71999744D01*
X198193937Y-71830226D01*
X198049774Y-71686063D01*
X197880256Y-71572795D01*
X197691898Y-71494774D01*
X197491939Y-71455000D01*
X197429802Y-71455000D01*
X197259003Y-71284201D01*
X198583079Y-71284201D01*
X198620401Y-71287877D01*
X198657723Y-71284201D01*
X198657734Y-71284201D01*
X198769387Y-71273204D01*
X198912648Y-71229747D01*
X199044677Y-71159175D01*
X199160402Y-71064202D01*
X199184205Y-71035198D01*
X200568905Y-69650499D01*
X200597902Y-69626702D01*
X200641141Y-69574015D01*
X200692875Y-69510978D01*
X200763447Y-69378948D01*
X200764925Y-69374075D01*
X200806904Y-69235687D01*
X200817901Y-69124034D01*
X200817901Y-69124024D01*
X200821577Y-69086701D01*
X200817901Y-69049379D01*
X200817901Y-67962124D01*
X200821577Y-67924801D01*
X200817901Y-67887478D01*
X200817901Y-67887469D01*
X200806904Y-67775816D01*
X200763447Y-67632555D01*
X200692875Y-67500526D01*
X200676440Y-67480500D01*
X200621700Y-67413798D01*
X200621696Y-67413794D01*
X200597902Y-67384801D01*
X200568909Y-67361007D01*
X200370972Y-67163071D01*
X200370972Y-66787001D01*
X200358712Y-66662519D01*
X200322402Y-66542821D01*
X200263437Y-66432507D01*
X200184085Y-66335816D01*
X200087394Y-66256464D01*
X199977080Y-66197499D01*
X199857382Y-66161189D01*
X199732900Y-66148929D01*
X198564500Y-66148929D01*
X198440018Y-66161189D01*
X198320320Y-66197499D01*
X198210006Y-66256464D01*
X198113315Y-66335816D01*
X198033963Y-66432507D01*
X197974998Y-66542821D01*
X197938688Y-66662519D01*
X197926428Y-66787001D01*
X197926428Y-66798928D01*
X196811900Y-66798928D01*
X196690000Y-66810934D01*
X196690000Y-64849000D01*
X196862928Y-64849000D01*
X196875188Y-64973482D01*
X196911498Y-65093180D01*
X196970463Y-65203494D01*
X197049815Y-65300185D01*
X197146506Y-65379537D01*
X197256820Y-65438502D01*
X197376518Y-65474812D01*
X197501000Y-65487072D01*
X198215250Y-65484000D01*
X198374000Y-65325250D01*
X198374000Y-63976000D01*
X198628000Y-63976000D01*
X198628000Y-65325250D01*
X198786750Y-65484000D01*
X199501000Y-65487072D01*
X199625482Y-65474812D01*
X199745180Y-65438502D01*
X199855494Y-65379537D01*
X199952185Y-65300185D01*
X200031537Y-65203494D01*
X200090502Y-65093180D01*
X200126812Y-64973482D01*
X200139072Y-64849000D01*
X200136000Y-64134750D01*
X199977250Y-63976000D01*
X198628000Y-63976000D01*
X198374000Y-63976000D01*
X197024750Y-63976000D01*
X196866000Y-64134750D01*
X196862928Y-64849000D01*
X196690000Y-64849000D01*
X196690000Y-63819803D01*
X196906277Y-63603527D01*
X197024750Y-63722000D01*
X198374000Y-63722000D01*
X198374000Y-62372750D01*
X198628000Y-62372750D01*
X198628000Y-63722000D01*
X199977250Y-63722000D01*
X200136000Y-63563250D01*
X200139072Y-62849000D01*
X200126812Y-62724518D01*
X200090502Y-62604820D01*
X200031537Y-62494506D01*
X199952185Y-62397815D01*
X199855494Y-62318463D01*
X199745180Y-62259498D01*
X199625482Y-62223188D01*
X199501000Y-62210928D01*
X198786750Y-62214000D01*
X198628000Y-62372750D01*
X198374000Y-62372750D01*
X198255527Y-62254277D01*
X199022732Y-61487072D01*
X200301000Y-61487072D01*
X200425482Y-61474812D01*
X200545180Y-61438502D01*
X200655494Y-61379537D01*
X200752185Y-61300185D01*
X200831537Y-61203494D01*
X200890502Y-61093180D01*
X200926812Y-60973482D01*
X200939072Y-60849000D01*
X200939072Y-58849000D01*
X200926812Y-58724518D01*
X200890502Y-58604820D01*
X200831537Y-58494506D01*
X200752185Y-58397815D01*
X200655494Y-58318463D01*
X200545180Y-58259498D01*
X200425482Y-58223188D01*
X200301000Y-58210928D01*
X199001000Y-58210928D01*
X198876518Y-58223188D01*
X198756820Y-58259498D01*
X198646506Y-58318463D01*
X198549815Y-58397815D01*
X198501000Y-58457296D01*
X198452185Y-58397815D01*
X198355494Y-58318463D01*
X198245180Y-58259498D01*
X198125482Y-58223188D01*
X198001000Y-58210928D01*
X197636750Y-58214000D01*
X197478000Y-58372750D01*
X197478000Y-59722000D01*
X197498000Y-59722000D01*
X197498000Y-59976000D01*
X197478000Y-59976000D01*
X197478000Y-59996000D01*
X197224000Y-59996000D01*
X197224000Y-59976000D01*
X197204000Y-59976000D01*
X197204000Y-59722000D01*
X197224000Y-59722000D01*
X197224000Y-58372750D01*
X197135999Y-58284749D01*
X197135999Y-57231348D01*
X197681850Y-57229000D01*
X197840600Y-57070250D01*
X197840600Y-55721000D01*
X198094600Y-55721000D01*
X198094600Y-57070250D01*
X198253350Y-57229000D01*
X198967600Y-57232072D01*
X199092082Y-57219812D01*
X199211780Y-57183502D01*
X199322094Y-57124537D01*
X199418785Y-57045185D01*
X199498137Y-56948494D01*
X199557102Y-56838180D01*
X199593412Y-56718482D01*
X199605672Y-56594000D01*
X199602600Y-55879750D01*
X199443850Y-55721000D01*
X198094600Y-55721000D01*
X197840600Y-55721000D01*
X197820600Y-55721000D01*
X197820600Y-55467000D01*
X197840600Y-55467000D01*
X197840600Y-54117750D01*
X198094600Y-54117750D01*
X198094600Y-55467000D01*
X199443850Y-55467000D01*
X199602600Y-55308250D01*
X199605672Y-54594000D01*
X199593412Y-54469518D01*
X199557102Y-54349820D01*
X199498137Y-54239506D01*
X199418785Y-54142815D01*
X199322094Y-54063463D01*
X199211780Y-54004498D01*
X199092082Y-53968188D01*
X198967600Y-53955928D01*
X198253350Y-53959000D01*
X198094600Y-54117750D01*
X197840600Y-54117750D01*
X197681850Y-53959000D01*
X197135999Y-53956652D01*
X197135999Y-53232072D01*
X197467600Y-53232072D01*
X197592082Y-53219812D01*
X197711780Y-53183502D01*
X197822094Y-53124537D01*
X197918785Y-53045185D01*
X197967600Y-52985704D01*
X198016415Y-53045185D01*
X198113106Y-53124537D01*
X198223420Y-53183502D01*
X198343118Y-53219812D01*
X198467600Y-53232072D01*
X198831850Y-53229000D01*
X198990600Y-53070250D01*
X198990600Y-51721000D01*
X199244600Y-51721000D01*
X199244600Y-53070250D01*
X199403350Y-53229000D01*
X199767600Y-53232072D01*
X199892082Y-53219812D01*
X200011780Y-53183502D01*
X200122094Y-53124537D01*
X200218785Y-53045185D01*
X200298137Y-52948494D01*
X200357102Y-52838180D01*
X200393412Y-52718482D01*
X200405672Y-52594000D01*
X200402600Y-51879750D01*
X200243850Y-51721000D01*
X199244600Y-51721000D01*
X198990600Y-51721000D01*
X198970600Y-51721000D01*
X198970600Y-51467000D01*
X198990600Y-51467000D01*
X198990600Y-50117750D01*
X199244600Y-50117750D01*
X199244600Y-51467000D01*
X200243850Y-51467000D01*
X200402600Y-51308250D01*
X200405672Y-50594000D01*
X200393412Y-50469518D01*
X200357102Y-50349820D01*
X200298137Y-50239506D01*
X200218785Y-50142815D01*
X200122094Y-50063463D01*
X200011780Y-50004498D01*
X199892082Y-49968188D01*
X199767600Y-49955928D01*
X199403350Y-49959000D01*
X199244600Y-50117750D01*
X198990600Y-50117750D01*
X198831850Y-49959000D01*
X198467600Y-49955928D01*
X198343118Y-49968188D01*
X198223420Y-50004498D01*
X198113106Y-50063463D01*
X198016415Y-50142815D01*
X197967600Y-50202296D01*
X197918785Y-50142815D01*
X197822094Y-50063463D01*
X197711780Y-50004498D01*
X197592082Y-49968188D01*
X197467600Y-49955928D01*
X196167600Y-49955928D01*
X196043118Y-49968188D01*
X195923420Y-50004498D01*
X195813106Y-50063463D01*
X195716415Y-50142815D01*
X195637063Y-50239506D01*
X195578098Y-50349820D01*
X195541788Y-50469518D01*
X195529528Y-50594000D01*
X195529528Y-52594000D01*
X195541788Y-52718482D01*
X195578098Y-52838180D01*
X195616000Y-52909088D01*
X195616000Y-53063199D01*
X195572303Y-53019502D01*
X195548501Y-52990499D01*
X195432776Y-52895526D01*
X195300747Y-52824954D01*
X195157486Y-52781497D01*
X195045833Y-52770500D01*
X195045822Y-52770500D01*
X195008500Y-52766824D01*
X194971178Y-52770500D01*
X193574200Y-52770500D01*
X193574200Y-50077972D01*
X193754000Y-50077972D01*
X193816537Y-50074900D01*
X193831169Y-50073459D01*
X193953863Y-50049053D01*
X193967932Y-50044785D01*
X194083486Y-49996920D01*
X194096453Y-49989989D01*
X194200456Y-49920497D01*
X194211821Y-49911170D01*
X194300270Y-49822721D01*
X194309597Y-49811356D01*
X194379089Y-49707353D01*
X194386020Y-49694386D01*
X194433885Y-49578832D01*
X194438153Y-49564763D01*
X194462559Y-49442069D01*
X194464000Y-49427437D01*
X194467072Y-49364900D01*
X194467072Y-46913000D01*
X199598013Y-46913000D01*
X199648894Y-47098033D01*
X199671112Y-47155987D01*
X199692532Y-47214281D01*
X199696750Y-47222864D01*
X199870857Y-47570919D01*
X199903911Y-47623458D01*
X199936242Y-47676475D01*
X199942048Y-47684075D01*
X200180443Y-47991685D01*
X200223086Y-48036817D01*
X200265086Y-48082530D01*
X200272257Y-48088859D01*
X200565860Y-48344305D01*
X200616475Y-48380308D01*
X200666537Y-48416980D01*
X200674801Y-48421795D01*
X201012429Y-48615348D01*
X201069042Y-48640820D01*
X201125303Y-48667084D01*
X201134345Y-48670202D01*
X201422812Y-48767419D01*
X201422800Y-60561846D01*
X201432712Y-60662482D01*
X201471881Y-60791605D01*
X201535488Y-60910606D01*
X201621089Y-61014910D01*
X201725393Y-61100511D01*
X201844394Y-61164118D01*
X201973517Y-61203287D01*
X202026454Y-61208501D01*
X202026290Y-61346514D01*
X201973518Y-61351712D01*
X201909818Y-61371035D01*
X201909814Y-61371036D01*
X201909811Y-61371037D01*
X201844395Y-61390881D01*
X201725394Y-61454488D01*
X201621090Y-61540089D01*
X201535489Y-61644393D01*
X201471882Y-61763394D01*
X201432713Y-61892517D01*
X201422801Y-61993153D01*
X201422800Y-65057646D01*
X201432712Y-65158282D01*
X201471881Y-65287405D01*
X201535488Y-65406406D01*
X201621089Y-65510710D01*
X201725393Y-65596312D01*
X201844394Y-65659919D01*
X201973517Y-65699088D01*
X202021121Y-65703777D01*
X202020956Y-65842840D01*
X201973517Y-65847512D01*
X201844394Y-65886681D01*
X201725393Y-65950288D01*
X201621089Y-66035890D01*
X201535488Y-66140194D01*
X201471881Y-66259195D01*
X201432712Y-66388318D01*
X201422800Y-66488954D01*
X201422801Y-75245887D01*
X201006293Y-75367899D01*
X200948724Y-75391074D01*
X200890790Y-75413461D01*
X200882277Y-75417822D01*
X200449249Y-75643504D01*
X200397254Y-75677435D01*
X200344792Y-75710635D01*
X200337289Y-75716566D01*
X199956342Y-76022061D01*
X199911929Y-76065443D01*
X199866915Y-76108201D01*
X199860707Y-76115477D01*
X199546353Y-76489145D01*
X199511202Y-76540343D01*
X199475360Y-76591016D01*
X199470683Y-76599359D01*
X199234896Y-77026971D01*
X199210350Y-77084041D01*
X199185043Y-77140689D01*
X199182075Y-77149781D01*
X199033835Y-77615046D01*
X199032153Y-77622911D01*
X173665430Y-77610788D01*
X173661825Y-77592878D01*
X173658968Y-77583750D01*
X173509843Y-77118767D01*
X173485194Y-77061757D01*
X173461363Y-77004455D01*
X173456788Y-76996056D01*
X173220186Y-76568895D01*
X173184943Y-76517772D01*
X173150427Y-76466177D01*
X173144311Y-76458832D01*
X173144307Y-76458826D01*
X173144302Y-76458821D01*
X172829243Y-76085756D01*
X172784738Y-76042449D01*
X172740860Y-75998544D01*
X172733430Y-75992522D01*
X172351903Y-75687753D01*
X172299832Y-75653914D01*
X172248265Y-75619369D01*
X172239809Y-75614908D01*
X172239805Y-75614905D01*
X172239801Y-75614903D01*
X171806349Y-75390046D01*
X171748671Y-75366955D01*
X171691401Y-75343095D01*
X171682236Y-75340359D01*
X171220600Y-75206082D01*
X171220600Y-66729851D01*
X172377100Y-66729851D01*
X172535850Y-66888601D01*
X173469300Y-66888601D01*
X173469300Y-66285351D01*
X173310550Y-66126601D01*
X173023332Y-66123628D01*
X172898654Y-66133695D01*
X172778335Y-66167892D01*
X172667000Y-66224906D01*
X172568927Y-66302544D01*
X172487885Y-66397823D01*
X172426988Y-66507082D01*
X172388577Y-66626123D01*
X172377100Y-66729851D01*
X171220600Y-66729851D01*
X171220600Y-66514353D01*
X171210688Y-66413717D01*
X171171519Y-66284594D01*
X171107912Y-66165593D01*
X171022310Y-66061289D01*
X170918006Y-65975688D01*
X170799005Y-65912081D01*
X170669882Y-65872912D01*
X170642120Y-65870178D01*
X170642178Y-65724929D01*
X170644482Y-65724702D01*
X170773605Y-65685533D01*
X170892606Y-65621926D01*
X170996910Y-65536325D01*
X171082511Y-65432021D01*
X171146118Y-65313020D01*
X171185287Y-65183897D01*
X171195199Y-65083261D01*
X171195199Y-64912500D01*
X172605928Y-64912500D01*
X172618188Y-65036982D01*
X172654498Y-65156680D01*
X172713463Y-65266994D01*
X172792815Y-65363685D01*
X172889506Y-65443037D01*
X172999820Y-65502002D01*
X173119518Y-65538312D01*
X173244000Y-65550572D01*
X173958250Y-65547500D01*
X174117000Y-65388750D01*
X174117000Y-64039500D01*
X172767750Y-64039500D01*
X172609000Y-64198250D01*
X172605928Y-64912500D01*
X171195199Y-64912500D01*
X171195200Y-62912500D01*
X172605928Y-62912500D01*
X172609000Y-63626750D01*
X172767750Y-63785500D01*
X174117000Y-63785500D01*
X174117000Y-62436250D01*
X173958250Y-62277500D01*
X173244000Y-62274428D01*
X173119518Y-62286688D01*
X172999820Y-62322998D01*
X172889506Y-62381963D01*
X172792815Y-62461315D01*
X172713463Y-62558006D01*
X172654498Y-62668320D01*
X172618188Y-62788018D01*
X172605928Y-62912500D01*
X171195200Y-62912500D01*
X171195201Y-62018555D01*
X171185289Y-61917919D01*
X171146120Y-61788796D01*
X171082513Y-61669795D01*
X170996912Y-61565491D01*
X170892608Y-61479890D01*
X170773607Y-61416283D01*
X170644484Y-61377114D01*
X170643894Y-61377056D01*
X170643952Y-61231242D01*
X170669882Y-61228688D01*
X170799005Y-61189519D01*
X170918006Y-61125912D01*
X171022310Y-61040311D01*
X171107912Y-60936007D01*
X171120476Y-60912500D01*
X171805928Y-60912500D01*
X171818188Y-61036982D01*
X171854498Y-61156680D01*
X171913463Y-61266994D01*
X171992815Y-61363685D01*
X172089506Y-61443037D01*
X172199820Y-61502002D01*
X172319518Y-61538312D01*
X172444000Y-61550572D01*
X172808250Y-61547500D01*
X172967000Y-61388750D01*
X172967000Y-60039500D01*
X171967750Y-60039500D01*
X171809000Y-60198250D01*
X171805928Y-60912500D01*
X171120476Y-60912500D01*
X171171519Y-60817006D01*
X171210688Y-60687883D01*
X171220600Y-60587247D01*
X171220600Y-58912500D01*
X171805928Y-58912500D01*
X171809000Y-59626750D01*
X171967750Y-59785500D01*
X172967000Y-59785500D01*
X172967000Y-58436250D01*
X172808250Y-58277500D01*
X172444000Y-58274428D01*
X172319518Y-58286688D01*
X172199820Y-58322998D01*
X172089506Y-58381963D01*
X171992815Y-58461315D01*
X171913463Y-58558006D01*
X171854498Y-58668320D01*
X171818188Y-58788018D01*
X171805928Y-58912500D01*
X171220600Y-58912500D01*
X171220600Y-48750765D01*
X171422511Y-48693858D01*
X171480338Y-48671266D01*
X171538476Y-48649482D01*
X171547033Y-48645209D01*
X171893972Y-48468892D01*
X171946290Y-48435510D01*
X171999111Y-48402836D01*
X172006674Y-48396983D01*
X172312761Y-48156635D01*
X172357612Y-48113714D01*
X172403065Y-48071418D01*
X172409348Y-48064206D01*
X172662921Y-47768984D01*
X172698575Y-47718178D01*
X172734956Y-47667846D01*
X172739718Y-47659552D01*
X172931119Y-47320700D01*
X172956222Y-47263944D01*
X172982136Y-47207500D01*
X172985196Y-47198438D01*
X173079375Y-46913000D01*
X177975928Y-46913000D01*
X177975928Y-49364900D01*
%TA.AperFunction,Conductor*%
D20*
G36*
X177975928Y-49364900D02*
G01*
X177979000Y-49427437D01*
X177980441Y-49442069D01*
X178004847Y-49564763D01*
X178009115Y-49578832D01*
X178056980Y-49694386D01*
X178063911Y-49707353D01*
X178133403Y-49811356D01*
X178142730Y-49822721D01*
X178231179Y-49911170D01*
X178242544Y-49920497D01*
X178346547Y-49989989D01*
X178359514Y-49996920D01*
X178475068Y-50044785D01*
X178489137Y-50049053D01*
X178611831Y-50073459D01*
X178626463Y-50074900D01*
X178689000Y-50077972D01*
X180568600Y-50077972D01*
X180631137Y-50074900D01*
X180645769Y-50073459D01*
X180768463Y-50049053D01*
X180782532Y-50044785D01*
X180898086Y-49996920D01*
X180911053Y-49989989D01*
X181015056Y-49920497D01*
X181026421Y-49911170D01*
X181114870Y-49822721D01*
X181124197Y-49811356D01*
X181128800Y-49804467D01*
X181133403Y-49811356D01*
X181142730Y-49822721D01*
X181231179Y-49911170D01*
X181242544Y-49920497D01*
X181346547Y-49989989D01*
X181359514Y-49996920D01*
X181475068Y-50044785D01*
X181489137Y-50049053D01*
X181611831Y-50073459D01*
X181626463Y-50074900D01*
X181689000Y-50077972D01*
X181868800Y-50077972D01*
X181868801Y-52174893D01*
X181777551Y-52223667D01*
X181623691Y-52349936D01*
X181597537Y-52301006D01*
X181518185Y-52204315D01*
X181421494Y-52124963D01*
X181311180Y-52065998D01*
X181191482Y-52029688D01*
X181067000Y-52017428D01*
X180752750Y-52020500D01*
X180594000Y-52179250D01*
X180594000Y-53403500D01*
X180614000Y-53403500D01*
X180614000Y-53657500D01*
X180594000Y-53657500D01*
X180594000Y-54881750D01*
X180752750Y-55040500D01*
X181067000Y-55043572D01*
X181097644Y-55040554D01*
X179311271Y-56826928D01*
X179280500Y-56826928D01*
X179127243Y-56842023D01*
X178979875Y-56886726D01*
X178943000Y-56906436D01*
X178906125Y-56886726D01*
X178758757Y-56842023D01*
X178605500Y-56826928D01*
X178310500Y-56826928D01*
X178157243Y-56842023D01*
X178009875Y-56886726D01*
X177874060Y-56959321D01*
X177755017Y-57057017D01*
X177657321Y-57176060D01*
X177584726Y-57311875D01*
X177540023Y-57459243D01*
X177524928Y-57612500D01*
X177524928Y-57921027D01*
X176450451Y-56846550D01*
X176468502Y-56812780D01*
X176504812Y-56693082D01*
X176517072Y-56568600D01*
X176514000Y-55854350D01*
X176355250Y-55695600D01*
X175006000Y-55695600D01*
X175006000Y-55715600D01*
X174752000Y-55715600D01*
X174752000Y-55695600D01*
X174732000Y-55695600D01*
X174732000Y-55441600D01*
X174752000Y-55441600D01*
X174752000Y-54092350D01*
X175006000Y-54092350D01*
X175006000Y-55441600D01*
X176355250Y-55441600D01*
X176514000Y-55282850D01*
X176517072Y-54568600D01*
X176504812Y-54444118D01*
X176493098Y-54405500D01*
X179228928Y-54405500D01*
X179241188Y-54529982D01*
X179277498Y-54649680D01*
X179336463Y-54759994D01*
X179415815Y-54856685D01*
X179512506Y-54936037D01*
X179622820Y-54995002D01*
X179742518Y-55031312D01*
X179867000Y-55043572D01*
X180181250Y-55040500D01*
X180340000Y-54881750D01*
X180340000Y-53657500D01*
X179390750Y-53657500D01*
X179232000Y-53816250D01*
X179228928Y-54405500D01*
X176493098Y-54405500D01*
X176468502Y-54324420D01*
X176409537Y-54214106D01*
X176330185Y-54117415D01*
X176233494Y-54038063D01*
X176123180Y-53979098D01*
X176003482Y-53942788D01*
X175879000Y-53930528D01*
X175164750Y-53933600D01*
X175006000Y-54092350D01*
X174752000Y-54092350D01*
X174593250Y-53933600D01*
X174313999Y-53932399D01*
X174313999Y-53206672D01*
X174379000Y-53206672D01*
X174503482Y-53194412D01*
X174623180Y-53158102D01*
X174733494Y-53099137D01*
X174830185Y-53019785D01*
X174879000Y-52960304D01*
X174927815Y-53019785D01*
X175024506Y-53099137D01*
X175134820Y-53158102D01*
X175254518Y-53194412D01*
X175379000Y-53206672D01*
X175743250Y-53203600D01*
X175902000Y-53044850D01*
X175902000Y-51695600D01*
X176156000Y-51695600D01*
X176156000Y-53044850D01*
X176314750Y-53203600D01*
X176679000Y-53206672D01*
X176803482Y-53194412D01*
X176923180Y-53158102D01*
X177033494Y-53099137D01*
X177130185Y-53019785D01*
X177209537Y-52923094D01*
X177268502Y-52812780D01*
X177304812Y-52693082D01*
X177308513Y-52655500D01*
X179228928Y-52655500D01*
X179232000Y-53244750D01*
X179390750Y-53403500D01*
X180340000Y-53403500D01*
X180340000Y-52179250D01*
X180181250Y-52020500D01*
X179867000Y-52017428D01*
X179742518Y-52029688D01*
X179622820Y-52065998D01*
X179512506Y-52124963D01*
X179415815Y-52204315D01*
X179336463Y-52301006D01*
X179277498Y-52411320D01*
X179241188Y-52531018D01*
X179228928Y-52655500D01*
X177308513Y-52655500D01*
X177317072Y-52568600D01*
X177314000Y-51854350D01*
X177155250Y-51695600D01*
X176156000Y-51695600D01*
X175902000Y-51695600D01*
X175882000Y-51695600D01*
X175882000Y-51441600D01*
X175902000Y-51441600D01*
X175902000Y-50092350D01*
X176156000Y-50092350D01*
X176156000Y-51441600D01*
X177155250Y-51441600D01*
X177314000Y-51282850D01*
X177317072Y-50568600D01*
X177304812Y-50444118D01*
X177268502Y-50324420D01*
X177209537Y-50214106D01*
X177130185Y-50117415D01*
X177033494Y-50038063D01*
X176923180Y-49979098D01*
X176803482Y-49942788D01*
X176679000Y-49930528D01*
X176314750Y-49933600D01*
X176156000Y-50092350D01*
X175902000Y-50092350D01*
X175743250Y-49933600D01*
X175379000Y-49930528D01*
X175254518Y-49942788D01*
X175134820Y-49979098D01*
X175024506Y-50038063D01*
X174927815Y-50117415D01*
X174879000Y-50176896D01*
X174830185Y-50117415D01*
X174733494Y-50038063D01*
X174623180Y-49979098D01*
X174503482Y-49942788D01*
X174379000Y-49930528D01*
X173079000Y-49930528D01*
X172954518Y-49942788D01*
X172834820Y-49979098D01*
X172724506Y-50038063D01*
X172627815Y-50117415D01*
X172548463Y-50214106D01*
X172489498Y-50324420D01*
X172453188Y-50444118D01*
X172440928Y-50568600D01*
X172440928Y-52568600D01*
X172453188Y-52693082D01*
X172489498Y-52812780D01*
X172548463Y-52923094D01*
X172627815Y-53019785D01*
X172724506Y-53099137D01*
X172794000Y-53136283D01*
X172793999Y-56791278D01*
X172790323Y-56828601D01*
X172793999Y-56865923D01*
X172793999Y-56865933D01*
X172804996Y-56977586D01*
X172842874Y-57102454D01*
X172848453Y-57120847D01*
X172919025Y-57252877D01*
X172936359Y-57273998D01*
X173013998Y-57368602D01*
X173043002Y-57392405D01*
X173055195Y-57404598D01*
X173078998Y-57433602D01*
X173194723Y-57528575D01*
X173326752Y-57599147D01*
X173470013Y-57642604D01*
X173581666Y-57653601D01*
X173581677Y-57653601D01*
X173618999Y-57657277D01*
X173656322Y-57653601D01*
X175107900Y-57653601D01*
X175728727Y-58274428D01*
X174744000Y-58274428D01*
X174619518Y-58286688D01*
X174499820Y-58322998D01*
X174389506Y-58381963D01*
X174292815Y-58461315D01*
X174244000Y-58520796D01*
X174195185Y-58461315D01*
X174098494Y-58381963D01*
X173988180Y-58322998D01*
X173868482Y-58286688D01*
X173744000Y-58274428D01*
X173379750Y-58277500D01*
X173221000Y-58436250D01*
X173221000Y-59785500D01*
X173241000Y-59785500D01*
X173241000Y-60039500D01*
X173221000Y-60039500D01*
X173221000Y-61388750D01*
X173379750Y-61547500D01*
X173744000Y-61550572D01*
X173868482Y-61538312D01*
X173988180Y-61502002D01*
X174098494Y-61443037D01*
X174195185Y-61363685D01*
X174244000Y-61304204D01*
X174292815Y-61363685D01*
X174389506Y-61443037D01*
X174499820Y-61502002D01*
X174619518Y-61538312D01*
X174744000Y-61550572D01*
X174809001Y-61550572D01*
X174809001Y-62276299D01*
X174529750Y-62277500D01*
X174371000Y-62436250D01*
X174371000Y-63785500D01*
X174391000Y-63785500D01*
X174391000Y-64039500D01*
X174371000Y-64039500D01*
X174371000Y-65388750D01*
X174529750Y-65547500D01*
X174809002Y-65548701D01*
X174809002Y-66671122D01*
X174804023Y-66626123D01*
X174765612Y-66507082D01*
X174704715Y-66397823D01*
X174623673Y-66302544D01*
X174525600Y-66224906D01*
X174414265Y-66167892D01*
X174293946Y-66133695D01*
X174169268Y-66123628D01*
X173882050Y-66126601D01*
X173723300Y-66285351D01*
X173723300Y-66888601D01*
X173743300Y-66888601D01*
X173743300Y-67091801D01*
X173723300Y-67091801D01*
X173723300Y-67137201D01*
X173469300Y-67137201D01*
X173469300Y-67091801D01*
X172535850Y-67091801D01*
X172377100Y-67250551D01*
X172388577Y-67354279D01*
X172426988Y-67473320D01*
X172487885Y-67582579D01*
X172536679Y-67639945D01*
X172481563Y-67707105D01*
X172422598Y-67817419D01*
X172386288Y-67937117D01*
X172374028Y-68061599D01*
X172374028Y-68437670D01*
X171995788Y-68815910D01*
X171966790Y-68839708D01*
X171942992Y-68868706D01*
X171942991Y-68868707D01*
X171871816Y-68955433D01*
X171801244Y-69087463D01*
X171772265Y-69182999D01*
X171757788Y-69230723D01*
X171749638Y-69313475D01*
X171743114Y-69379709D01*
X171746791Y-69417041D01*
X171746790Y-70432267D01*
X171743114Y-70469590D01*
X171746790Y-70506912D01*
X171746790Y-70506922D01*
X171757787Y-70618575D01*
X171796454Y-70746046D01*
X171801244Y-70761836D01*
X171871816Y-70893866D01*
X171895829Y-70923125D01*
X171966789Y-71009591D01*
X171995793Y-71033394D01*
X172267996Y-71305597D01*
X172291799Y-71334601D01*
X172311103Y-71350443D01*
X172326121Y-71378540D01*
X172423817Y-71497583D01*
X172542860Y-71595279D01*
X172678675Y-71667874D01*
X172826043Y-71712577D01*
X172979300Y-71727672D01*
X172989471Y-71727672D01*
X175012528Y-73750730D01*
X175012528Y-74539001D01*
X175029592Y-74712255D01*
X175080128Y-74878851D01*
X175162195Y-75032387D01*
X175272638Y-75166962D01*
X175407213Y-75277405D01*
X175560749Y-75359472D01*
X175727345Y-75410008D01*
X175900599Y-75427072D01*
X176600601Y-75427072D01*
X176773855Y-75410008D01*
X176940451Y-75359472D01*
X177093987Y-75277405D01*
X177228562Y-75166962D01*
X177339005Y-75032387D01*
X177341567Y-75027594D01*
X177467126Y-75152078D01*
X177670067Y-75286421D01*
X177895318Y-75378591D01*
X177932991Y-75382462D01*
X178123600Y-75257731D01*
X178123600Y-74041000D01*
X178103600Y-74041000D01*
X178103600Y-73787000D01*
X178123600Y-73787000D01*
X178123600Y-73767000D01*
X178377600Y-73767000D01*
X178377600Y-73787000D01*
X178397600Y-73787000D01*
X178397600Y-74041000D01*
X178377600Y-74041000D01*
X178377600Y-75257731D01*
X178568209Y-75382462D01*
X178605882Y-75378591D01*
X178831133Y-75286421D01*
X179034074Y-75152078D01*
X179206907Y-74980725D01*
X179250120Y-74916651D01*
X179373099Y-75066502D01*
X179561152Y-75220833D01*
X179775700Y-75335511D01*
X180008499Y-75406130D01*
X180250600Y-75429975D01*
X180492702Y-75406130D01*
X180725501Y-75335511D01*
X180940049Y-75220833D01*
X181128102Y-75066502D01*
X181250601Y-74917237D01*
X181373099Y-75066502D01*
X181561152Y-75220833D01*
X181775700Y-75335511D01*
X182008499Y-75406130D01*
X182250600Y-75429975D01*
X182492702Y-75406130D01*
X182627145Y-75365347D01*
X183362220Y-76100422D01*
X183386018Y-76129420D01*
X183501743Y-76224393D01*
X183633772Y-76294965D01*
X183777033Y-76338422D01*
X183888686Y-76349419D01*
X183888695Y-76349419D01*
X183926018Y-76353095D01*
X183963341Y-76349419D01*
X193862420Y-76349419D01*
X193899742Y-76353095D01*
X193937064Y-76349419D01*
X193937075Y-76349419D01*
X194048728Y-76338422D01*
X194191989Y-76294965D01*
X194324018Y-76224393D01*
X194439743Y-76129420D01*
X194463546Y-76100417D01*
X195402614Y-75161349D01*
X195431611Y-75137552D01*
X195526584Y-75021827D01*
X195597156Y-74889798D01*
X195640613Y-74746537D01*
X195651610Y-74634884D01*
X195651610Y-74634875D01*
X195655286Y-74597552D01*
X195651610Y-74560229D01*
X195651610Y-71993932D01*
X195655286Y-71956609D01*
X195651610Y-71919286D01*
X195651610Y-71919277D01*
X195641464Y-71816265D01*
X196355000Y-72529802D01*
X196355000Y-72591939D01*
X196394774Y-72791898D01*
X196472795Y-72980256D01*
X196586063Y-73149774D01*
X196730226Y-73293937D01*
X196899744Y-73407205D01*
X197088102Y-73485226D01*
X197288061Y-73525000D01*
X197491939Y-73525000D01*
X197691898Y-73485226D01*
X197880256Y-73407205D01*
X198049774Y-73293937D01*
X198193937Y-73149774D01*
X198307205Y-72980256D01*
X198385226Y-72791898D01*
X198425000Y-72591939D01*
X198425000Y-72388061D01*
X198385226Y-72188102D01*
X198307205Y-71999744D01*
X198193937Y-71830226D01*
X198049774Y-71686063D01*
X197880256Y-71572795D01*
X197691898Y-71494774D01*
X197491939Y-71455000D01*
X197429802Y-71455000D01*
X197259003Y-71284201D01*
X198583079Y-71284201D01*
X198620401Y-71287877D01*
X198657723Y-71284201D01*
X198657734Y-71284201D01*
X198769387Y-71273204D01*
X198912648Y-71229747D01*
X199044677Y-71159175D01*
X199160402Y-71064202D01*
X199184205Y-71035198D01*
X200568905Y-69650499D01*
X200597902Y-69626702D01*
X200641141Y-69574015D01*
X200692875Y-69510978D01*
X200763447Y-69378948D01*
X200764925Y-69374075D01*
X200806904Y-69235687D01*
X200817901Y-69124034D01*
X200817901Y-69124024D01*
X200821577Y-69086701D01*
X200817901Y-69049379D01*
X200817901Y-67962124D01*
X200821577Y-67924801D01*
X200817901Y-67887478D01*
X200817901Y-67887469D01*
X200806904Y-67775816D01*
X200763447Y-67632555D01*
X200692875Y-67500526D01*
X200676440Y-67480500D01*
X200621700Y-67413798D01*
X200621696Y-67413794D01*
X200597902Y-67384801D01*
X200568909Y-67361007D01*
X200370972Y-67163071D01*
X200370972Y-66787001D01*
X200358712Y-66662519D01*
X200322402Y-66542821D01*
X200263437Y-66432507D01*
X200184085Y-66335816D01*
X200087394Y-66256464D01*
X199977080Y-66197499D01*
X199857382Y-66161189D01*
X199732900Y-66148929D01*
X198564500Y-66148929D01*
X198440018Y-66161189D01*
X198320320Y-66197499D01*
X198210006Y-66256464D01*
X198113315Y-66335816D01*
X198033963Y-66432507D01*
X197974998Y-66542821D01*
X197938688Y-66662519D01*
X197926428Y-66787001D01*
X197926428Y-66798928D01*
X196811900Y-66798928D01*
X196690000Y-66810934D01*
X196690000Y-64849000D01*
X196862928Y-64849000D01*
X196875188Y-64973482D01*
X196911498Y-65093180D01*
X196970463Y-65203494D01*
X197049815Y-65300185D01*
X197146506Y-65379537D01*
X197256820Y-65438502D01*
X197376518Y-65474812D01*
X197501000Y-65487072D01*
X198215250Y-65484000D01*
X198374000Y-65325250D01*
X198374000Y-63976000D01*
X198628000Y-63976000D01*
X198628000Y-65325250D01*
X198786750Y-65484000D01*
X199501000Y-65487072D01*
X199625482Y-65474812D01*
X199745180Y-65438502D01*
X199855494Y-65379537D01*
X199952185Y-65300185D01*
X200031537Y-65203494D01*
X200090502Y-65093180D01*
X200126812Y-64973482D01*
X200139072Y-64849000D01*
X200136000Y-64134750D01*
X199977250Y-63976000D01*
X198628000Y-63976000D01*
X198374000Y-63976000D01*
X197024750Y-63976000D01*
X196866000Y-64134750D01*
X196862928Y-64849000D01*
X196690000Y-64849000D01*
X196690000Y-63819803D01*
X196906277Y-63603527D01*
X197024750Y-63722000D01*
X198374000Y-63722000D01*
X198374000Y-62372750D01*
X198628000Y-62372750D01*
X198628000Y-63722000D01*
X199977250Y-63722000D01*
X200136000Y-63563250D01*
X200139072Y-62849000D01*
X200126812Y-62724518D01*
X200090502Y-62604820D01*
X200031537Y-62494506D01*
X199952185Y-62397815D01*
X199855494Y-62318463D01*
X199745180Y-62259498D01*
X199625482Y-62223188D01*
X199501000Y-62210928D01*
X198786750Y-62214000D01*
X198628000Y-62372750D01*
X198374000Y-62372750D01*
X198255527Y-62254277D01*
X199022732Y-61487072D01*
X200301000Y-61487072D01*
X200425482Y-61474812D01*
X200545180Y-61438502D01*
X200655494Y-61379537D01*
X200752185Y-61300185D01*
X200831537Y-61203494D01*
X200890502Y-61093180D01*
X200926812Y-60973482D01*
X200939072Y-60849000D01*
X200939072Y-58849000D01*
X200926812Y-58724518D01*
X200890502Y-58604820D01*
X200831537Y-58494506D01*
X200752185Y-58397815D01*
X200655494Y-58318463D01*
X200545180Y-58259498D01*
X200425482Y-58223188D01*
X200301000Y-58210928D01*
X199001000Y-58210928D01*
X198876518Y-58223188D01*
X198756820Y-58259498D01*
X198646506Y-58318463D01*
X198549815Y-58397815D01*
X198501000Y-58457296D01*
X198452185Y-58397815D01*
X198355494Y-58318463D01*
X198245180Y-58259498D01*
X198125482Y-58223188D01*
X198001000Y-58210928D01*
X197636750Y-58214000D01*
X197478000Y-58372750D01*
X197478000Y-59722000D01*
X197498000Y-59722000D01*
X197498000Y-59976000D01*
X197478000Y-59976000D01*
X197478000Y-59996000D01*
X197224000Y-59996000D01*
X197224000Y-59976000D01*
X197204000Y-59976000D01*
X197204000Y-59722000D01*
X197224000Y-59722000D01*
X197224000Y-58372750D01*
X197135999Y-58284749D01*
X197135999Y-57231348D01*
X197681850Y-57229000D01*
X197840600Y-57070250D01*
X197840600Y-55721000D01*
X198094600Y-55721000D01*
X198094600Y-57070250D01*
X198253350Y-57229000D01*
X198967600Y-57232072D01*
X199092082Y-57219812D01*
X199211780Y-57183502D01*
X199322094Y-57124537D01*
X199418785Y-57045185D01*
X199498137Y-56948494D01*
X199557102Y-56838180D01*
X199593412Y-56718482D01*
X199605672Y-56594000D01*
X199602600Y-55879750D01*
X199443850Y-55721000D01*
X198094600Y-55721000D01*
X197840600Y-55721000D01*
X197820600Y-55721000D01*
X197820600Y-55467000D01*
X197840600Y-55467000D01*
X197840600Y-54117750D01*
X198094600Y-54117750D01*
X198094600Y-55467000D01*
X199443850Y-55467000D01*
X199602600Y-55308250D01*
X199605672Y-54594000D01*
X199593412Y-54469518D01*
X199557102Y-54349820D01*
X199498137Y-54239506D01*
X199418785Y-54142815D01*
X199322094Y-54063463D01*
X199211780Y-54004498D01*
X199092082Y-53968188D01*
X198967600Y-53955928D01*
X198253350Y-53959000D01*
X198094600Y-54117750D01*
X197840600Y-54117750D01*
X197681850Y-53959000D01*
X197135999Y-53956652D01*
X197135999Y-53232072D01*
X197467600Y-53232072D01*
X197592082Y-53219812D01*
X197711780Y-53183502D01*
X197822094Y-53124537D01*
X197918785Y-53045185D01*
X197967600Y-52985704D01*
X198016415Y-53045185D01*
X198113106Y-53124537D01*
X198223420Y-53183502D01*
X198343118Y-53219812D01*
X198467600Y-53232072D01*
X198831850Y-53229000D01*
X198990600Y-53070250D01*
X198990600Y-51721000D01*
X199244600Y-51721000D01*
X199244600Y-53070250D01*
X199403350Y-53229000D01*
X199767600Y-53232072D01*
X199892082Y-53219812D01*
X200011780Y-53183502D01*
X200122094Y-53124537D01*
X200218785Y-53045185D01*
X200298137Y-52948494D01*
X200357102Y-52838180D01*
X200393412Y-52718482D01*
X200405672Y-52594000D01*
X200402600Y-51879750D01*
X200243850Y-51721000D01*
X199244600Y-51721000D01*
X198990600Y-51721000D01*
X198970600Y-51721000D01*
X198970600Y-51467000D01*
X198990600Y-51467000D01*
X198990600Y-50117750D01*
X199244600Y-50117750D01*
X199244600Y-51467000D01*
X200243850Y-51467000D01*
X200402600Y-51308250D01*
X200405672Y-50594000D01*
X200393412Y-50469518D01*
X200357102Y-50349820D01*
X200298137Y-50239506D01*
X200218785Y-50142815D01*
X200122094Y-50063463D01*
X200011780Y-50004498D01*
X199892082Y-49968188D01*
X199767600Y-49955928D01*
X199403350Y-49959000D01*
X199244600Y-50117750D01*
X198990600Y-50117750D01*
X198831850Y-49959000D01*
X198467600Y-49955928D01*
X198343118Y-49968188D01*
X198223420Y-50004498D01*
X198113106Y-50063463D01*
X198016415Y-50142815D01*
X197967600Y-50202296D01*
X197918785Y-50142815D01*
X197822094Y-50063463D01*
X197711780Y-50004498D01*
X197592082Y-49968188D01*
X197467600Y-49955928D01*
X196167600Y-49955928D01*
X196043118Y-49968188D01*
X195923420Y-50004498D01*
X195813106Y-50063463D01*
X195716415Y-50142815D01*
X195637063Y-50239506D01*
X195578098Y-50349820D01*
X195541788Y-50469518D01*
X195529528Y-50594000D01*
X195529528Y-52594000D01*
X195541788Y-52718482D01*
X195578098Y-52838180D01*
X195616000Y-52909088D01*
X195616000Y-53063199D01*
X195572303Y-53019502D01*
X195548501Y-52990499D01*
X195432776Y-52895526D01*
X195300747Y-52824954D01*
X195157486Y-52781497D01*
X195045833Y-52770500D01*
X195045822Y-52770500D01*
X195008500Y-52766824D01*
X194971178Y-52770500D01*
X193574200Y-52770500D01*
X193574200Y-50077972D01*
X193754000Y-50077972D01*
X193816537Y-50074900D01*
X193831169Y-50073459D01*
X193953863Y-50049053D01*
X193967932Y-50044785D01*
X194083486Y-49996920D01*
X194096453Y-49989989D01*
X194200456Y-49920497D01*
X194211821Y-49911170D01*
X194300270Y-49822721D01*
X194309597Y-49811356D01*
X194379089Y-49707353D01*
X194386020Y-49694386D01*
X194433885Y-49578832D01*
X194438153Y-49564763D01*
X194462559Y-49442069D01*
X194464000Y-49427437D01*
X194467072Y-49364900D01*
X194467072Y-46913000D01*
X199598013Y-46913000D01*
X199648894Y-47098033D01*
X199671112Y-47155987D01*
X199692532Y-47214281D01*
X199696750Y-47222864D01*
X199870857Y-47570919D01*
X199903911Y-47623458D01*
X199936242Y-47676475D01*
X199942048Y-47684075D01*
X200180443Y-47991685D01*
X200223086Y-48036817D01*
X200265086Y-48082530D01*
X200272257Y-48088859D01*
X200565860Y-48344305D01*
X200616475Y-48380308D01*
X200666537Y-48416980D01*
X200674801Y-48421795D01*
X201012429Y-48615348D01*
X201069042Y-48640820D01*
X201125303Y-48667084D01*
X201134345Y-48670202D01*
X201422812Y-48767419D01*
X201422800Y-60561846D01*
X201432712Y-60662482D01*
X201471881Y-60791605D01*
X201535488Y-60910606D01*
X201621089Y-61014910D01*
X201725393Y-61100511D01*
X201844394Y-61164118D01*
X201973517Y-61203287D01*
X202026454Y-61208501D01*
X202026290Y-61346514D01*
X201973518Y-61351712D01*
X201909818Y-61371035D01*
X201909814Y-61371036D01*
X201909811Y-61371037D01*
X201844395Y-61390881D01*
X201725394Y-61454488D01*
X201621090Y-61540089D01*
X201535489Y-61644393D01*
X201471882Y-61763394D01*
X201432713Y-61892517D01*
X201422801Y-61993153D01*
X201422800Y-65057646D01*
X201432712Y-65158282D01*
X201471881Y-65287405D01*
X201535488Y-65406406D01*
X201621089Y-65510710D01*
X201725393Y-65596312D01*
X201844394Y-65659919D01*
X201973517Y-65699088D01*
X202021121Y-65703777D01*
X202020956Y-65842840D01*
X201973517Y-65847512D01*
X201844394Y-65886681D01*
X201725393Y-65950288D01*
X201621089Y-66035890D01*
X201535488Y-66140194D01*
X201471881Y-66259195D01*
X201432712Y-66388318D01*
X201422800Y-66488954D01*
X201422801Y-75245887D01*
X201006293Y-75367899D01*
X200948724Y-75391074D01*
X200890790Y-75413461D01*
X200882277Y-75417822D01*
X200449249Y-75643504D01*
X200397254Y-75677435D01*
X200344792Y-75710635D01*
X200337289Y-75716566D01*
X199956342Y-76022061D01*
X199911929Y-76065443D01*
X199866915Y-76108201D01*
X199860707Y-76115477D01*
X199546353Y-76489145D01*
X199511202Y-76540343D01*
X199475360Y-76591016D01*
X199470683Y-76599359D01*
X199234896Y-77026971D01*
X199210350Y-77084041D01*
X199185043Y-77140689D01*
X199182075Y-77149781D01*
X199033835Y-77615046D01*
X199032153Y-77622911D01*
X173665430Y-77610788D01*
X173661825Y-77592878D01*
X173658968Y-77583750D01*
X173509843Y-77118767D01*
X173485194Y-77061757D01*
X173461363Y-77004455D01*
X173456788Y-76996056D01*
X173220186Y-76568895D01*
X173184943Y-76517772D01*
X173150427Y-76466177D01*
X173144311Y-76458832D01*
X173144307Y-76458826D01*
X173144302Y-76458821D01*
X172829243Y-76085756D01*
X172784738Y-76042449D01*
X172740860Y-75998544D01*
X172733430Y-75992522D01*
X172351903Y-75687753D01*
X172299832Y-75653914D01*
X172248265Y-75619369D01*
X172239809Y-75614908D01*
X172239805Y-75614905D01*
X172239801Y-75614903D01*
X171806349Y-75390046D01*
X171748671Y-75366955D01*
X171691401Y-75343095D01*
X171682236Y-75340359D01*
X171220600Y-75206082D01*
X171220600Y-66729851D01*
X172377100Y-66729851D01*
X172535850Y-66888601D01*
X173469300Y-66888601D01*
X173469300Y-66285351D01*
X173310550Y-66126601D01*
X173023332Y-66123628D01*
X172898654Y-66133695D01*
X172778335Y-66167892D01*
X172667000Y-66224906D01*
X172568927Y-66302544D01*
X172487885Y-66397823D01*
X172426988Y-66507082D01*
X172388577Y-66626123D01*
X172377100Y-66729851D01*
X171220600Y-66729851D01*
X171220600Y-66514353D01*
X171210688Y-66413717D01*
X171171519Y-66284594D01*
X171107912Y-66165593D01*
X171022310Y-66061289D01*
X170918006Y-65975688D01*
X170799005Y-65912081D01*
X170669882Y-65872912D01*
X170642120Y-65870178D01*
X170642178Y-65724929D01*
X170644482Y-65724702D01*
X170773605Y-65685533D01*
X170892606Y-65621926D01*
X170996910Y-65536325D01*
X171082511Y-65432021D01*
X171146118Y-65313020D01*
X171185287Y-65183897D01*
X171195199Y-65083261D01*
X171195199Y-64912500D01*
X172605928Y-64912500D01*
X172618188Y-65036982D01*
X172654498Y-65156680D01*
X172713463Y-65266994D01*
X172792815Y-65363685D01*
X172889506Y-65443037D01*
X172999820Y-65502002D01*
X173119518Y-65538312D01*
X173244000Y-65550572D01*
X173958250Y-65547500D01*
X174117000Y-65388750D01*
X174117000Y-64039500D01*
X172767750Y-64039500D01*
X172609000Y-64198250D01*
X172605928Y-64912500D01*
X171195199Y-64912500D01*
X171195200Y-62912500D01*
X172605928Y-62912500D01*
X172609000Y-63626750D01*
X172767750Y-63785500D01*
X174117000Y-63785500D01*
X174117000Y-62436250D01*
X173958250Y-62277500D01*
X173244000Y-62274428D01*
X173119518Y-62286688D01*
X172999820Y-62322998D01*
X172889506Y-62381963D01*
X172792815Y-62461315D01*
X172713463Y-62558006D01*
X172654498Y-62668320D01*
X172618188Y-62788018D01*
X172605928Y-62912500D01*
X171195200Y-62912500D01*
X171195201Y-62018555D01*
X171185289Y-61917919D01*
X171146120Y-61788796D01*
X171082513Y-61669795D01*
X170996912Y-61565491D01*
X170892608Y-61479890D01*
X170773607Y-61416283D01*
X170644484Y-61377114D01*
X170643894Y-61377056D01*
X170643952Y-61231242D01*
X170669882Y-61228688D01*
X170799005Y-61189519D01*
X170918006Y-61125912D01*
X171022310Y-61040311D01*
X171107912Y-60936007D01*
X171120476Y-60912500D01*
X171805928Y-60912500D01*
X171818188Y-61036982D01*
X171854498Y-61156680D01*
X171913463Y-61266994D01*
X171992815Y-61363685D01*
X172089506Y-61443037D01*
X172199820Y-61502002D01*
X172319518Y-61538312D01*
X172444000Y-61550572D01*
X172808250Y-61547500D01*
X172967000Y-61388750D01*
X172967000Y-60039500D01*
X171967750Y-60039500D01*
X171809000Y-60198250D01*
X171805928Y-60912500D01*
X171120476Y-60912500D01*
X171171519Y-60817006D01*
X171210688Y-60687883D01*
X171220600Y-60587247D01*
X171220600Y-58912500D01*
X171805928Y-58912500D01*
X171809000Y-59626750D01*
X171967750Y-59785500D01*
X172967000Y-59785500D01*
X172967000Y-58436250D01*
X172808250Y-58277500D01*
X172444000Y-58274428D01*
X172319518Y-58286688D01*
X172199820Y-58322998D01*
X172089506Y-58381963D01*
X171992815Y-58461315D01*
X171913463Y-58558006D01*
X171854498Y-58668320D01*
X171818188Y-58788018D01*
X171805928Y-58912500D01*
X171220600Y-58912500D01*
X171220600Y-48750765D01*
X171422511Y-48693858D01*
X171480338Y-48671266D01*
X171538476Y-48649482D01*
X171547033Y-48645209D01*
X171893972Y-48468892D01*
X171946290Y-48435510D01*
X171999111Y-48402836D01*
X172006674Y-48396983D01*
X172312761Y-48156635D01*
X172357612Y-48113714D01*
X172403065Y-48071418D01*
X172409348Y-48064206D01*
X172662921Y-47768984D01*
X172698575Y-47718178D01*
X172734956Y-47667846D01*
X172739718Y-47659552D01*
X172931119Y-47320700D01*
X172956222Y-47263944D01*
X172982136Y-47207500D01*
X172985196Y-47198438D01*
X173079375Y-46913000D01*
X177975928Y-46913000D01*
X177975928Y-49364900D01*
G37*
%TD.AperFunction*%
D19*
X186634200Y-65154002D02*
X186657999Y-65183001D01*
X186686997Y-65206799D01*
X186773723Y-65277974D01*
X186888736Y-65339450D01*
X186905753Y-65348546D01*
X187049014Y-65392003D01*
X187160667Y-65403000D01*
X187160677Y-65403000D01*
X187198000Y-65406676D01*
X187235323Y-65403000D01*
X187270064Y-65403000D01*
X187237206Y-65420563D01*
X187145510Y-65495816D01*
X187049453Y-65524954D01*
X186917424Y-65595526D01*
X186801699Y-65690499D01*
X186777896Y-65719503D01*
X186380693Y-66116706D01*
X186351689Y-66140509D01*
X186315122Y-66185067D01*
X186256716Y-66256234D01*
X186198798Y-66364591D01*
X186186144Y-66388264D01*
X186142687Y-66531525D01*
X186131690Y-66643178D01*
X186131690Y-66643188D01*
X186128014Y-66680510D01*
X186131690Y-66717833D01*
X186131691Y-70167560D01*
X186128014Y-70204892D01*
X186131691Y-70242225D01*
X186142688Y-70353878D01*
X186149161Y-70375216D01*
X186186144Y-70497138D01*
X186256716Y-70629168D01*
X186327891Y-70715894D01*
X186351690Y-70744893D01*
X186380688Y-70768691D01*
X187446198Y-71834202D01*
X187469997Y-71863201D01*
X187585722Y-71958174D01*
X187717751Y-72028746D01*
X187861012Y-72072203D01*
X187972665Y-72083200D01*
X187972674Y-72083200D01*
X188009997Y-72086876D01*
X188047320Y-72083200D01*
X190718599Y-72083200D01*
X191206600Y-72571202D01*
X191206600Y-72639666D01*
X191123291Y-72708036D01*
X191097137Y-72659106D01*
X191017785Y-72562415D01*
X190921094Y-72483063D01*
X190810780Y-72424098D01*
X190691082Y-72387788D01*
X190566600Y-72375528D01*
X190252350Y-72378600D01*
X190093600Y-72537350D01*
X190093600Y-73761600D01*
X190113600Y-73761600D01*
X190113600Y-74015600D01*
X190093600Y-74015600D01*
X190093600Y-74035600D01*
X189839600Y-74035600D01*
X189839600Y-74015600D01*
X188890350Y-74015600D01*
X188731600Y-74174350D01*
X188730531Y-74379410D01*
X187586284Y-74379410D01*
X187590812Y-74364482D01*
X187603072Y-74240000D01*
X187600000Y-74205750D01*
X187441250Y-74047000D01*
X186797000Y-74047000D01*
X186797000Y-74067000D01*
X186633072Y-74067000D01*
X186633072Y-73747500D01*
X186617977Y-73594243D01*
X186573274Y-73446875D01*
X186543000Y-73390237D01*
X186543000Y-73123750D01*
X186797000Y-73123750D01*
X186797000Y-73793000D01*
X187441250Y-73793000D01*
X187600000Y-73634250D01*
X187603072Y-73600000D01*
X187590812Y-73475518D01*
X187554502Y-73355820D01*
X187495537Y-73245506D01*
X187416185Y-73148815D01*
X187319494Y-73069463D01*
X187214984Y-73013600D01*
X188728528Y-73013600D01*
X188731600Y-73602850D01*
X188890350Y-73761600D01*
X189839600Y-73761600D01*
X189839600Y-72537350D01*
X189680850Y-72378600D01*
X189366600Y-72375528D01*
X189242118Y-72387788D01*
X189122420Y-72424098D01*
X189012106Y-72483063D01*
X188915415Y-72562415D01*
X188836063Y-72659106D01*
X188777098Y-72769420D01*
X188740788Y-72889118D01*
X188728528Y-73013600D01*
X187214984Y-73013600D01*
X187209180Y-73010498D01*
X187089482Y-72974188D01*
X186965000Y-72961928D01*
X186955750Y-72965000D01*
X186797000Y-73123750D01*
X186543000Y-73123750D01*
X186536029Y-73116779D01*
X186607205Y-73010256D01*
X186685226Y-72821898D01*
X186725000Y-72621939D01*
X186725000Y-72418061D01*
X186685226Y-72218102D01*
X186607205Y-72029744D01*
X186493937Y-71860226D01*
X186349774Y-71716063D01*
X186180256Y-71602795D01*
X185991898Y-71524774D01*
X185791939Y-71485000D01*
X185588061Y-71485000D01*
X185439938Y-71514463D01*
X185778602Y-71175799D01*
X185807601Y-71152001D01*
X185902574Y-71036276D01*
X185973146Y-70904247D01*
X186016603Y-70760986D01*
X186027600Y-70649333D01*
X186027600Y-70649325D01*
X186031276Y-70612000D01*
X186027600Y-70574675D01*
X186027600Y-66640125D01*
X186031276Y-66602800D01*
X186027600Y-66565475D01*
X186027600Y-66565467D01*
X186016603Y-66453814D01*
X185973146Y-66310553D01*
X185902574Y-66178524D01*
X185807601Y-66062799D01*
X185778598Y-66038997D01*
X185459104Y-65719503D01*
X185435301Y-65690499D01*
X185366582Y-65634103D01*
X185452001Y-65564001D01*
X185475803Y-65534998D01*
X185994819Y-65015983D01*
X186023812Y-64992189D01*
X186047606Y-64963196D01*
X186047610Y-64963192D01*
X186118785Y-64876465D01*
X186189357Y-64744436D01*
X186197567Y-64717369D01*
X186634200Y-65154002D01*
%TA.AperFunction,Conductor*%
D20*
G36*
X186634200Y-65154002D02*
G01*
X186657999Y-65183001D01*
X186686997Y-65206799D01*
X186773723Y-65277974D01*
X186888736Y-65339450D01*
X186905753Y-65348546D01*
X187049014Y-65392003D01*
X187160667Y-65403000D01*
X187160677Y-65403000D01*
X187198000Y-65406676D01*
X187235323Y-65403000D01*
X187270064Y-65403000D01*
X187237206Y-65420563D01*
X187145510Y-65495816D01*
X187049453Y-65524954D01*
X186917424Y-65595526D01*
X186801699Y-65690499D01*
X186777896Y-65719503D01*
X186380693Y-66116706D01*
X186351689Y-66140509D01*
X186315122Y-66185067D01*
X186256716Y-66256234D01*
X186198798Y-66364591D01*
X186186144Y-66388264D01*
X186142687Y-66531525D01*
X186131690Y-66643178D01*
X186131690Y-66643188D01*
X186128014Y-66680510D01*
X186131690Y-66717833D01*
X186131691Y-70167560D01*
X186128014Y-70204892D01*
X186131691Y-70242225D01*
X186142688Y-70353878D01*
X186149161Y-70375216D01*
X186186144Y-70497138D01*
X186256716Y-70629168D01*
X186327891Y-70715894D01*
X186351690Y-70744893D01*
X186380688Y-70768691D01*
X187446198Y-71834202D01*
X187469997Y-71863201D01*
X187585722Y-71958174D01*
X187717751Y-72028746D01*
X187861012Y-72072203D01*
X187972665Y-72083200D01*
X187972674Y-72083200D01*
X188009997Y-72086876D01*
X188047320Y-72083200D01*
X190718599Y-72083200D01*
X191206600Y-72571202D01*
X191206600Y-72639666D01*
X191123291Y-72708036D01*
X191097137Y-72659106D01*
X191017785Y-72562415D01*
X190921094Y-72483063D01*
X190810780Y-72424098D01*
X190691082Y-72387788D01*
X190566600Y-72375528D01*
X190252350Y-72378600D01*
X190093600Y-72537350D01*
X190093600Y-73761600D01*
X190113600Y-73761600D01*
X190113600Y-74015600D01*
X190093600Y-74015600D01*
X190093600Y-74035600D01*
X189839600Y-74035600D01*
X189839600Y-74015600D01*
X188890350Y-74015600D01*
X188731600Y-74174350D01*
X188730531Y-74379410D01*
X187586284Y-74379410D01*
X187590812Y-74364482D01*
X187603072Y-74240000D01*
X187600000Y-74205750D01*
X187441250Y-74047000D01*
X186797000Y-74047000D01*
X186797000Y-74067000D01*
X186633072Y-74067000D01*
X186633072Y-73747500D01*
X186617977Y-73594243D01*
X186573274Y-73446875D01*
X186543000Y-73390237D01*
X186543000Y-73123750D01*
X186797000Y-73123750D01*
X186797000Y-73793000D01*
X187441250Y-73793000D01*
X187600000Y-73634250D01*
X187603072Y-73600000D01*
X187590812Y-73475518D01*
X187554502Y-73355820D01*
X187495537Y-73245506D01*
X187416185Y-73148815D01*
X187319494Y-73069463D01*
X187214984Y-73013600D01*
X188728528Y-73013600D01*
X188731600Y-73602850D01*
X188890350Y-73761600D01*
X189839600Y-73761600D01*
X189839600Y-72537350D01*
X189680850Y-72378600D01*
X189366600Y-72375528D01*
X189242118Y-72387788D01*
X189122420Y-72424098D01*
X189012106Y-72483063D01*
X188915415Y-72562415D01*
X188836063Y-72659106D01*
X188777098Y-72769420D01*
X188740788Y-72889118D01*
X188728528Y-73013600D01*
X187214984Y-73013600D01*
X187209180Y-73010498D01*
X187089482Y-72974188D01*
X186965000Y-72961928D01*
X186955750Y-72965000D01*
X186797000Y-73123750D01*
X186543000Y-73123750D01*
X186536029Y-73116779D01*
X186607205Y-73010256D01*
X186685226Y-72821898D01*
X186725000Y-72621939D01*
X186725000Y-72418061D01*
X186685226Y-72218102D01*
X186607205Y-72029744D01*
X186493937Y-71860226D01*
X186349774Y-71716063D01*
X186180256Y-71602795D01*
X185991898Y-71524774D01*
X185791939Y-71485000D01*
X185588061Y-71485000D01*
X185439938Y-71514463D01*
X185778602Y-71175799D01*
X185807601Y-71152001D01*
X185902574Y-71036276D01*
X185973146Y-70904247D01*
X186016603Y-70760986D01*
X186027600Y-70649333D01*
X186027600Y-70649325D01*
X186031276Y-70612000D01*
X186027600Y-70574675D01*
X186027600Y-66640125D01*
X186031276Y-66602800D01*
X186027600Y-66565475D01*
X186027600Y-66565467D01*
X186016603Y-66453814D01*
X185973146Y-66310553D01*
X185902574Y-66178524D01*
X185807601Y-66062799D01*
X185778598Y-66038997D01*
X185459104Y-65719503D01*
X185435301Y-65690499D01*
X185366582Y-65634103D01*
X185452001Y-65564001D01*
X185475803Y-65534998D01*
X185994819Y-65015983D01*
X186023812Y-64992189D01*
X186047606Y-64963196D01*
X186047610Y-64963192D01*
X186118785Y-64876465D01*
X186189357Y-64744436D01*
X186197567Y-64717369D01*
X186634200Y-65154002D01*
G37*
%TD.AperFunction*%
D19*
X190862000Y-69458001D02*
X190862000Y-69520139D01*
X190901774Y-69720098D01*
X190979795Y-69908456D01*
X191093063Y-70077974D01*
X191237226Y-70222137D01*
X191406744Y-70335405D01*
X191595102Y-70413426D01*
X191795061Y-70453200D01*
X191998939Y-70453200D01*
X192198898Y-70413426D01*
X192387256Y-70335405D01*
X192432133Y-70305419D01*
X192431928Y-70307500D01*
X192431928Y-70602500D01*
X192447023Y-70755757D01*
X192491726Y-70903125D01*
X192564321Y-71038940D01*
X192662017Y-71157983D01*
X192781060Y-71255679D01*
X192916875Y-71328274D01*
X193064243Y-71372977D01*
X193217500Y-71388072D01*
X193248271Y-71388072D01*
X194131611Y-72271413D01*
X194131611Y-72388877D01*
X193966600Y-72372625D01*
X193724498Y-72396470D01*
X193491699Y-72467089D01*
X193277151Y-72581767D01*
X193089098Y-72736098D01*
X192966600Y-72885363D01*
X192844102Y-72736098D01*
X192726600Y-72639667D01*
X192726600Y-72293722D01*
X192730276Y-72256399D01*
X192726600Y-72219076D01*
X192726600Y-72219067D01*
X192715603Y-72107414D01*
X192672146Y-71964153D01*
X192629851Y-71885026D01*
X192601574Y-71832123D01*
X192530399Y-71745397D01*
X192506601Y-71716399D01*
X192477604Y-71692602D01*
X191597204Y-70812202D01*
X191573401Y-70783199D01*
X191457676Y-70688226D01*
X191325647Y-70617654D01*
X191182386Y-70574197D01*
X191070733Y-70563200D01*
X191070722Y-70563200D01*
X191033400Y-70559524D01*
X190996078Y-70563200D01*
X190162514Y-70563200D01*
X190198408Y-70445900D01*
X190207900Y-70326250D01*
X190049150Y-70167500D01*
X188709300Y-70167500D01*
X188709300Y-70187500D01*
X188455300Y-70187500D01*
X188455300Y-70167500D01*
X188435300Y-70167500D01*
X188435300Y-69913500D01*
X188455300Y-69913500D01*
X188455300Y-69893500D01*
X188709300Y-69893500D01*
X188709300Y-69913500D01*
X190049150Y-69913500D01*
X190207900Y-69754750D01*
X190198408Y-69635100D01*
X190161807Y-69515490D01*
X190128317Y-69453199D01*
X190857198Y-69453199D01*
X190862000Y-69458001D01*
%TA.AperFunction,Conductor*%
D20*
G36*
X190862000Y-69458001D02*
G01*
X190862000Y-69520139D01*
X190901774Y-69720098D01*
X190979795Y-69908456D01*
X191093063Y-70077974D01*
X191237226Y-70222137D01*
X191406744Y-70335405D01*
X191595102Y-70413426D01*
X191795061Y-70453200D01*
X191998939Y-70453200D01*
X192198898Y-70413426D01*
X192387256Y-70335405D01*
X192432133Y-70305419D01*
X192431928Y-70307500D01*
X192431928Y-70602500D01*
X192447023Y-70755757D01*
X192491726Y-70903125D01*
X192564321Y-71038940D01*
X192662017Y-71157983D01*
X192781060Y-71255679D01*
X192916875Y-71328274D01*
X193064243Y-71372977D01*
X193217500Y-71388072D01*
X193248271Y-71388072D01*
X194131611Y-72271413D01*
X194131611Y-72388877D01*
X193966600Y-72372625D01*
X193724498Y-72396470D01*
X193491699Y-72467089D01*
X193277151Y-72581767D01*
X193089098Y-72736098D01*
X192966600Y-72885363D01*
X192844102Y-72736098D01*
X192726600Y-72639667D01*
X192726600Y-72293722D01*
X192730276Y-72256399D01*
X192726600Y-72219076D01*
X192726600Y-72219067D01*
X192715603Y-72107414D01*
X192672146Y-71964153D01*
X192629851Y-71885026D01*
X192601574Y-71832123D01*
X192530399Y-71745397D01*
X192506601Y-71716399D01*
X192477604Y-71692602D01*
X191597204Y-70812202D01*
X191573401Y-70783199D01*
X191457676Y-70688226D01*
X191325647Y-70617654D01*
X191182386Y-70574197D01*
X191070733Y-70563200D01*
X191070722Y-70563200D01*
X191033400Y-70559524D01*
X190996078Y-70563200D01*
X190162514Y-70563200D01*
X190198408Y-70445900D01*
X190207900Y-70326250D01*
X190049150Y-70167500D01*
X188709300Y-70167500D01*
X188709300Y-70187500D01*
X188455300Y-70187500D01*
X188455300Y-70167500D01*
X188435300Y-70167500D01*
X188435300Y-69913500D01*
X188455300Y-69913500D01*
X188455300Y-69893500D01*
X188709300Y-69893500D01*
X188709300Y-69913500D01*
X190049150Y-69913500D01*
X190207900Y-69754750D01*
X190198408Y-69635100D01*
X190161807Y-69515490D01*
X190128317Y-69453199D01*
X190857198Y-69453199D01*
X190862000Y-69458001D01*
G37*
%TD.AperFunction*%
D19*
X197940977Y-68679677D02*
X197979388Y-68798718D01*
X198040285Y-68907977D01*
X198121327Y-69003256D01*
X198219400Y-69080894D01*
X198330735Y-69137908D01*
X198451054Y-69172105D01*
X198575732Y-69182172D01*
X198862950Y-69179199D01*
X199021698Y-69020451D01*
X199021698Y-69048102D01*
X198305600Y-69764201D01*
X196877070Y-69764201D01*
X196888072Y-69652500D01*
X196888072Y-69621729D01*
X197907103Y-68602699D01*
X197930349Y-68583622D01*
X197940977Y-68679677D01*
%TA.AperFunction,Conductor*%
D20*
G36*
X197940977Y-68679677D02*
G01*
X197979388Y-68798718D01*
X198040285Y-68907977D01*
X198121327Y-69003256D01*
X198219400Y-69080894D01*
X198330735Y-69137908D01*
X198451054Y-69172105D01*
X198575732Y-69182172D01*
X198862950Y-69179199D01*
X199021698Y-69020451D01*
X199021698Y-69048102D01*
X198305600Y-69764201D01*
X196877070Y-69764201D01*
X196888072Y-69652500D01*
X196888072Y-69621729D01*
X197907103Y-68602699D01*
X197930349Y-68583622D01*
X197940977Y-68679677D01*
G37*
%TD.AperFunction*%
D19*
X182038592Y-68365100D02*
X182029100Y-68484750D01*
X182187850Y-68643500D01*
X183527700Y-68643500D01*
X183527700Y-68623500D01*
X183781700Y-68623500D01*
X183781700Y-68643500D01*
X183801700Y-68643500D01*
X183801700Y-68897500D01*
X183781700Y-68897500D01*
X183781700Y-68917500D01*
X183527700Y-68917500D01*
X183527700Y-68897500D01*
X182237503Y-68897500D01*
X182100256Y-68805795D01*
X181911898Y-68727774D01*
X181711939Y-68688000D01*
X181508061Y-68688000D01*
X181315499Y-68726303D01*
X181736802Y-68305001D01*
X182056982Y-68305001D01*
X182038592Y-68365100D01*
%TA.AperFunction,Conductor*%
D20*
G36*
X182038592Y-68365100D02*
G01*
X182029100Y-68484750D01*
X182187850Y-68643500D01*
X183527700Y-68643500D01*
X183527700Y-68623500D01*
X183781700Y-68623500D01*
X183781700Y-68643500D01*
X183801700Y-68643500D01*
X183801700Y-68897500D01*
X183781700Y-68897500D01*
X183781700Y-68917500D01*
X183527700Y-68917500D01*
X183527700Y-68897500D01*
X182237503Y-68897500D01*
X182100256Y-68805795D01*
X181911898Y-68727774D01*
X181711939Y-68688000D01*
X181508061Y-68688000D01*
X181315499Y-68726303D01*
X181736802Y-68305001D01*
X182056982Y-68305001D01*
X182038592Y-68365100D01*
G37*
%TD.AperFunction*%
D19*
X199295700Y-68237403D02*
X199295700Y-68417199D01*
X199275700Y-68417199D01*
X199275700Y-68462599D01*
X199021700Y-68462599D01*
X199021700Y-68417199D01*
X199001700Y-68417199D01*
X199001700Y-68213999D01*
X199021700Y-68213999D01*
X199021700Y-68168599D01*
X199226896Y-68168599D01*
X199295700Y-68237403D01*
%TA.AperFunction,Conductor*%
D20*
G36*
X199295700Y-68237403D02*
G01*
X199295700Y-68417199D01*
X199275700Y-68417199D01*
X199275700Y-68462599D01*
X199021700Y-68462599D01*
X199021700Y-68417199D01*
X199001700Y-68417199D01*
X199001700Y-68213999D01*
X199021700Y-68213999D01*
X199021700Y-68168599D01*
X199226896Y-68168599D01*
X199295700Y-68237403D01*
G37*
%TD.AperFunction*%
D19*
X190280017Y-65322983D02*
X190399060Y-65420679D01*
X190534875Y-65493274D01*
X190682243Y-65537977D01*
X190835500Y-65553072D01*
X191180500Y-65553072D01*
X191333757Y-65537977D01*
X191481125Y-65493274D01*
X191616940Y-65420679D01*
X191666508Y-65380000D01*
X192190998Y-65380000D01*
X191450471Y-66120528D01*
X191419700Y-66120528D01*
X191266443Y-66135623D01*
X191119075Y-66180326D01*
X190983260Y-66252921D01*
X190933692Y-66293600D01*
X190210972Y-66293600D01*
X190210972Y-65951100D01*
X190198712Y-65826618D01*
X190162402Y-65706920D01*
X190103437Y-65596606D01*
X190031304Y-65508712D01*
X190059694Y-65493537D01*
X190156385Y-65414185D01*
X190235737Y-65317494D01*
X190251425Y-65288144D01*
X190280017Y-65322983D01*
%TA.AperFunction,Conductor*%
D20*
G36*
X190280017Y-65322983D02*
G01*
X190399060Y-65420679D01*
X190534875Y-65493274D01*
X190682243Y-65537977D01*
X190835500Y-65553072D01*
X191180500Y-65553072D01*
X191333757Y-65537977D01*
X191481125Y-65493274D01*
X191616940Y-65420679D01*
X191666508Y-65380000D01*
X192190998Y-65380000D01*
X191450471Y-66120528D01*
X191419700Y-66120528D01*
X191266443Y-66135623D01*
X191119075Y-66180326D01*
X190983260Y-66252921D01*
X190933692Y-66293600D01*
X190210972Y-66293600D01*
X190210972Y-65951100D01*
X190198712Y-65826618D01*
X190162402Y-65706920D01*
X190103437Y-65596606D01*
X190031304Y-65508712D01*
X190059694Y-65493537D01*
X190156385Y-65414185D01*
X190235737Y-65317494D01*
X190251425Y-65288144D01*
X190280017Y-65322983D01*
G37*
%TD.AperFunction*%
D19*
X189537200Y-64516000D02*
X189557200Y-64516000D01*
X189557200Y-64770000D01*
X189537200Y-64770000D01*
X189537200Y-64790000D01*
X189373272Y-64790000D01*
X189373272Y-64496000D01*
X189537200Y-64496000D01*
X189537200Y-64516000D01*
%TA.AperFunction,Conductor*%
D20*
G36*
X189537200Y-64516000D02*
G01*
X189557200Y-64516000D01*
X189557200Y-64770000D01*
X189537200Y-64770000D01*
X189537200Y-64790000D01*
X189373272Y-64790000D01*
X189373272Y-64496000D01*
X189537200Y-64496000D01*
X189537200Y-64516000D01*
G37*
%TD.AperFunction*%
D19*
X182483420Y-62870302D02*
X182603118Y-62906612D01*
X182727600Y-62918872D01*
X184273801Y-62918872D01*
X184273801Y-63756000D01*
X182178802Y-63756000D01*
X182057652Y-63634850D01*
X182174180Y-63599502D01*
X182284494Y-63540537D01*
X182381185Y-63461185D01*
X182460537Y-63364494D01*
X182519502Y-63254180D01*
X182555812Y-63134482D01*
X182568072Y-63010000D01*
X182565000Y-63000750D01*
X182406252Y-62842002D01*
X182430475Y-62842002D01*
X182483420Y-62870302D01*
%TA.AperFunction,Conductor*%
D20*
G36*
X182483420Y-62870302D02*
G01*
X182603118Y-62906612D01*
X182727600Y-62918872D01*
X184273801Y-62918872D01*
X184273801Y-63756000D01*
X182178802Y-63756000D01*
X182057652Y-63634850D01*
X182174180Y-63599502D01*
X182284494Y-63540537D01*
X182381185Y-63461185D01*
X182460537Y-63364494D01*
X182519502Y-63254180D01*
X182555812Y-63134482D01*
X182568072Y-63010000D01*
X182565000Y-63000750D01*
X182406252Y-62842002D01*
X182430475Y-62842002D01*
X182483420Y-62870302D01*
G37*
%TD.AperFunction*%
D19*
X181757000Y-62842000D02*
X181737000Y-62842000D01*
X181737000Y-62862000D01*
X181483000Y-62862000D01*
X181483000Y-62842000D01*
X181463000Y-62842000D01*
X181463000Y-62678072D01*
X181757000Y-62678072D01*
X181757000Y-62842000D01*
%TA.AperFunction,Conductor*%
D20*
G36*
X181757000Y-62842000D02*
G01*
X181737000Y-62842000D01*
X181737000Y-62862000D01*
X181483000Y-62862000D01*
X181483000Y-62842000D01*
X181463000Y-62842000D01*
X181463000Y-62678072D01*
X181757000Y-62678072D01*
X181757000Y-62842000D01*
G37*
%TD.AperFunction*%
D19*
X188161328Y-49364900D02*
X188164400Y-49427437D01*
X188165841Y-49442069D01*
X188190247Y-49564763D01*
X188194515Y-49578832D01*
X188242380Y-49694386D01*
X188249311Y-49707353D01*
X188318803Y-49811356D01*
X188328130Y-49822721D01*
X188416579Y-49911170D01*
X188427944Y-49920497D01*
X188531947Y-49989989D01*
X188544914Y-49996920D01*
X188660468Y-50044785D01*
X188674537Y-50049053D01*
X188797231Y-50073459D01*
X188811863Y-50074900D01*
X188874400Y-50077972D01*
X189054200Y-50077972D01*
X189054201Y-52997868D01*
X189050524Y-53035200D01*
X189054201Y-53072533D01*
X189065198Y-53184186D01*
X189068429Y-53194836D01*
X189071428Y-53204723D01*
X189071428Y-54155501D01*
X189088492Y-54328755D01*
X189139028Y-54495351D01*
X189221095Y-54648887D01*
X189331538Y-54783462D01*
X189466113Y-54893905D01*
X189619649Y-54975972D01*
X189786245Y-55026508D01*
X189959499Y-55043572D01*
X190659501Y-55043572D01*
X190739856Y-55035658D01*
X191206200Y-55502002D01*
X191229999Y-55531001D01*
X191258997Y-55554799D01*
X191345723Y-55625974D01*
X191475983Y-55695600D01*
X191477753Y-55696546D01*
X191621014Y-55740003D01*
X191732667Y-55751000D01*
X191732677Y-55751000D01*
X191770000Y-55754676D01*
X191807323Y-55751000D01*
X194566000Y-55751000D01*
X194566000Y-56874928D01*
X194391500Y-56874928D01*
X194238243Y-56890023D01*
X194090875Y-56934726D01*
X193955060Y-57007321D01*
X193836017Y-57105017D01*
X193738321Y-57224060D01*
X193665726Y-57359875D01*
X193621023Y-57507243D01*
X193605928Y-57660500D01*
X193605928Y-57673038D01*
X192577567Y-58701400D01*
X191963000Y-58701400D01*
X191963000Y-58625598D01*
X191804252Y-58625598D01*
X191963000Y-58466850D01*
X191966072Y-58457600D01*
X191953812Y-58333118D01*
X191917502Y-58213420D01*
X191913688Y-58206284D01*
X191950977Y-58083357D01*
X191966072Y-57930100D01*
X191966072Y-57635100D01*
X191950977Y-57481843D01*
X191906274Y-57334475D01*
X191833679Y-57198660D01*
X191735983Y-57079617D01*
X191616940Y-56981921D01*
X191481125Y-56909326D01*
X191333757Y-56864623D01*
X191180500Y-56849528D01*
X190835500Y-56849528D01*
X190682243Y-56864623D01*
X190534875Y-56909326D01*
X190399060Y-56981921D01*
X190280017Y-57079617D01*
X190182321Y-57198660D01*
X190109726Y-57334475D01*
X190080325Y-57431400D01*
X190051743Y-57431400D01*
X189990894Y-57381463D01*
X189880580Y-57322498D01*
X189760882Y-57286188D01*
X189636400Y-57273928D01*
X187655200Y-57273928D01*
X187530718Y-57286188D01*
X187411020Y-57322498D01*
X187300706Y-57381463D01*
X187239857Y-57431400D01*
X186479141Y-57431400D01*
X186441818Y-57427724D01*
X186404495Y-57431400D01*
X186404485Y-57431400D01*
X186292832Y-57442397D01*
X186149571Y-57485854D01*
X186017542Y-57556426D01*
X185901817Y-57651399D01*
X185878015Y-57680402D01*
X185700309Y-57858107D01*
X185522603Y-57680402D01*
X185498801Y-57651399D01*
X185383076Y-57556426D01*
X185251047Y-57485854D01*
X185154990Y-57456716D01*
X185063294Y-57381463D01*
X184952980Y-57322498D01*
X184833282Y-57286188D01*
X184708800Y-57273928D01*
X182727600Y-57273928D01*
X182603118Y-57286188D01*
X182483420Y-57322498D01*
X182466276Y-57331662D01*
X182460274Y-57311875D01*
X182387679Y-57176060D01*
X182347000Y-57126492D01*
X182347000Y-56725301D01*
X184090455Y-54981847D01*
X184224899Y-55022630D01*
X184467000Y-55046475D01*
X184709102Y-55022630D01*
X184941901Y-54952011D01*
X185156449Y-54837333D01*
X185344502Y-54683002D01*
X185498833Y-54494949D01*
X185613511Y-54280400D01*
X185684130Y-54047601D01*
X185702000Y-53866164D01*
X185702000Y-53370302D01*
X186139803Y-52932499D01*
X186168801Y-52908701D01*
X186263774Y-52792976D01*
X186334346Y-52660947D01*
X186377803Y-52517686D01*
X186388800Y-52406033D01*
X186388800Y-52406024D01*
X186392476Y-52368701D01*
X186388800Y-52331378D01*
X186388800Y-50077972D01*
X186568600Y-50077972D01*
X186631137Y-50074900D01*
X186645769Y-50073459D01*
X186768463Y-50049053D01*
X186782532Y-50044785D01*
X186898086Y-49996920D01*
X186911053Y-49989989D01*
X187015056Y-49920497D01*
X187026421Y-49911170D01*
X187114870Y-49822721D01*
X187124197Y-49811356D01*
X187193689Y-49707353D01*
X187200620Y-49694386D01*
X187248485Y-49578832D01*
X187252753Y-49564763D01*
X187277159Y-49442069D01*
X187278600Y-49427437D01*
X187281672Y-49364900D01*
X187281672Y-46913000D01*
X188161328Y-46913000D01*
X188161328Y-49364900D01*
%TA.AperFunction,Conductor*%
D20*
G36*
X188161328Y-49364900D02*
G01*
X188164400Y-49427437D01*
X188165841Y-49442069D01*
X188190247Y-49564763D01*
X188194515Y-49578832D01*
X188242380Y-49694386D01*
X188249311Y-49707353D01*
X188318803Y-49811356D01*
X188328130Y-49822721D01*
X188416579Y-49911170D01*
X188427944Y-49920497D01*
X188531947Y-49989989D01*
X188544914Y-49996920D01*
X188660468Y-50044785D01*
X188674537Y-50049053D01*
X188797231Y-50073459D01*
X188811863Y-50074900D01*
X188874400Y-50077972D01*
X189054200Y-50077972D01*
X189054201Y-52997868D01*
X189050524Y-53035200D01*
X189054201Y-53072533D01*
X189065198Y-53184186D01*
X189068429Y-53194836D01*
X189071428Y-53204723D01*
X189071428Y-54155501D01*
X189088492Y-54328755D01*
X189139028Y-54495351D01*
X189221095Y-54648887D01*
X189331538Y-54783462D01*
X189466113Y-54893905D01*
X189619649Y-54975972D01*
X189786245Y-55026508D01*
X189959499Y-55043572D01*
X190659501Y-55043572D01*
X190739856Y-55035658D01*
X191206200Y-55502002D01*
X191229999Y-55531001D01*
X191258997Y-55554799D01*
X191345723Y-55625974D01*
X191475983Y-55695600D01*
X191477753Y-55696546D01*
X191621014Y-55740003D01*
X191732667Y-55751000D01*
X191732677Y-55751000D01*
X191770000Y-55754676D01*
X191807323Y-55751000D01*
X194566000Y-55751000D01*
X194566000Y-56874928D01*
X194391500Y-56874928D01*
X194238243Y-56890023D01*
X194090875Y-56934726D01*
X193955060Y-57007321D01*
X193836017Y-57105017D01*
X193738321Y-57224060D01*
X193665726Y-57359875D01*
X193621023Y-57507243D01*
X193605928Y-57660500D01*
X193605928Y-57673038D01*
X192577567Y-58701400D01*
X191963000Y-58701400D01*
X191963000Y-58625598D01*
X191804252Y-58625598D01*
X191963000Y-58466850D01*
X191966072Y-58457600D01*
X191953812Y-58333118D01*
X191917502Y-58213420D01*
X191913688Y-58206284D01*
X191950977Y-58083357D01*
X191966072Y-57930100D01*
X191966072Y-57635100D01*
X191950977Y-57481843D01*
X191906274Y-57334475D01*
X191833679Y-57198660D01*
X191735983Y-57079617D01*
X191616940Y-56981921D01*
X191481125Y-56909326D01*
X191333757Y-56864623D01*
X191180500Y-56849528D01*
X190835500Y-56849528D01*
X190682243Y-56864623D01*
X190534875Y-56909326D01*
X190399060Y-56981921D01*
X190280017Y-57079617D01*
X190182321Y-57198660D01*
X190109726Y-57334475D01*
X190080325Y-57431400D01*
X190051743Y-57431400D01*
X189990894Y-57381463D01*
X189880580Y-57322498D01*
X189760882Y-57286188D01*
X189636400Y-57273928D01*
X187655200Y-57273928D01*
X187530718Y-57286188D01*
X187411020Y-57322498D01*
X187300706Y-57381463D01*
X187239857Y-57431400D01*
X186479141Y-57431400D01*
X186441818Y-57427724D01*
X186404495Y-57431400D01*
X186404485Y-57431400D01*
X186292832Y-57442397D01*
X186149571Y-57485854D01*
X186017542Y-57556426D01*
X185901817Y-57651399D01*
X185878015Y-57680402D01*
X185700309Y-57858107D01*
X185522603Y-57680402D01*
X185498801Y-57651399D01*
X185383076Y-57556426D01*
X185251047Y-57485854D01*
X185154990Y-57456716D01*
X185063294Y-57381463D01*
X184952980Y-57322498D01*
X184833282Y-57286188D01*
X184708800Y-57273928D01*
X182727600Y-57273928D01*
X182603118Y-57286188D01*
X182483420Y-57322498D01*
X182466276Y-57331662D01*
X182460274Y-57311875D01*
X182387679Y-57176060D01*
X182347000Y-57126492D01*
X182347000Y-56725301D01*
X184090455Y-54981847D01*
X184224899Y-55022630D01*
X184467000Y-55046475D01*
X184709102Y-55022630D01*
X184941901Y-54952011D01*
X185156449Y-54837333D01*
X185344502Y-54683002D01*
X185498833Y-54494949D01*
X185613511Y-54280400D01*
X185684130Y-54047601D01*
X185702000Y-53866164D01*
X185702000Y-53370302D01*
X186139803Y-52932499D01*
X186168801Y-52908701D01*
X186263774Y-52792976D01*
X186334346Y-52660947D01*
X186377803Y-52517686D01*
X186388800Y-52406033D01*
X186388800Y-52406024D01*
X186392476Y-52368701D01*
X186388800Y-52331378D01*
X186388800Y-50077972D01*
X186568600Y-50077972D01*
X186631137Y-50074900D01*
X186645769Y-50073459D01*
X186768463Y-50049053D01*
X186782532Y-50044785D01*
X186898086Y-49996920D01*
X186911053Y-49989989D01*
X187015056Y-49920497D01*
X187026421Y-49911170D01*
X187114870Y-49822721D01*
X187124197Y-49811356D01*
X187193689Y-49707353D01*
X187200620Y-49694386D01*
X187248485Y-49578832D01*
X187252753Y-49564763D01*
X187277159Y-49442069D01*
X187278600Y-49427437D01*
X187281672Y-49364900D01*
X187281672Y-46913000D01*
X188161328Y-46913000D01*
X188161328Y-49364900D01*
G37*
%TD.AperFunction*%
%TD*%
M02*
