%TF.GenerationSoftware,KiCad,Pcbnew,(5.1.9-0-10_14)*%
%TF.CreationDate,2021-05-07T17:02:22+01:00*%
%TF.ProjectId,EMGSensor3.1,454d4753-656e-4736-9f72-332e312e6b69,rev?*%
%TF.SameCoordinates,Original*%
%TF.FileFunction,Soldermask,Top*%
%TF.FilePolarity,Negative*%
%FSLAX46Y46*%
G04 Gerber Fmt 4.6, Leading zero omitted, Abs format (unit mm)*
G04 Created by KiCad (PCBNEW (5.1.9-0-10_14)) date 2021-05-07 17:02:22*
%MOMM*%
%LPD*%
G01*
G04 APERTURE LIST*
%ADD10R,1.168400X0.457200*%
%ADD11R,1.300000X2.000000*%
%ADD12R,2.000000X2.000000*%
%ADD13O,1.200000X1.750000*%
%ADD14C,0.100000*%
%ADD15R,1.981200X0.558800*%
G04 APERTURE END LIST*
D10*
%TO.C,D2*%
X199148700Y-68315599D03*
X199148700Y-67015601D03*
X197396100Y-67665600D03*
%TD*%
%TO.C,R9*%
G36*
G01*
X174782700Y-70497200D02*
X175127700Y-70497200D01*
G75*
G02*
X175275200Y-70644700I0J-147500D01*
G01*
X175275200Y-70939700D01*
G75*
G02*
X175127700Y-71087200I-147500J0D01*
G01*
X174782700Y-71087200D01*
G75*
G02*
X174635200Y-70939700I0J147500D01*
G01*
X174635200Y-70644700D01*
G75*
G02*
X174782700Y-70497200I147500J0D01*
G01*
G37*
G36*
G01*
X174782700Y-69527200D02*
X175127700Y-69527200D01*
G75*
G02*
X175275200Y-69674700I0J-147500D01*
G01*
X175275200Y-69969700D01*
G75*
G02*
X175127700Y-70117200I-147500J0D01*
G01*
X174782700Y-70117200D01*
G75*
G02*
X174635200Y-69969700I0J147500D01*
G01*
X174635200Y-69674700D01*
G75*
G02*
X174782700Y-69527200I147500J0D01*
G01*
G37*
%TD*%
D11*
%TO.C,RV22*%
X199651000Y-59849000D03*
D12*
X198501000Y-63849000D03*
D11*
X197351000Y-59849000D03*
%TD*%
%TO.C,C5*%
G36*
G01*
X194660000Y-65317500D02*
X194660000Y-65662500D01*
G75*
G02*
X194512500Y-65810000I-147500J0D01*
G01*
X194217500Y-65810000D01*
G75*
G02*
X194070000Y-65662500I0J147500D01*
G01*
X194070000Y-65317500D01*
G75*
G02*
X194217500Y-65170000I147500J0D01*
G01*
X194512500Y-65170000D01*
G75*
G02*
X194660000Y-65317500I0J-147500D01*
G01*
G37*
G36*
G01*
X193690000Y-65317500D02*
X193690000Y-65662500D01*
G75*
G02*
X193542500Y-65810000I-147500J0D01*
G01*
X193247500Y-65810000D01*
G75*
G02*
X193100000Y-65662500I0J147500D01*
G01*
X193100000Y-65317500D01*
G75*
G02*
X193247500Y-65170000I147500J0D01*
G01*
X193542500Y-65170000D01*
G75*
G02*
X193690000Y-65317500I0J-147500D01*
G01*
G37*
%TD*%
%TO.C,C8*%
G36*
G01*
X185995000Y-73747500D02*
X185995000Y-74092500D01*
G75*
G02*
X185847500Y-74240000I-147500J0D01*
G01*
X185552500Y-74240000D01*
G75*
G02*
X185405000Y-74092500I0J147500D01*
G01*
X185405000Y-73747500D01*
G75*
G02*
X185552500Y-73600000I147500J0D01*
G01*
X185847500Y-73600000D01*
G75*
G02*
X185995000Y-73747500I0J-147500D01*
G01*
G37*
G36*
G01*
X186965000Y-73747500D02*
X186965000Y-74092500D01*
G75*
G02*
X186817500Y-74240000I-147500J0D01*
G01*
X186522500Y-74240000D01*
G75*
G02*
X186375000Y-74092500I0J147500D01*
G01*
X186375000Y-73747500D01*
G75*
G02*
X186522500Y-73600000I147500J0D01*
G01*
X186817500Y-73600000D01*
G75*
G02*
X186965000Y-73747500I0J-147500D01*
G01*
G37*
%TD*%
%TO.C,J1*%
G36*
G01*
X179867000Y-54155501D02*
X179867000Y-52905499D01*
G75*
G02*
X180116999Y-52655500I249999J0D01*
G01*
X180817001Y-52655500D01*
G75*
G02*
X181067000Y-52905499I0J-249999D01*
G01*
X181067000Y-54155501D01*
G75*
G02*
X180817001Y-54405500I-249999J0D01*
G01*
X180116999Y-54405500D01*
G75*
G02*
X179867000Y-54155501I0J249999D01*
G01*
G37*
D13*
X182467000Y-53530500D03*
X184467000Y-53530500D03*
%TD*%
%TO.C,J2*%
X192309500Y-53530500D03*
G36*
G01*
X189709500Y-54155501D02*
X189709500Y-52905499D01*
G75*
G02*
X189959499Y-52655500I249999J0D01*
G01*
X190659501Y-52655500D01*
G75*
G02*
X190909500Y-52905499I0J-249999D01*
G01*
X190909500Y-54155501D01*
G75*
G02*
X190659501Y-54405500I-249999J0D01*
G01*
X189959499Y-54405500D01*
G75*
G02*
X189709500Y-54155501I0J249999D01*
G01*
G37*
%TD*%
%TO.C,R1*%
G36*
G01*
X178163000Y-57957500D02*
X178163000Y-57612500D01*
G75*
G02*
X178310500Y-57465000I147500J0D01*
G01*
X178605500Y-57465000D01*
G75*
G02*
X178753000Y-57612500I0J-147500D01*
G01*
X178753000Y-57957500D01*
G75*
G02*
X178605500Y-58105000I-147500J0D01*
G01*
X178310500Y-58105000D01*
G75*
G02*
X178163000Y-57957500I0J147500D01*
G01*
G37*
G36*
G01*
X179133000Y-57957500D02*
X179133000Y-57612500D01*
G75*
G02*
X179280500Y-57465000I147500J0D01*
G01*
X179575500Y-57465000D01*
G75*
G02*
X179723000Y-57612500I0J-147500D01*
G01*
X179723000Y-57957500D01*
G75*
G02*
X179575500Y-58105000I-147500J0D01*
G01*
X179280500Y-58105000D01*
G75*
G02*
X179133000Y-57957500I0J147500D01*
G01*
G37*
%TD*%
%TO.C,R2*%
G36*
G01*
X180322000Y-57957500D02*
X180322000Y-57612500D01*
G75*
G02*
X180469500Y-57465000I147500J0D01*
G01*
X180764500Y-57465000D01*
G75*
G02*
X180912000Y-57612500I0J-147500D01*
G01*
X180912000Y-57957500D01*
G75*
G02*
X180764500Y-58105000I-147500J0D01*
G01*
X180469500Y-58105000D01*
G75*
G02*
X180322000Y-57957500I0J147500D01*
G01*
G37*
G36*
G01*
X181292000Y-57957500D02*
X181292000Y-57612500D01*
G75*
G02*
X181439500Y-57465000I147500J0D01*
G01*
X181734500Y-57465000D01*
G75*
G02*
X181882000Y-57612500I0J-147500D01*
G01*
X181882000Y-57957500D01*
G75*
G02*
X181734500Y-58105000I-147500J0D01*
G01*
X181439500Y-58105000D01*
G75*
G02*
X181292000Y-57957500I0J147500D01*
G01*
G37*
%TD*%
%TO.C,R3*%
G36*
G01*
X181968500Y-60406500D02*
X181968500Y-60751500D01*
G75*
G02*
X181821000Y-60899000I-147500J0D01*
G01*
X181526000Y-60899000D01*
G75*
G02*
X181378500Y-60751500I0J147500D01*
G01*
X181378500Y-60406500D01*
G75*
G02*
X181526000Y-60259000I147500J0D01*
G01*
X181821000Y-60259000D01*
G75*
G02*
X181968500Y-60406500I0J-147500D01*
G01*
G37*
G36*
G01*
X180998500Y-60406500D02*
X180998500Y-60751500D01*
G75*
G02*
X180851000Y-60899000I-147500J0D01*
G01*
X180556000Y-60899000D01*
G75*
G02*
X180408500Y-60751500I0J147500D01*
G01*
X180408500Y-60406500D01*
G75*
G02*
X180556000Y-60259000I147500J0D01*
G01*
X180851000Y-60259000D01*
G75*
G02*
X180998500Y-60406500I0J-147500D01*
G01*
G37*
%TD*%
%TO.C,R6*%
G36*
G01*
X179723000Y-64470500D02*
X179723000Y-64815500D01*
G75*
G02*
X179575500Y-64963000I-147500J0D01*
G01*
X179280500Y-64963000D01*
G75*
G02*
X179133000Y-64815500I0J147500D01*
G01*
X179133000Y-64470500D01*
G75*
G02*
X179280500Y-64323000I147500J0D01*
G01*
X179575500Y-64323000D01*
G75*
G02*
X179723000Y-64470500I0J-147500D01*
G01*
G37*
G36*
G01*
X178753000Y-64470500D02*
X178753000Y-64815500D01*
G75*
G02*
X178605500Y-64963000I-147500J0D01*
G01*
X178310500Y-64963000D01*
G75*
G02*
X178163000Y-64815500I0J147500D01*
G01*
X178163000Y-64470500D01*
G75*
G02*
X178310500Y-64323000I147500J0D01*
G01*
X178605500Y-64323000D01*
G75*
G02*
X178753000Y-64470500I0J-147500D01*
G01*
G37*
%TD*%
%TO.C,R7*%
G36*
G01*
X181378500Y-65577500D02*
X181378500Y-65232500D01*
G75*
G02*
X181526000Y-65085000I147500J0D01*
G01*
X181821000Y-65085000D01*
G75*
G02*
X181968500Y-65232500I0J-147500D01*
G01*
X181968500Y-65577500D01*
G75*
G02*
X181821000Y-65725000I-147500J0D01*
G01*
X181526000Y-65725000D01*
G75*
G02*
X181378500Y-65577500I0J147500D01*
G01*
G37*
G36*
G01*
X180408500Y-65577500D02*
X180408500Y-65232500D01*
G75*
G02*
X180556000Y-65085000I147500J0D01*
G01*
X180851000Y-65085000D01*
G75*
G02*
X180998500Y-65232500I0J-147500D01*
G01*
X180998500Y-65577500D01*
G75*
G02*
X180851000Y-65725000I-147500J0D01*
G01*
X180556000Y-65725000D01*
G75*
G02*
X180408500Y-65577500I0J147500D01*
G01*
G37*
%TD*%
%TO.C,R8*%
G36*
G01*
X179507100Y-68231800D02*
X179852100Y-68231800D01*
G75*
G02*
X179999600Y-68379300I0J-147500D01*
G01*
X179999600Y-68674300D01*
G75*
G02*
X179852100Y-68821800I-147500J0D01*
G01*
X179507100Y-68821800D01*
G75*
G02*
X179359600Y-68674300I0J147500D01*
G01*
X179359600Y-68379300D01*
G75*
G02*
X179507100Y-68231800I147500J0D01*
G01*
G37*
G36*
G01*
X179507100Y-69201800D02*
X179852100Y-69201800D01*
G75*
G02*
X179999600Y-69349300I0J-147500D01*
G01*
X179999600Y-69644300D01*
G75*
G02*
X179852100Y-69791800I-147500J0D01*
G01*
X179507100Y-69791800D01*
G75*
G02*
X179359600Y-69644300I0J147500D01*
G01*
X179359600Y-69349300D01*
G75*
G02*
X179507100Y-69201800I147500J0D01*
G01*
G37*
%TD*%
%TO.C,R10*%
G36*
G01*
X173324300Y-70119600D02*
X172979300Y-70119600D01*
G75*
G02*
X172831800Y-69972100I0J147500D01*
G01*
X172831800Y-69677100D01*
G75*
G02*
X172979300Y-69529600I147500J0D01*
G01*
X173324300Y-69529600D01*
G75*
G02*
X173471800Y-69677100I0J-147500D01*
G01*
X173471800Y-69972100D01*
G75*
G02*
X173324300Y-70119600I-147500J0D01*
G01*
G37*
G36*
G01*
X173324300Y-71089600D02*
X172979300Y-71089600D01*
G75*
G02*
X172831800Y-70942100I0J147500D01*
G01*
X172831800Y-70647100D01*
G75*
G02*
X172979300Y-70499600I147500J0D01*
G01*
X173324300Y-70499600D01*
G75*
G02*
X173471800Y-70647100I0J-147500D01*
G01*
X173471800Y-70942100D01*
G75*
G02*
X173324300Y-71089600I-147500J0D01*
G01*
G37*
%TD*%
%TO.C,R12*%
G36*
G01*
X195498500Y-60897000D02*
X195153500Y-60897000D01*
G75*
G02*
X195006000Y-60749500I0J147500D01*
G01*
X195006000Y-60454500D01*
G75*
G02*
X195153500Y-60307000I147500J0D01*
G01*
X195498500Y-60307000D01*
G75*
G02*
X195646000Y-60454500I0J-147500D01*
G01*
X195646000Y-60749500D01*
G75*
G02*
X195498500Y-60897000I-147500J0D01*
G01*
G37*
G36*
G01*
X195498500Y-61867000D02*
X195153500Y-61867000D01*
G75*
G02*
X195006000Y-61719500I0J147500D01*
G01*
X195006000Y-61424500D01*
G75*
G02*
X195153500Y-61277000I147500J0D01*
G01*
X195498500Y-61277000D01*
G75*
G02*
X195646000Y-61424500I0J-147500D01*
G01*
X195646000Y-61719500D01*
G75*
G02*
X195498500Y-61867000I-147500J0D01*
G01*
G37*
%TD*%
%TO.C,R13*%
G36*
G01*
X193339500Y-61867000D02*
X192994500Y-61867000D01*
G75*
G02*
X192847000Y-61719500I0J147500D01*
G01*
X192847000Y-61424500D01*
G75*
G02*
X192994500Y-61277000I147500J0D01*
G01*
X193339500Y-61277000D01*
G75*
G02*
X193487000Y-61424500I0J-147500D01*
G01*
X193487000Y-61719500D01*
G75*
G02*
X193339500Y-61867000I-147500J0D01*
G01*
G37*
G36*
G01*
X193339500Y-60897000D02*
X192994500Y-60897000D01*
G75*
G02*
X192847000Y-60749500I0J147500D01*
G01*
X192847000Y-60454500D01*
G75*
G02*
X192994500Y-60307000I147500J0D01*
G01*
X193339500Y-60307000D01*
G75*
G02*
X193487000Y-60454500I0J-147500D01*
G01*
X193487000Y-60749500D01*
G75*
G02*
X193339500Y-60897000I-147500J0D01*
G01*
G37*
%TD*%
%TO.C,R14*%
G36*
G01*
X194188300Y-62618400D02*
X194533300Y-62618400D01*
G75*
G02*
X194680800Y-62765900I0J-147500D01*
G01*
X194680800Y-63060900D01*
G75*
G02*
X194533300Y-63208400I-147500J0D01*
G01*
X194188300Y-63208400D01*
G75*
G02*
X194040800Y-63060900I0J147500D01*
G01*
X194040800Y-62765900D01*
G75*
G02*
X194188300Y-62618400I147500J0D01*
G01*
G37*
G36*
G01*
X194188300Y-63588400D02*
X194533300Y-63588400D01*
G75*
G02*
X194680800Y-63735900I0J-147500D01*
G01*
X194680800Y-64030900D01*
G75*
G02*
X194533300Y-64178400I-147500J0D01*
G01*
X194188300Y-64178400D01*
G75*
G02*
X194040800Y-64030900I0J147500D01*
G01*
X194040800Y-63735900D01*
G75*
G02*
X194188300Y-63588400I147500J0D01*
G01*
G37*
%TD*%
%TO.C,R15*%
G36*
G01*
X190835500Y-60307000D02*
X191180500Y-60307000D01*
G75*
G02*
X191328000Y-60454500I0J-147500D01*
G01*
X191328000Y-60749500D01*
G75*
G02*
X191180500Y-60897000I-147500J0D01*
G01*
X190835500Y-60897000D01*
G75*
G02*
X190688000Y-60749500I0J147500D01*
G01*
X190688000Y-60454500D01*
G75*
G02*
X190835500Y-60307000I147500J0D01*
G01*
G37*
G36*
G01*
X190835500Y-61277000D02*
X191180500Y-61277000D01*
G75*
G02*
X191328000Y-61424500I0J-147500D01*
G01*
X191328000Y-61719500D01*
G75*
G02*
X191180500Y-61867000I-147500J0D01*
G01*
X190835500Y-61867000D01*
G75*
G02*
X190688000Y-61719500I0J147500D01*
G01*
X190688000Y-61424500D01*
G75*
G02*
X190835500Y-61277000I147500J0D01*
G01*
G37*
%TD*%
%TO.C,R17*%
G36*
G01*
X194391500Y-58483000D02*
X194736500Y-58483000D01*
G75*
G02*
X194884000Y-58630500I0J-147500D01*
G01*
X194884000Y-58925500D01*
G75*
G02*
X194736500Y-59073000I-147500J0D01*
G01*
X194391500Y-59073000D01*
G75*
G02*
X194244000Y-58925500I0J147500D01*
G01*
X194244000Y-58630500D01*
G75*
G02*
X194391500Y-58483000I147500J0D01*
G01*
G37*
G36*
G01*
X194391500Y-57513000D02*
X194736500Y-57513000D01*
G75*
G02*
X194884000Y-57660500I0J-147500D01*
G01*
X194884000Y-57955500D01*
G75*
G02*
X194736500Y-58103000I-147500J0D01*
G01*
X194391500Y-58103000D01*
G75*
G02*
X194244000Y-57955500I0J147500D01*
G01*
X194244000Y-57660500D01*
G75*
G02*
X194391500Y-57513000I147500J0D01*
G01*
G37*
%TD*%
%TO.C,R18*%
G36*
G01*
X191180500Y-63945000D02*
X190835500Y-63945000D01*
G75*
G02*
X190688000Y-63797500I0J147500D01*
G01*
X190688000Y-63502500D01*
G75*
G02*
X190835500Y-63355000I147500J0D01*
G01*
X191180500Y-63355000D01*
G75*
G02*
X191328000Y-63502500I0J-147500D01*
G01*
X191328000Y-63797500D01*
G75*
G02*
X191180500Y-63945000I-147500J0D01*
G01*
G37*
G36*
G01*
X191180500Y-64915000D02*
X190835500Y-64915000D01*
G75*
G02*
X190688000Y-64767500I0J147500D01*
G01*
X190688000Y-64472500D01*
G75*
G02*
X190835500Y-64325000I147500J0D01*
G01*
X191180500Y-64325000D01*
G75*
G02*
X191328000Y-64472500I0J-147500D01*
G01*
X191328000Y-64767500D01*
G75*
G02*
X191180500Y-64915000I-147500J0D01*
G01*
G37*
%TD*%
%TO.C,R19*%
G36*
G01*
X193629500Y-67700000D02*
X193974500Y-67700000D01*
G75*
G02*
X194122000Y-67847500I0J-147500D01*
G01*
X194122000Y-68142500D01*
G75*
G02*
X193974500Y-68290000I-147500J0D01*
G01*
X193629500Y-68290000D01*
G75*
G02*
X193482000Y-68142500I0J147500D01*
G01*
X193482000Y-67847500D01*
G75*
G02*
X193629500Y-67700000I147500J0D01*
G01*
G37*
G36*
G01*
X193629500Y-66730000D02*
X193974500Y-66730000D01*
G75*
G02*
X194122000Y-66877500I0J-147500D01*
G01*
X194122000Y-67172500D01*
G75*
G02*
X193974500Y-67320000I-147500J0D01*
G01*
X193629500Y-67320000D01*
G75*
G02*
X193482000Y-67172500I0J147500D01*
G01*
X193482000Y-66877500D01*
G75*
G02*
X193629500Y-66730000I147500J0D01*
G01*
G37*
%TD*%
%TO.C,R20*%
G36*
G01*
X193217500Y-70160000D02*
X193562500Y-70160000D01*
G75*
G02*
X193710000Y-70307500I0J-147500D01*
G01*
X193710000Y-70602500D01*
G75*
G02*
X193562500Y-70750000I-147500J0D01*
G01*
X193217500Y-70750000D01*
G75*
G02*
X193070000Y-70602500I0J147500D01*
G01*
X193070000Y-70307500D01*
G75*
G02*
X193217500Y-70160000I147500J0D01*
G01*
G37*
G36*
G01*
X193217500Y-69190000D02*
X193562500Y-69190000D01*
G75*
G02*
X193710000Y-69337500I0J-147500D01*
G01*
X193710000Y-69632500D01*
G75*
G02*
X193562500Y-69780000I-147500J0D01*
G01*
X193217500Y-69780000D01*
G75*
G02*
X193070000Y-69632500I0J147500D01*
G01*
X193070000Y-69337500D01*
G75*
G02*
X193217500Y-69190000I147500J0D01*
G01*
G37*
%TD*%
%TO.C,R21*%
G36*
G01*
X196102500Y-70770000D02*
X195757500Y-70770000D01*
G75*
G02*
X195610000Y-70622500I0J147500D01*
G01*
X195610000Y-70327500D01*
G75*
G02*
X195757500Y-70180000I147500J0D01*
G01*
X196102500Y-70180000D01*
G75*
G02*
X196250000Y-70327500I0J-147500D01*
G01*
X196250000Y-70622500D01*
G75*
G02*
X196102500Y-70770000I-147500J0D01*
G01*
G37*
G36*
G01*
X196102500Y-69800000D02*
X195757500Y-69800000D01*
G75*
G02*
X195610000Y-69652500I0J147500D01*
G01*
X195610000Y-69357500D01*
G75*
G02*
X195757500Y-69210000I147500J0D01*
G01*
X196102500Y-69210000D01*
G75*
G02*
X196250000Y-69357500I0J-147500D01*
G01*
X196250000Y-69652500D01*
G75*
G02*
X196102500Y-69800000I-147500J0D01*
G01*
G37*
%TD*%
D11*
%TO.C,RV5*%
X173729000Y-51568600D03*
D12*
X174879000Y-55568600D03*
D11*
X176029000Y-51568600D03*
%TD*%
%TO.C,RV11*%
X175394000Y-59912500D03*
D12*
X174244000Y-63912500D03*
D11*
X173094000Y-59912500D03*
%TD*%
%TO.C,RV16*%
X196817600Y-51594000D03*
D12*
X197967600Y-55594000D03*
D11*
X199117600Y-51594000D03*
%TD*%
%TO.C,R4*%
G36*
G01*
X178186000Y-62275500D02*
X178186000Y-61930500D01*
G75*
G02*
X178333500Y-61783000I147500J0D01*
G01*
X178628500Y-61783000D01*
G75*
G02*
X178776000Y-61930500I0J-147500D01*
G01*
X178776000Y-62275500D01*
G75*
G02*
X178628500Y-62423000I-147500J0D01*
G01*
X178333500Y-62423000D01*
G75*
G02*
X178186000Y-62275500I0J147500D01*
G01*
G37*
G36*
G01*
X179156000Y-62275500D02*
X179156000Y-61930500D01*
G75*
G02*
X179303500Y-61783000I147500J0D01*
G01*
X179598500Y-61783000D01*
G75*
G02*
X179746000Y-61930500I0J-147500D01*
G01*
X179746000Y-62275500D01*
G75*
G02*
X179598500Y-62423000I-147500J0D01*
G01*
X179303500Y-62423000D01*
G75*
G02*
X179156000Y-62275500I0J147500D01*
G01*
G37*
%TD*%
%TO.C,J4*%
G36*
G01*
X175650600Y-74539001D02*
X175650600Y-73288999D01*
G75*
G02*
X175900599Y-73039000I249999J0D01*
G01*
X176600601Y-73039000D01*
G75*
G02*
X176850600Y-73288999I0J-249999D01*
G01*
X176850600Y-74539001D01*
G75*
G02*
X176600601Y-74789000I-249999J0D01*
G01*
X175900599Y-74789000D01*
G75*
G02*
X175650600Y-74539001I0J249999D01*
G01*
G37*
D13*
X178250600Y-73914000D03*
X180250600Y-73914000D03*
X182250600Y-73914000D03*
%TD*%
%TO.C,C1*%
G36*
G01*
X177718500Y-68598000D02*
X177373500Y-68598000D01*
G75*
G02*
X177226000Y-68450500I0J147500D01*
G01*
X177226000Y-68155500D01*
G75*
G02*
X177373500Y-68008000I147500J0D01*
G01*
X177718500Y-68008000D01*
G75*
G02*
X177866000Y-68155500I0J-147500D01*
G01*
X177866000Y-68450500D01*
G75*
G02*
X177718500Y-68598000I-147500J0D01*
G01*
G37*
G36*
G01*
X177718500Y-67628000D02*
X177373500Y-67628000D01*
G75*
G02*
X177226000Y-67480500I0J147500D01*
G01*
X177226000Y-67185500D01*
G75*
G02*
X177373500Y-67038000I147500J0D01*
G01*
X177718500Y-67038000D01*
G75*
G02*
X177866000Y-67185500I0J-147500D01*
G01*
X177866000Y-67480500D01*
G75*
G02*
X177718500Y-67628000I-147500J0D01*
G01*
G37*
%TD*%
%TO.C,C6*%
G36*
G01*
X191764700Y-67348600D02*
X191419700Y-67348600D01*
G75*
G02*
X191272200Y-67201100I0J147500D01*
G01*
X191272200Y-66906100D01*
G75*
G02*
X191419700Y-66758600I147500J0D01*
G01*
X191764700Y-66758600D01*
G75*
G02*
X191912200Y-66906100I0J-147500D01*
G01*
X191912200Y-67201100D01*
G75*
G02*
X191764700Y-67348600I-147500J0D01*
G01*
G37*
G36*
G01*
X191764700Y-68318600D02*
X191419700Y-68318600D01*
G75*
G02*
X191272200Y-68171100I0J147500D01*
G01*
X191272200Y-67876100D01*
G75*
G02*
X191419700Y-67728600I147500J0D01*
G01*
X191764700Y-67728600D01*
G75*
G02*
X191912200Y-67876100I0J-147500D01*
G01*
X191912200Y-68171100D01*
G75*
G02*
X191764700Y-68318600I-147500J0D01*
G01*
G37*
%TD*%
%TO.C,C2*%
G36*
G01*
X177718500Y-70104500D02*
X177373500Y-70104500D01*
G75*
G02*
X177226000Y-69957000I0J147500D01*
G01*
X177226000Y-69662000D01*
G75*
G02*
X177373500Y-69514500I147500J0D01*
G01*
X177718500Y-69514500D01*
G75*
G02*
X177866000Y-69662000I0J-147500D01*
G01*
X177866000Y-69957000D01*
G75*
G02*
X177718500Y-70104500I-147500J0D01*
G01*
G37*
G36*
G01*
X177718500Y-71074500D02*
X177373500Y-71074500D01*
G75*
G02*
X177226000Y-70927000I0J147500D01*
G01*
X177226000Y-70632000D01*
G75*
G02*
X177373500Y-70484500I147500J0D01*
G01*
X177718500Y-70484500D01*
G75*
G02*
X177866000Y-70632000I0J-147500D01*
G01*
X177866000Y-70927000D01*
G75*
G02*
X177718500Y-71074500I-147500J0D01*
G01*
G37*
%TD*%
%TO.C,C3*%
G36*
G01*
X190835500Y-57487600D02*
X191180500Y-57487600D01*
G75*
G02*
X191328000Y-57635100I0J-147500D01*
G01*
X191328000Y-57930100D01*
G75*
G02*
X191180500Y-58077600I-147500J0D01*
G01*
X190835500Y-58077600D01*
G75*
G02*
X190688000Y-57930100I0J147500D01*
G01*
X190688000Y-57635100D01*
G75*
G02*
X190835500Y-57487600I147500J0D01*
G01*
G37*
G36*
G01*
X190835500Y-58457600D02*
X191180500Y-58457600D01*
G75*
G02*
X191328000Y-58605100I0J-147500D01*
G01*
X191328000Y-58900100D01*
G75*
G02*
X191180500Y-59047600I-147500J0D01*
G01*
X190835500Y-59047600D01*
G75*
G02*
X190688000Y-58900100I0J147500D01*
G01*
X190688000Y-58605100D01*
G75*
G02*
X190835500Y-58457600I147500J0D01*
G01*
G37*
%TD*%
%TO.C,C4*%
G36*
G01*
X188735200Y-64470500D02*
X188735200Y-64815500D01*
G75*
G02*
X188587700Y-64963000I-147500J0D01*
G01*
X188292700Y-64963000D01*
G75*
G02*
X188145200Y-64815500I0J147500D01*
G01*
X188145200Y-64470500D01*
G75*
G02*
X188292700Y-64323000I147500J0D01*
G01*
X188587700Y-64323000D01*
G75*
G02*
X188735200Y-64470500I0J-147500D01*
G01*
G37*
G36*
G01*
X189705200Y-64470500D02*
X189705200Y-64815500D01*
G75*
G02*
X189557700Y-64963000I-147500J0D01*
G01*
X189262700Y-64963000D01*
G75*
G02*
X189115200Y-64815500I0J147500D01*
G01*
X189115200Y-64470500D01*
G75*
G02*
X189262700Y-64323000I147500J0D01*
G01*
X189557700Y-64323000D01*
G75*
G02*
X189705200Y-64470500I0J-147500D01*
G01*
G37*
%TD*%
%TO.C,C7*%
G36*
G01*
X181782500Y-62040000D02*
X181437500Y-62040000D01*
G75*
G02*
X181290000Y-61892500I0J147500D01*
G01*
X181290000Y-61597500D01*
G75*
G02*
X181437500Y-61450000I147500J0D01*
G01*
X181782500Y-61450000D01*
G75*
G02*
X181930000Y-61597500I0J-147500D01*
G01*
X181930000Y-61892500D01*
G75*
G02*
X181782500Y-62040000I-147500J0D01*
G01*
G37*
G36*
G01*
X181782500Y-63010000D02*
X181437500Y-63010000D01*
G75*
G02*
X181290000Y-62862500I0J147500D01*
G01*
X181290000Y-62567500D01*
G75*
G02*
X181437500Y-62420000I147500J0D01*
G01*
X181782500Y-62420000D01*
G75*
G02*
X181930000Y-62567500I0J-147500D01*
G01*
X181930000Y-62862500D01*
G75*
G02*
X181782500Y-63010000I-147500J0D01*
G01*
G37*
%TD*%
%TO.C,J3*%
G36*
G01*
X189366600Y-74513601D02*
X189366600Y-73263599D01*
G75*
G02*
X189616599Y-73013600I249999J0D01*
G01*
X190316601Y-73013600D01*
G75*
G02*
X190566600Y-73263599I0J-249999D01*
G01*
X190566600Y-74513601D01*
G75*
G02*
X190316601Y-74763600I-249999J0D01*
G01*
X189616599Y-74763600D01*
G75*
G02*
X189366600Y-74513601I0J249999D01*
G01*
G37*
X191966600Y-73888600D03*
X193966600Y-73888600D03*
%TD*%
D14*
%TO.C,J1B1*%
G36*
X186642159Y-49379532D02*
G01*
X186637891Y-49393601D01*
X186630960Y-49406568D01*
X186621633Y-49417933D01*
X186610268Y-49427260D01*
X186597301Y-49434191D01*
X186583232Y-49438459D01*
X186568600Y-49439900D01*
X184689000Y-49439900D01*
X184674368Y-49438459D01*
X184660299Y-49434191D01*
X184647332Y-49427260D01*
X184635967Y-49417933D01*
X184626640Y-49406568D01*
X184619709Y-49393601D01*
X184615441Y-49379532D01*
X184614000Y-49364900D01*
X184614000Y-46266100D01*
X184615441Y-46251468D01*
X184619709Y-46237399D01*
X184626640Y-46224432D01*
X184635967Y-46213067D01*
X184647332Y-46203740D01*
X184660299Y-46196809D01*
X184674368Y-46192541D01*
X184689000Y-46191100D01*
X186568600Y-46191100D01*
X186583232Y-46192541D01*
X186597301Y-46196809D01*
X186610268Y-46203740D01*
X186621633Y-46213067D01*
X186630960Y-46224432D01*
X186637891Y-46237399D01*
X186642159Y-46251468D01*
X186643600Y-46266100D01*
X186643600Y-49364900D01*
X186642159Y-49379532D01*
G37*
G36*
X180642159Y-49379532D02*
G01*
X180637891Y-49393601D01*
X180630960Y-49406568D01*
X180621633Y-49417933D01*
X180610268Y-49427260D01*
X180597301Y-49434191D01*
X180583232Y-49438459D01*
X180568600Y-49439900D01*
X178689000Y-49439900D01*
X178674368Y-49438459D01*
X178660299Y-49434191D01*
X178647332Y-49427260D01*
X178635967Y-49417933D01*
X178626640Y-49406568D01*
X178619709Y-49393601D01*
X178615441Y-49379532D01*
X178614000Y-49364900D01*
X178614000Y-46266100D01*
X178615441Y-46251468D01*
X178619709Y-46237399D01*
X178626640Y-46224432D01*
X178635967Y-46213067D01*
X178647332Y-46203740D01*
X178660299Y-46196809D01*
X178674368Y-46192541D01*
X178689000Y-46191100D01*
X180568600Y-46191100D01*
X180583232Y-46192541D01*
X180597301Y-46196809D01*
X180610268Y-46203740D01*
X180621633Y-46213067D01*
X180630960Y-46224432D01*
X180637891Y-46237399D01*
X180642159Y-46251468D01*
X180643600Y-46266100D01*
X180643600Y-49364900D01*
X180642159Y-49379532D01*
G37*
G36*
X183642159Y-49379532D02*
G01*
X183637891Y-49393601D01*
X183630960Y-49406568D01*
X183621633Y-49417933D01*
X183610268Y-49427260D01*
X183597301Y-49434191D01*
X183583232Y-49438459D01*
X183568600Y-49439900D01*
X181689000Y-49439900D01*
X181674368Y-49438459D01*
X181660299Y-49434191D01*
X181647332Y-49427260D01*
X181635967Y-49417933D01*
X181626640Y-49406568D01*
X181619709Y-49393601D01*
X181615441Y-49379532D01*
X181614000Y-49364900D01*
X181614000Y-46266100D01*
X181615441Y-46251468D01*
X181619709Y-46237399D01*
X181626640Y-46224432D01*
X181635967Y-46213067D01*
X181647332Y-46203740D01*
X181660299Y-46196809D01*
X181674368Y-46192541D01*
X181689000Y-46191100D01*
X183568600Y-46191100D01*
X183583232Y-46192541D01*
X183597301Y-46196809D01*
X183610268Y-46203740D01*
X183621633Y-46213067D01*
X183630960Y-46224432D01*
X183637891Y-46237399D01*
X183642159Y-46251468D01*
X183643600Y-46266100D01*
X183643600Y-49364900D01*
X183642159Y-49379532D01*
G37*
%TD*%
%TO.C,J2B1*%
G36*
X193827559Y-49379532D02*
G01*
X193823291Y-49393601D01*
X193816360Y-49406568D01*
X193807033Y-49417933D01*
X193795668Y-49427260D01*
X193782701Y-49434191D01*
X193768632Y-49438459D01*
X193754000Y-49439900D01*
X191874400Y-49439900D01*
X191859768Y-49438459D01*
X191845699Y-49434191D01*
X191832732Y-49427260D01*
X191821367Y-49417933D01*
X191812040Y-49406568D01*
X191805109Y-49393601D01*
X191800841Y-49379532D01*
X191799400Y-49364900D01*
X191799400Y-46266100D01*
X191800841Y-46251468D01*
X191805109Y-46237399D01*
X191812040Y-46224432D01*
X191821367Y-46213067D01*
X191832732Y-46203740D01*
X191845699Y-46196809D01*
X191859768Y-46192541D01*
X191874400Y-46191100D01*
X193754000Y-46191100D01*
X193768632Y-46192541D01*
X193782701Y-46196809D01*
X193795668Y-46203740D01*
X193807033Y-46213067D01*
X193816360Y-46224432D01*
X193823291Y-46237399D01*
X193827559Y-46251468D01*
X193829000Y-46266100D01*
X193829000Y-49364900D01*
X193827559Y-49379532D01*
G37*
G36*
X190827559Y-49379532D02*
G01*
X190823291Y-49393601D01*
X190816360Y-49406568D01*
X190807033Y-49417933D01*
X190795668Y-49427260D01*
X190782701Y-49434191D01*
X190768632Y-49438459D01*
X190754000Y-49439900D01*
X188874400Y-49439900D01*
X188859768Y-49438459D01*
X188845699Y-49434191D01*
X188832732Y-49427260D01*
X188821367Y-49417933D01*
X188812040Y-49406568D01*
X188805109Y-49393601D01*
X188800841Y-49379532D01*
X188799400Y-49364900D01*
X188799400Y-46266100D01*
X188800841Y-46251468D01*
X188805109Y-46237399D01*
X188812040Y-46224432D01*
X188821367Y-46213067D01*
X188832732Y-46203740D01*
X188845699Y-46196809D01*
X188859768Y-46192541D01*
X188874400Y-46191100D01*
X190754000Y-46191100D01*
X190768632Y-46192541D01*
X190782701Y-46196809D01*
X190795668Y-46203740D01*
X190807033Y-46213067D01*
X190816360Y-46224432D01*
X190823291Y-46237399D01*
X190827559Y-46251468D01*
X190829000Y-46266100D01*
X190829000Y-49364900D01*
X190827559Y-49379532D01*
G37*
%TD*%
D10*
%TO.C,D1*%
X175348900Y-67640200D03*
X173596300Y-68290199D03*
X173596300Y-66990201D03*
%TD*%
D15*
%TO.C,U1*%
X188645800Y-58191400D03*
X188645800Y-59461400D03*
X188645800Y-60731400D03*
X188645800Y-62001400D03*
X183718200Y-62001400D03*
X183718200Y-60731400D03*
X183718200Y-59461400D03*
X183718200Y-58191400D03*
%TD*%
%TO.C,U2*%
X183654700Y-66230500D03*
X183654700Y-67500500D03*
X183654700Y-68770500D03*
X183654700Y-70040500D03*
X188582300Y-70040500D03*
X188582300Y-68770500D03*
X188582300Y-67500500D03*
X188582300Y-66230500D03*
%TD*%
M02*
