%TF.GenerationSoftware,KiCad,Pcbnew,(5.1.9-0-10_14)*%
%TF.CreationDate,2021-05-07T17:02:22+01:00*%
%TF.ProjectId,EMGSensor3.1,454d4753-656e-4736-9f72-332e312e6b69,rev?*%
%TF.SameCoordinates,Original*%
%TF.FileFunction,Legend,Top*%
%TF.FilePolarity,Positive*%
%FSLAX46Y46*%
G04 Gerber Fmt 4.6, Leading zero omitted, Abs format (unit mm)*
G04 Created by KiCad (PCBNEW (5.1.9-0-10_14)) date 2021-05-07 17:02:22*
%MOMM*%
%LPD*%
G01*
G04 APERTURE LIST*
%ADD10C,0.100000*%
%ADD11C,0.150000*%
%ADD12C,0.152400*%
%ADD13C,0.120000*%
G04 APERTURE END LIST*
D10*
X200274685Y-75022171D02*
X201024685Y-74772171D01*
X200274685Y-74522171D01*
X201024685Y-74165028D02*
X200988971Y-74236457D01*
X200953257Y-74272171D01*
X200881828Y-74307885D01*
X200667542Y-74307885D01*
X200596114Y-74272171D01*
X200560400Y-74236457D01*
X200524685Y-74165028D01*
X200524685Y-74057885D01*
X200560400Y-73986457D01*
X200596114Y-73950742D01*
X200667542Y-73915028D01*
X200881828Y-73915028D01*
X200953257Y-73950742D01*
X200988971Y-73986457D01*
X201024685Y-74057885D01*
X201024685Y-74165028D01*
X201024685Y-73665028D02*
X200524685Y-73272171D01*
X200524685Y-73665028D02*
X201024685Y-73272171D01*
X200631828Y-72986457D02*
X200631828Y-72736457D01*
X201024685Y-72629314D02*
X201024685Y-72986457D01*
X200274685Y-72986457D01*
X200274685Y-72629314D01*
X201024685Y-72307885D02*
X200274685Y-72307885D01*
X200810400Y-72057885D01*
X200274685Y-71807885D01*
X201024685Y-71807885D01*
X200310400Y-71057885D02*
X200274685Y-71129314D01*
X200274685Y-71236457D01*
X200310400Y-71343600D01*
X200381828Y-71415028D01*
X200453257Y-71450742D01*
X200596114Y-71486457D01*
X200703257Y-71486457D01*
X200846114Y-71450742D01*
X200917542Y-71415028D01*
X200988971Y-71343600D01*
X201024685Y-71236457D01*
X201024685Y-71165028D01*
X200988971Y-71057885D01*
X200953257Y-71022171D01*
X200703257Y-71022171D01*
X200703257Y-71165028D01*
X200524685Y-70200742D02*
X201024685Y-70022171D01*
X200524685Y-69843600D01*
X200274685Y-69629314D02*
X200274685Y-69165028D01*
X200560400Y-69415028D01*
X200560400Y-69307885D01*
X200596114Y-69236457D01*
X200631828Y-69200742D01*
X200703257Y-69165028D01*
X200881828Y-69165028D01*
X200953257Y-69200742D01*
X200988971Y-69236457D01*
X201024685Y-69307885D01*
X201024685Y-69522171D01*
X200988971Y-69593600D01*
X200953257Y-69629314D01*
X193286142Y-77505714D02*
X193667095Y-77505714D01*
X194143285Y-77196190D02*
X193905190Y-77196190D01*
X193881380Y-77434285D01*
X193905190Y-77410476D01*
X193952809Y-77386666D01*
X194071857Y-77386666D01*
X194119476Y-77410476D01*
X194143285Y-77434285D01*
X194167095Y-77481904D01*
X194167095Y-77600952D01*
X194143285Y-77648571D01*
X194119476Y-77672380D01*
X194071857Y-77696190D01*
X193952809Y-77696190D01*
X193905190Y-77672380D01*
X193881380Y-77648571D01*
X194309952Y-77196190D02*
X194476619Y-77696190D01*
X194643285Y-77196190D01*
X191304942Y-77505714D02*
X191685895Y-77505714D01*
X191495419Y-77696190D02*
X191495419Y-77315238D01*
X192162085Y-77196190D02*
X191923990Y-77196190D01*
X191900180Y-77434285D01*
X191923990Y-77410476D01*
X191971609Y-77386666D01*
X192090657Y-77386666D01*
X192138276Y-77410476D01*
X192162085Y-77434285D01*
X192185895Y-77481904D01*
X192185895Y-77600952D01*
X192162085Y-77648571D01*
X192138276Y-77672380D01*
X192090657Y-77696190D01*
X191971609Y-77696190D01*
X191923990Y-77672380D01*
X191900180Y-77648571D01*
X192328752Y-77196190D02*
X192495419Y-77696190D01*
X192662085Y-77196190D01*
X189560247Y-77220000D02*
X189512628Y-77196190D01*
X189441200Y-77196190D01*
X189369771Y-77220000D01*
X189322152Y-77267619D01*
X189298342Y-77315238D01*
X189274533Y-77410476D01*
X189274533Y-77481904D01*
X189298342Y-77577142D01*
X189322152Y-77624761D01*
X189369771Y-77672380D01*
X189441200Y-77696190D01*
X189488819Y-77696190D01*
X189560247Y-77672380D01*
X189584057Y-77648571D01*
X189584057Y-77481904D01*
X189488819Y-77481904D01*
X189798342Y-77696190D02*
X189798342Y-77196190D01*
X190084057Y-77696190D01*
X190084057Y-77196190D01*
X190322152Y-77696190D02*
X190322152Y-77196190D01*
X190441200Y-77196190D01*
X190512628Y-77220000D01*
X190560247Y-77267619D01*
X190584057Y-77315238D01*
X190607866Y-77410476D01*
X190607866Y-77481904D01*
X190584057Y-77577142D01*
X190560247Y-77624761D01*
X190512628Y-77672380D01*
X190441200Y-77696190D01*
X190322152Y-77696190D01*
X181552933Y-77196190D02*
X181648171Y-77196190D01*
X181695790Y-77220000D01*
X181743409Y-77267619D01*
X181767219Y-77362857D01*
X181767219Y-77529523D01*
X181743409Y-77624761D01*
X181695790Y-77672380D01*
X181648171Y-77696190D01*
X181552933Y-77696190D01*
X181505314Y-77672380D01*
X181457695Y-77624761D01*
X181433885Y-77529523D01*
X181433885Y-77362857D01*
X181457695Y-77267619D01*
X181505314Y-77220000D01*
X181552933Y-77196190D01*
X182195790Y-77362857D02*
X182195790Y-77696190D01*
X181981504Y-77362857D02*
X181981504Y-77624761D01*
X182005314Y-77672380D01*
X182052933Y-77696190D01*
X182124361Y-77696190D01*
X182171980Y-77672380D01*
X182195790Y-77648571D01*
X182362457Y-77362857D02*
X182552933Y-77362857D01*
X182433885Y-77196190D02*
X182433885Y-77624761D01*
X182457695Y-77672380D01*
X182505314Y-77696190D01*
X182552933Y-77696190D01*
X182886266Y-77434285D02*
X182957695Y-77458095D01*
X182981504Y-77481904D01*
X183005314Y-77529523D01*
X183005314Y-77600952D01*
X182981504Y-77648571D01*
X182957695Y-77672380D01*
X182910076Y-77696190D01*
X182719600Y-77696190D01*
X182719600Y-77196190D01*
X182886266Y-77196190D01*
X182933885Y-77220000D01*
X182957695Y-77243809D01*
X182981504Y-77291428D01*
X182981504Y-77339047D01*
X182957695Y-77386666D01*
X182933885Y-77410476D01*
X182886266Y-77434285D01*
X182719600Y-77434285D01*
X179620147Y-77170790D02*
X179715385Y-77170790D01*
X179763004Y-77194600D01*
X179810623Y-77242219D01*
X179834433Y-77337457D01*
X179834433Y-77504123D01*
X179810623Y-77599361D01*
X179763004Y-77646980D01*
X179715385Y-77670790D01*
X179620147Y-77670790D01*
X179572528Y-77646980D01*
X179524909Y-77599361D01*
X179501100Y-77504123D01*
X179501100Y-77337457D01*
X179524909Y-77242219D01*
X179572528Y-77194600D01*
X179620147Y-77170790D01*
X180263004Y-77337457D02*
X180263004Y-77670790D01*
X180048719Y-77337457D02*
X180048719Y-77599361D01*
X180072528Y-77646980D01*
X180120147Y-77670790D01*
X180191576Y-77670790D01*
X180239195Y-77646980D01*
X180263004Y-77623171D01*
X180429671Y-77337457D02*
X180620147Y-77337457D01*
X180501100Y-77170790D02*
X180501100Y-77599361D01*
X180524909Y-77646980D01*
X180572528Y-77670790D01*
X180620147Y-77670790D01*
X180763004Y-77527933D02*
X181001100Y-77527933D01*
X180715385Y-77670790D02*
X180882052Y-77170790D01*
X181048719Y-77670790D01*
X177850847Y-77194600D02*
X177803228Y-77170790D01*
X177731800Y-77170790D01*
X177660371Y-77194600D01*
X177612752Y-77242219D01*
X177588942Y-77289838D01*
X177565133Y-77385076D01*
X177565133Y-77456504D01*
X177588942Y-77551742D01*
X177612752Y-77599361D01*
X177660371Y-77646980D01*
X177731800Y-77670790D01*
X177779419Y-77670790D01*
X177850847Y-77646980D01*
X177874657Y-77623171D01*
X177874657Y-77456504D01*
X177779419Y-77456504D01*
X178088942Y-77670790D02*
X178088942Y-77170790D01*
X178374657Y-77670790D01*
X178374657Y-77170790D01*
X178612752Y-77670790D02*
X178612752Y-77170790D01*
X178731800Y-77170790D01*
X178803228Y-77194600D01*
X178850847Y-77242219D01*
X178874657Y-77289838D01*
X178898466Y-77385076D01*
X178898466Y-77456504D01*
X178874657Y-77551742D01*
X178850847Y-77599361D01*
X178803228Y-77646980D01*
X178731800Y-77670790D01*
X178612752Y-77670790D01*
X175344247Y-77480314D02*
X175725200Y-77480314D01*
X175534723Y-77670790D02*
X175534723Y-77289838D01*
X175915676Y-77170790D02*
X176225200Y-77170790D01*
X176058533Y-77361266D01*
X176129961Y-77361266D01*
X176177580Y-77385076D01*
X176201390Y-77408885D01*
X176225200Y-77456504D01*
X176225200Y-77575552D01*
X176201390Y-77623171D01*
X176177580Y-77646980D01*
X176129961Y-77670790D01*
X175987104Y-77670790D01*
X175939485Y-77646980D01*
X175915676Y-77623171D01*
X176368057Y-77170790D02*
X176534723Y-77670790D01*
X176701390Y-77170790D01*
X176820438Y-77170790D02*
X177129961Y-77170790D01*
X176963295Y-77361266D01*
X177034723Y-77361266D01*
X177082342Y-77385076D01*
X177106152Y-77408885D01*
X177129961Y-77456504D01*
X177129961Y-77575552D01*
X177106152Y-77623171D01*
X177082342Y-77646980D01*
X177034723Y-77670790D01*
X176891866Y-77670790D01*
X176844247Y-77646980D01*
X176820438Y-77623171D01*
D11*
X191938376Y-50934880D02*
X191938376Y-49934880D01*
X192271709Y-50649166D01*
X192605042Y-49934880D01*
X192605042Y-50934880D01*
X193033614Y-50030119D02*
X193081233Y-49982500D01*
X193176471Y-49934880D01*
X193414566Y-49934880D01*
X193509804Y-49982500D01*
X193557423Y-50030119D01*
X193605042Y-50125357D01*
X193605042Y-50220595D01*
X193557423Y-50363452D01*
X192985995Y-50934880D01*
X193605042Y-50934880D01*
X189123723Y-50411071D02*
X189457057Y-50411071D01*
X189599914Y-50934880D02*
X189123723Y-50934880D01*
X189123723Y-49934880D01*
X189599914Y-49934880D01*
X189980866Y-50030119D02*
X190028485Y-49982500D01*
X190123723Y-49934880D01*
X190361819Y-49934880D01*
X190457057Y-49982500D01*
X190504676Y-50030119D01*
X190552295Y-50125357D01*
X190552295Y-50220595D01*
X190504676Y-50363452D01*
X189933247Y-50934880D01*
X190552295Y-50934880D01*
X184826376Y-50960280D02*
X184826376Y-49960280D01*
X185159709Y-50674566D01*
X185493042Y-49960280D01*
X185493042Y-50960280D01*
X186493042Y-50960280D02*
X185921614Y-50960280D01*
X186207328Y-50960280D02*
X186207328Y-49960280D01*
X186112090Y-50103138D01*
X186016852Y-50198376D01*
X185921614Y-50245995D01*
X181935523Y-50436471D02*
X182268857Y-50436471D01*
X182411714Y-50960280D02*
X181935523Y-50960280D01*
X181935523Y-49960280D01*
X182411714Y-49960280D01*
X183364095Y-50960280D02*
X182792666Y-50960280D01*
X183078380Y-50960280D02*
X183078380Y-49960280D01*
X182983142Y-50103138D01*
X182887904Y-50198376D01*
X182792666Y-50245995D01*
X179160538Y-50973480D02*
X178827204Y-50497290D01*
X178589109Y-50973480D02*
X178589109Y-49973480D01*
X178970061Y-49973480D01*
X179065300Y-50021100D01*
X179112919Y-50068719D01*
X179160538Y-50163957D01*
X179160538Y-50306814D01*
X179112919Y-50402052D01*
X179065300Y-50449671D01*
X178970061Y-50497290D01*
X178589109Y-50497290D01*
X179970061Y-50925861D02*
X179874823Y-50973480D01*
X179684347Y-50973480D01*
X179589109Y-50925861D01*
X179541490Y-50830623D01*
X179541490Y-50449671D01*
X179589109Y-50354433D01*
X179684347Y-50306814D01*
X179874823Y-50306814D01*
X179970061Y-50354433D01*
X180017680Y-50449671D01*
X180017680Y-50544909D01*
X179541490Y-50640147D01*
X180303395Y-50306814D02*
X180684347Y-50306814D01*
X180446252Y-50973480D02*
X180446252Y-50116338D01*
X180493871Y-50021100D01*
X180589109Y-49973480D01*
X180684347Y-49973480D01*
D12*
%TO.C,D2*%
X199072500Y-67754259D02*
X199072500Y-67576941D01*
X199072500Y-66433700D02*
X197472300Y-66433700D01*
X197472300Y-66433700D02*
X197472300Y-67104260D01*
X197472300Y-68897500D02*
X199072500Y-68897500D01*
X197472300Y-68226940D02*
X197472300Y-68897500D01*
X199504300Y-70040500D02*
G75*
G03*
X199504300Y-70040500I-127000J0D01*
G01*
D13*
%TO.C,RV22*%
X200871000Y-59479000D02*
X200871000Y-64219000D01*
X196131000Y-59479000D02*
X196131000Y-64219000D01*
X199741000Y-64219000D02*
X200871000Y-64219000D01*
X196131000Y-64219000D02*
X197261000Y-64219000D01*
X198242000Y-59479000D02*
X198761000Y-59479000D01*
X196131000Y-59479000D02*
X196462000Y-59479000D01*
X200541000Y-59479000D02*
X200871000Y-59479000D01*
%TO.C,J1*%
X178107000Y-51420500D02*
X178107000Y-52670500D01*
X179357000Y-51420500D02*
X178107000Y-51420500D01*
X183467000Y-55830500D02*
X183467000Y-55330500D01*
X183567000Y-55330500D02*
X183567000Y-55830500D01*
X183367000Y-55330500D02*
X183567000Y-55330500D01*
X183367000Y-55830500D02*
X183367000Y-55330500D01*
X181467000Y-55830500D02*
X181467000Y-55330500D01*
X181567000Y-55330500D02*
X181567000Y-55830500D01*
X181367000Y-55330500D02*
X181567000Y-55330500D01*
X181367000Y-55830500D02*
X181367000Y-55330500D01*
X186527000Y-54330500D02*
X185917000Y-54330500D01*
X186527000Y-53030500D02*
X185917000Y-53030500D01*
X178407000Y-54330500D02*
X179017000Y-54330500D01*
X178407000Y-53030500D02*
X179017000Y-53030500D01*
X183967000Y-52330500D02*
X183967000Y-51720500D01*
X185917000Y-52330500D02*
X183967000Y-52330500D01*
X185917000Y-55830500D02*
X185917000Y-52330500D01*
X179017000Y-55830500D02*
X185917000Y-55830500D01*
X179017000Y-52330500D02*
X179017000Y-55830500D01*
X180967000Y-52330500D02*
X179017000Y-52330500D01*
X180967000Y-51720500D02*
X180967000Y-52330500D01*
X180167000Y-51620500D02*
X179867000Y-51620500D01*
X179867000Y-51520500D02*
X179867000Y-51720500D01*
X180167000Y-51520500D02*
X179867000Y-51520500D01*
X180167000Y-51720500D02*
X180167000Y-51520500D01*
X186527000Y-51720500D02*
X178407000Y-51720500D01*
X186527000Y-56440500D02*
X186527000Y-51720500D01*
X178407000Y-56440500D02*
X186527000Y-56440500D01*
X178407000Y-51720500D02*
X178407000Y-56440500D01*
%TO.C,J2*%
X188249500Y-51720500D02*
X188249500Y-56440500D01*
X188249500Y-56440500D02*
X194369500Y-56440500D01*
X194369500Y-56440500D02*
X194369500Y-51720500D01*
X194369500Y-51720500D02*
X188249500Y-51720500D01*
X190009500Y-51720500D02*
X190009500Y-51520500D01*
X190009500Y-51520500D02*
X189709500Y-51520500D01*
X189709500Y-51520500D02*
X189709500Y-51720500D01*
X190009500Y-51620500D02*
X189709500Y-51620500D01*
X190809500Y-51720500D02*
X190809500Y-52330500D01*
X190809500Y-52330500D02*
X188859500Y-52330500D01*
X188859500Y-52330500D02*
X188859500Y-55830500D01*
X188859500Y-55830500D02*
X193759500Y-55830500D01*
X193759500Y-55830500D02*
X193759500Y-52330500D01*
X193759500Y-52330500D02*
X191809500Y-52330500D01*
X191809500Y-52330500D02*
X191809500Y-51720500D01*
X188249500Y-53030500D02*
X188859500Y-53030500D01*
X188249500Y-54330500D02*
X188859500Y-54330500D01*
X194369500Y-53030500D02*
X193759500Y-53030500D01*
X194369500Y-54330500D02*
X193759500Y-54330500D01*
X191209500Y-55830500D02*
X191209500Y-55330500D01*
X191209500Y-55330500D02*
X191409500Y-55330500D01*
X191409500Y-55330500D02*
X191409500Y-55830500D01*
X191309500Y-55830500D02*
X191309500Y-55330500D01*
X189199500Y-51420500D02*
X187949500Y-51420500D01*
X187949500Y-51420500D02*
X187949500Y-52670500D01*
%TO.C,RV5*%
X176919000Y-51198600D02*
X177249000Y-51198600D01*
X172509000Y-51198600D02*
X172840000Y-51198600D01*
X174620000Y-51198600D02*
X175139000Y-51198600D01*
X172509000Y-55938600D02*
X173639000Y-55938600D01*
X176119000Y-55938600D02*
X177249000Y-55938600D01*
X172509000Y-51198600D02*
X172509000Y-55938600D01*
X177249000Y-51198600D02*
X177249000Y-55938600D01*
%TO.C,RV11*%
X176614000Y-59542500D02*
X176614000Y-64282500D01*
X171874000Y-59542500D02*
X171874000Y-64282500D01*
X175484000Y-64282500D02*
X176614000Y-64282500D01*
X171874000Y-64282500D02*
X173004000Y-64282500D01*
X173985000Y-59542500D02*
X174504000Y-59542500D01*
X171874000Y-59542500D02*
X172205000Y-59542500D01*
X176284000Y-59542500D02*
X176614000Y-59542500D01*
%TO.C,RV16*%
X200007600Y-51224000D02*
X200337600Y-51224000D01*
X195597600Y-51224000D02*
X195928600Y-51224000D01*
X197708600Y-51224000D02*
X198227600Y-51224000D01*
X195597600Y-55964000D02*
X196727600Y-55964000D01*
X199207600Y-55964000D02*
X200337600Y-55964000D01*
X195597600Y-51224000D02*
X195597600Y-55964000D01*
X200337600Y-51224000D02*
X200337600Y-55964000D01*
%TO.C,J4*%
X173890600Y-71804000D02*
X173890600Y-73054000D01*
X175140600Y-71804000D02*
X173890600Y-71804000D01*
X181250600Y-76214000D02*
X181250600Y-75714000D01*
X181350600Y-75714000D02*
X181350600Y-76214000D01*
X181150600Y-75714000D02*
X181350600Y-75714000D01*
X181150600Y-76214000D02*
X181150600Y-75714000D01*
X179250600Y-76214000D02*
X179250600Y-75714000D01*
X179350600Y-75714000D02*
X179350600Y-76214000D01*
X179150600Y-75714000D02*
X179350600Y-75714000D01*
X179150600Y-76214000D02*
X179150600Y-75714000D01*
X177250600Y-76214000D02*
X177250600Y-75714000D01*
X177350600Y-75714000D02*
X177350600Y-76214000D01*
X177150600Y-75714000D02*
X177350600Y-75714000D01*
X177150600Y-76214000D02*
X177150600Y-75714000D01*
X184310600Y-74714000D02*
X183700600Y-74714000D01*
X184310600Y-73414000D02*
X183700600Y-73414000D01*
X174190600Y-74714000D02*
X174800600Y-74714000D01*
X174190600Y-73414000D02*
X174800600Y-73414000D01*
X181750600Y-72714000D02*
X181750600Y-72104000D01*
X183700600Y-72714000D02*
X181750600Y-72714000D01*
X183700600Y-76214000D02*
X183700600Y-72714000D01*
X174800600Y-76214000D02*
X183700600Y-76214000D01*
X174800600Y-72714000D02*
X174800600Y-76214000D01*
X176750600Y-72714000D02*
X174800600Y-72714000D01*
X176750600Y-72104000D02*
X176750600Y-72714000D01*
X175950600Y-72004000D02*
X175650600Y-72004000D01*
X175650600Y-71904000D02*
X175650600Y-72104000D01*
X175950600Y-71904000D02*
X175650600Y-71904000D01*
X175950600Y-72104000D02*
X175950600Y-71904000D01*
X184310600Y-72104000D02*
X174190600Y-72104000D01*
X184310600Y-76824000D02*
X184310600Y-72104000D01*
X174190600Y-76824000D02*
X184310600Y-76824000D01*
X174190600Y-72104000D02*
X174190600Y-76824000D01*
%TO.C,J3*%
X187906600Y-72078600D02*
X187906600Y-76798600D01*
X187906600Y-76798600D02*
X196026600Y-76798600D01*
X196026600Y-76798600D02*
X196026600Y-72078600D01*
X196026600Y-72078600D02*
X187906600Y-72078600D01*
X189666600Y-72078600D02*
X189666600Y-71878600D01*
X189666600Y-71878600D02*
X189366600Y-71878600D01*
X189366600Y-71878600D02*
X189366600Y-72078600D01*
X189666600Y-71978600D02*
X189366600Y-71978600D01*
X190466600Y-72078600D02*
X190466600Y-72688600D01*
X190466600Y-72688600D02*
X188516600Y-72688600D01*
X188516600Y-72688600D02*
X188516600Y-76188600D01*
X188516600Y-76188600D02*
X195416600Y-76188600D01*
X195416600Y-76188600D02*
X195416600Y-72688600D01*
X195416600Y-72688600D02*
X193466600Y-72688600D01*
X193466600Y-72688600D02*
X193466600Y-72078600D01*
X187906600Y-73388600D02*
X188516600Y-73388600D01*
X187906600Y-74688600D02*
X188516600Y-74688600D01*
X196026600Y-73388600D02*
X195416600Y-73388600D01*
X196026600Y-74688600D02*
X195416600Y-74688600D01*
X190866600Y-76188600D02*
X190866600Y-75688600D01*
X190866600Y-75688600D02*
X191066600Y-75688600D01*
X191066600Y-75688600D02*
X191066600Y-76188600D01*
X190966600Y-76188600D02*
X190966600Y-75688600D01*
X192866600Y-76188600D02*
X192866600Y-75688600D01*
X192866600Y-75688600D02*
X193066600Y-75688600D01*
X193066600Y-75688600D02*
X193066600Y-76188600D01*
X192966600Y-76188600D02*
X192966600Y-75688600D01*
X188856600Y-71778600D02*
X187606600Y-71778600D01*
X187606600Y-71778600D02*
X187606600Y-73028600D01*
D12*
%TO.C,D1*%
X173494700Y-65265300D02*
G75*
G03*
X173494700Y-65265300I-127000J0D01*
G01*
X175272700Y-67078860D02*
X175272700Y-66408300D01*
X175272700Y-66408300D02*
X173672500Y-66408300D01*
X175272700Y-68872100D02*
X175272700Y-68201540D01*
X173672500Y-68872100D02*
X175272700Y-68872100D01*
X173672500Y-67551541D02*
X173672500Y-67728859D01*
%TO.C,U1*%
X187555653Y-57594500D02*
X184808347Y-57594500D01*
X184808347Y-62598300D02*
X187555653Y-62598300D01*
X185877200Y-57594500D02*
G75*
G03*
X186486800Y-57594500I304800J0D01*
G01*
%TO.C,U2*%
X184744847Y-70637400D02*
X187492153Y-70637400D01*
X187492153Y-65633600D02*
X184744847Y-65633600D01*
X185813700Y-65633600D02*
G75*
G03*
X186423300Y-65633600I304800J0D01*
G01*
%TO.C,D2*%
D11*
X198724780Y-68403695D02*
X197724780Y-68403695D01*
X197724780Y-68165600D01*
X197772400Y-68022742D01*
X197867638Y-67927504D01*
X197962876Y-67879885D01*
X198153352Y-67832266D01*
X198296209Y-67832266D01*
X198486685Y-67879885D01*
X198581923Y-67927504D01*
X198677161Y-68022742D01*
X198724780Y-68165600D01*
X198724780Y-68403695D01*
X197820019Y-67451314D02*
X197772400Y-67403695D01*
X197724780Y-67308457D01*
X197724780Y-67070361D01*
X197772400Y-66975123D01*
X197820019Y-66927504D01*
X197915257Y-66879885D01*
X198010495Y-66879885D01*
X198153352Y-66927504D01*
X198724780Y-67498933D01*
X198724780Y-66879885D01*
X197724780Y-67665600D02*
X197962876Y-67665600D01*
X197867638Y-67903695D02*
X197962876Y-67665600D01*
X197867638Y-67427504D01*
X198153352Y-67808457D02*
X197962876Y-67665600D01*
X198153352Y-67522742D01*
%TO.C,R9*%
D10*
X176462885Y-70686200D02*
X176105742Y-70936200D01*
X176462885Y-71114771D02*
X175712885Y-71114771D01*
X175712885Y-70829057D01*
X175748600Y-70757628D01*
X175784314Y-70721914D01*
X175855742Y-70686200D01*
X175962885Y-70686200D01*
X176034314Y-70721914D01*
X176070028Y-70757628D01*
X176105742Y-70829057D01*
X176105742Y-71114771D01*
X176462885Y-70329057D02*
X176462885Y-70186200D01*
X176427171Y-70114771D01*
X176391457Y-70079057D01*
X176284314Y-70007628D01*
X176141457Y-69971914D01*
X175855742Y-69971914D01*
X175784314Y-70007628D01*
X175748600Y-70043342D01*
X175712885Y-70114771D01*
X175712885Y-70257628D01*
X175748600Y-70329057D01*
X175784314Y-70364771D01*
X175855742Y-70400485D01*
X176034314Y-70400485D01*
X176105742Y-70364771D01*
X176141457Y-70329057D01*
X176177171Y-70257628D01*
X176177171Y-70114771D01*
X176141457Y-70043342D01*
X176105742Y-70007628D01*
X176034314Y-69971914D01*
%TO.C,RV22*%
X197696428Y-65939285D02*
X197446428Y-65582142D01*
X197267857Y-65939285D02*
X197267857Y-65189285D01*
X197553571Y-65189285D01*
X197625000Y-65225000D01*
X197660714Y-65260714D01*
X197696428Y-65332142D01*
X197696428Y-65439285D01*
X197660714Y-65510714D01*
X197625000Y-65546428D01*
X197553571Y-65582142D01*
X197267857Y-65582142D01*
X197910714Y-65189285D02*
X198160714Y-65939285D01*
X198410714Y-65189285D01*
X198625000Y-65260714D02*
X198660714Y-65225000D01*
X198732142Y-65189285D01*
X198910714Y-65189285D01*
X198982142Y-65225000D01*
X199017857Y-65260714D01*
X199053571Y-65332142D01*
X199053571Y-65403571D01*
X199017857Y-65510714D01*
X198589285Y-65939285D01*
X199053571Y-65939285D01*
X199339285Y-65260714D02*
X199375000Y-65225000D01*
X199446428Y-65189285D01*
X199625000Y-65189285D01*
X199696428Y-65225000D01*
X199732142Y-65260714D01*
X199767857Y-65332142D01*
X199767857Y-65403571D01*
X199732142Y-65510714D01*
X199303571Y-65939285D01*
X199767857Y-65939285D01*
%TO.C,C5*%
X195617857Y-65625000D02*
X195653571Y-65660714D01*
X195689285Y-65767857D01*
X195689285Y-65839285D01*
X195653571Y-65946428D01*
X195582142Y-66017857D01*
X195510714Y-66053571D01*
X195367857Y-66089285D01*
X195260714Y-66089285D01*
X195117857Y-66053571D01*
X195046428Y-66017857D01*
X194975000Y-65946428D01*
X194939285Y-65839285D01*
X194939285Y-65767857D01*
X194975000Y-65660714D01*
X195010714Y-65625000D01*
X194939285Y-64946428D02*
X194939285Y-65303571D01*
X195296428Y-65339285D01*
X195260714Y-65303571D01*
X195225000Y-65232142D01*
X195225000Y-65053571D01*
X195260714Y-64982142D01*
X195296428Y-64946428D01*
X195367857Y-64910714D01*
X195546428Y-64910714D01*
X195617857Y-64946428D01*
X195653571Y-64982142D01*
X195689285Y-65053571D01*
X195689285Y-65232142D01*
X195653571Y-65303571D01*
X195617857Y-65339285D01*
%TO.C,C8*%
X186075000Y-75167857D02*
X186039285Y-75203571D01*
X185932142Y-75239285D01*
X185860714Y-75239285D01*
X185753571Y-75203571D01*
X185682142Y-75132142D01*
X185646428Y-75060714D01*
X185610714Y-74917857D01*
X185610714Y-74810714D01*
X185646428Y-74667857D01*
X185682142Y-74596428D01*
X185753571Y-74525000D01*
X185860714Y-74489285D01*
X185932142Y-74489285D01*
X186039285Y-74525000D01*
X186075000Y-74560714D01*
X186503571Y-74810714D02*
X186432142Y-74775000D01*
X186396428Y-74739285D01*
X186360714Y-74667857D01*
X186360714Y-74632142D01*
X186396428Y-74560714D01*
X186432142Y-74525000D01*
X186503571Y-74489285D01*
X186646428Y-74489285D01*
X186717857Y-74525000D01*
X186753571Y-74560714D01*
X186789285Y-74632142D01*
X186789285Y-74667857D01*
X186753571Y-74739285D01*
X186717857Y-74775000D01*
X186646428Y-74810714D01*
X186503571Y-74810714D01*
X186432142Y-74846428D01*
X186396428Y-74882142D01*
X186360714Y-74953571D01*
X186360714Y-75096428D01*
X186396428Y-75167857D01*
X186432142Y-75203571D01*
X186503571Y-75239285D01*
X186646428Y-75239285D01*
X186717857Y-75203571D01*
X186753571Y-75167857D01*
X186789285Y-75096428D01*
X186789285Y-74953571D01*
X186753571Y-74882142D01*
X186717857Y-74846428D01*
X186646428Y-74810714D01*
%TO.C,J1*%
X177528985Y-50872200D02*
X178064700Y-50872200D01*
X178171842Y-50907914D01*
X178243271Y-50979342D01*
X178278985Y-51086485D01*
X178278985Y-51157914D01*
X178278985Y-50122200D02*
X178278985Y-50550771D01*
X178278985Y-50336485D02*
X177528985Y-50336485D01*
X177636128Y-50407914D01*
X177707557Y-50479342D01*
X177743271Y-50550771D01*
%TO.C,J2*%
X186989285Y-53750000D02*
X187525000Y-53750000D01*
X187632142Y-53785714D01*
X187703571Y-53857142D01*
X187739285Y-53964285D01*
X187739285Y-54035714D01*
X187060714Y-53428571D02*
X187025000Y-53392857D01*
X186989285Y-53321428D01*
X186989285Y-53142857D01*
X187025000Y-53071428D01*
X187060714Y-53035714D01*
X187132142Y-53000000D01*
X187203571Y-53000000D01*
X187310714Y-53035714D01*
X187739285Y-53464285D01*
X187739285Y-53000000D01*
%TO.C,R1*%
X178875000Y-59139285D02*
X178625000Y-58782142D01*
X178446428Y-59139285D02*
X178446428Y-58389285D01*
X178732142Y-58389285D01*
X178803571Y-58425000D01*
X178839285Y-58460714D01*
X178875000Y-58532142D01*
X178875000Y-58639285D01*
X178839285Y-58710714D01*
X178803571Y-58746428D01*
X178732142Y-58782142D01*
X178446428Y-58782142D01*
X179589285Y-59139285D02*
X179160714Y-59139285D01*
X179375000Y-59139285D02*
X179375000Y-58389285D01*
X179303571Y-58496428D01*
X179232142Y-58567857D01*
X179160714Y-58603571D01*
%TO.C,R2*%
X181017500Y-59139285D02*
X180767500Y-58782142D01*
X180588928Y-59139285D02*
X180588928Y-58389285D01*
X180874642Y-58389285D01*
X180946071Y-58425000D01*
X180981785Y-58460714D01*
X181017500Y-58532142D01*
X181017500Y-58639285D01*
X180981785Y-58710714D01*
X180946071Y-58746428D01*
X180874642Y-58782142D01*
X180588928Y-58782142D01*
X181303214Y-58460714D02*
X181338928Y-58425000D01*
X181410357Y-58389285D01*
X181588928Y-58389285D01*
X181660357Y-58425000D01*
X181696071Y-58460714D01*
X181731785Y-58532142D01*
X181731785Y-58603571D01*
X181696071Y-58710714D01*
X181267500Y-59139285D01*
X181731785Y-59139285D01*
%TO.C,R3*%
X179375000Y-60939285D02*
X179125000Y-60582142D01*
X178946428Y-60939285D02*
X178946428Y-60189285D01*
X179232142Y-60189285D01*
X179303571Y-60225000D01*
X179339285Y-60260714D01*
X179375000Y-60332142D01*
X179375000Y-60439285D01*
X179339285Y-60510714D01*
X179303571Y-60546428D01*
X179232142Y-60582142D01*
X178946428Y-60582142D01*
X179625000Y-60189285D02*
X180089285Y-60189285D01*
X179839285Y-60475000D01*
X179946428Y-60475000D01*
X180017857Y-60510714D01*
X180053571Y-60546428D01*
X180089285Y-60617857D01*
X180089285Y-60796428D01*
X180053571Y-60867857D01*
X180017857Y-60903571D01*
X179946428Y-60939285D01*
X179732142Y-60939285D01*
X179660714Y-60903571D01*
X179625000Y-60867857D01*
%TO.C,R6*%
X178795000Y-65989285D02*
X178545000Y-65632142D01*
X178366428Y-65989285D02*
X178366428Y-65239285D01*
X178652142Y-65239285D01*
X178723571Y-65275000D01*
X178759285Y-65310714D01*
X178795000Y-65382142D01*
X178795000Y-65489285D01*
X178759285Y-65560714D01*
X178723571Y-65596428D01*
X178652142Y-65632142D01*
X178366428Y-65632142D01*
X179437857Y-65239285D02*
X179295000Y-65239285D01*
X179223571Y-65275000D01*
X179187857Y-65310714D01*
X179116428Y-65417857D01*
X179080714Y-65560714D01*
X179080714Y-65846428D01*
X179116428Y-65917857D01*
X179152142Y-65953571D01*
X179223571Y-65989285D01*
X179366428Y-65989285D01*
X179437857Y-65953571D01*
X179473571Y-65917857D01*
X179509285Y-65846428D01*
X179509285Y-65667857D01*
X179473571Y-65596428D01*
X179437857Y-65560714D01*
X179366428Y-65525000D01*
X179223571Y-65525000D01*
X179152142Y-65560714D01*
X179116428Y-65596428D01*
X179080714Y-65667857D01*
%TO.C,R7*%
X180675000Y-66739285D02*
X180425000Y-66382142D01*
X180246428Y-66739285D02*
X180246428Y-65989285D01*
X180532142Y-65989285D01*
X180603571Y-66025000D01*
X180639285Y-66060714D01*
X180675000Y-66132142D01*
X180675000Y-66239285D01*
X180639285Y-66310714D01*
X180603571Y-66346428D01*
X180532142Y-66382142D01*
X180246428Y-66382142D01*
X180925000Y-65989285D02*
X181425000Y-65989285D01*
X181103571Y-66739285D01*
%TO.C,R8*%
X181009485Y-69164600D02*
X180652342Y-69414600D01*
X181009485Y-69593171D02*
X180259485Y-69593171D01*
X180259485Y-69307457D01*
X180295200Y-69236028D01*
X180330914Y-69200314D01*
X180402342Y-69164600D01*
X180509485Y-69164600D01*
X180580914Y-69200314D01*
X180616628Y-69236028D01*
X180652342Y-69307457D01*
X180652342Y-69593171D01*
X180580914Y-68736028D02*
X180545200Y-68807457D01*
X180509485Y-68843171D01*
X180438057Y-68878885D01*
X180402342Y-68878885D01*
X180330914Y-68843171D01*
X180295200Y-68807457D01*
X180259485Y-68736028D01*
X180259485Y-68593171D01*
X180295200Y-68521742D01*
X180330914Y-68486028D01*
X180402342Y-68450314D01*
X180438057Y-68450314D01*
X180509485Y-68486028D01*
X180545200Y-68521742D01*
X180580914Y-68593171D01*
X180580914Y-68736028D01*
X180616628Y-68807457D01*
X180652342Y-68843171D01*
X180723771Y-68878885D01*
X180866628Y-68878885D01*
X180938057Y-68843171D01*
X180973771Y-68807457D01*
X181009485Y-68736028D01*
X181009485Y-68593171D01*
X180973771Y-68521742D01*
X180938057Y-68486028D01*
X180866628Y-68450314D01*
X180723771Y-68450314D01*
X180652342Y-68486028D01*
X180616628Y-68521742D01*
X180580914Y-68593171D01*
%TO.C,R10*%
X173491085Y-72821342D02*
X173133942Y-73071342D01*
X173491085Y-73249914D02*
X172741085Y-73249914D01*
X172741085Y-72964200D01*
X172776800Y-72892771D01*
X172812514Y-72857057D01*
X172883942Y-72821342D01*
X172991085Y-72821342D01*
X173062514Y-72857057D01*
X173098228Y-72892771D01*
X173133942Y-72964200D01*
X173133942Y-73249914D01*
X173491085Y-72107057D02*
X173491085Y-72535628D01*
X173491085Y-72321342D02*
X172741085Y-72321342D01*
X172848228Y-72392771D01*
X172919657Y-72464200D01*
X172955371Y-72535628D01*
X172741085Y-71642771D02*
X172741085Y-71571342D01*
X172776800Y-71499914D01*
X172812514Y-71464200D01*
X172883942Y-71428485D01*
X173026800Y-71392771D01*
X173205371Y-71392771D01*
X173348228Y-71428485D01*
X173419657Y-71464200D01*
X173455371Y-71499914D01*
X173491085Y-71571342D01*
X173491085Y-71642771D01*
X173455371Y-71714200D01*
X173419657Y-71749914D01*
X173348228Y-71785628D01*
X173205371Y-71821342D01*
X173026800Y-71821342D01*
X172883942Y-71785628D01*
X172812514Y-71749914D01*
X172776800Y-71714200D01*
X172741085Y-71642771D01*
%TO.C,R12*%
X194317857Y-60039285D02*
X194067857Y-59682142D01*
X193889285Y-60039285D02*
X193889285Y-59289285D01*
X194175000Y-59289285D01*
X194246428Y-59325000D01*
X194282142Y-59360714D01*
X194317857Y-59432142D01*
X194317857Y-59539285D01*
X194282142Y-59610714D01*
X194246428Y-59646428D01*
X194175000Y-59682142D01*
X193889285Y-59682142D01*
X195032142Y-60039285D02*
X194603571Y-60039285D01*
X194817857Y-60039285D02*
X194817857Y-59289285D01*
X194746428Y-59396428D01*
X194675000Y-59467857D01*
X194603571Y-59503571D01*
X195317857Y-59360714D02*
X195353571Y-59325000D01*
X195425000Y-59289285D01*
X195603571Y-59289285D01*
X195675000Y-59325000D01*
X195710714Y-59360714D01*
X195746428Y-59432142D01*
X195746428Y-59503571D01*
X195710714Y-59610714D01*
X195282142Y-60039285D01*
X195746428Y-60039285D01*
%TO.C,R13*%
X194489285Y-61882142D02*
X194132142Y-62132142D01*
X194489285Y-62310714D02*
X193739285Y-62310714D01*
X193739285Y-62025000D01*
X193775000Y-61953571D01*
X193810714Y-61917857D01*
X193882142Y-61882142D01*
X193989285Y-61882142D01*
X194060714Y-61917857D01*
X194096428Y-61953571D01*
X194132142Y-62025000D01*
X194132142Y-62310714D01*
X194489285Y-61167857D02*
X194489285Y-61596428D01*
X194489285Y-61382142D02*
X193739285Y-61382142D01*
X193846428Y-61453571D01*
X193917857Y-61525000D01*
X193953571Y-61596428D01*
X193739285Y-60917857D02*
X193739285Y-60453571D01*
X194025000Y-60703571D01*
X194025000Y-60596428D01*
X194060714Y-60525000D01*
X194096428Y-60489285D01*
X194167857Y-60453571D01*
X194346428Y-60453571D01*
X194417857Y-60489285D01*
X194453571Y-60525000D01*
X194489285Y-60596428D01*
X194489285Y-60810714D01*
X194453571Y-60882142D01*
X194417857Y-60917857D01*
%TO.C,R14*%
X195689285Y-63880542D02*
X195332142Y-64130542D01*
X195689285Y-64309114D02*
X194939285Y-64309114D01*
X194939285Y-64023400D01*
X194975000Y-63951971D01*
X195010714Y-63916257D01*
X195082142Y-63880542D01*
X195189285Y-63880542D01*
X195260714Y-63916257D01*
X195296428Y-63951971D01*
X195332142Y-64023400D01*
X195332142Y-64309114D01*
X195689285Y-63166257D02*
X195689285Y-63594828D01*
X195689285Y-63380542D02*
X194939285Y-63380542D01*
X195046428Y-63451971D01*
X195117857Y-63523400D01*
X195153571Y-63594828D01*
X195189285Y-62523400D02*
X195689285Y-62523400D01*
X194903571Y-62701971D02*
X195439285Y-62880542D01*
X195439285Y-62416257D01*
%TO.C,R15*%
X192389285Y-61582142D02*
X192032142Y-61832142D01*
X192389285Y-62010714D02*
X191639285Y-62010714D01*
X191639285Y-61725000D01*
X191675000Y-61653571D01*
X191710714Y-61617857D01*
X191782142Y-61582142D01*
X191889285Y-61582142D01*
X191960714Y-61617857D01*
X191996428Y-61653571D01*
X192032142Y-61725000D01*
X192032142Y-62010714D01*
X192389285Y-60867857D02*
X192389285Y-61296428D01*
X192389285Y-61082142D02*
X191639285Y-61082142D01*
X191746428Y-61153571D01*
X191817857Y-61225000D01*
X191853571Y-61296428D01*
X191639285Y-60189285D02*
X191639285Y-60546428D01*
X191996428Y-60582142D01*
X191960714Y-60546428D01*
X191925000Y-60475000D01*
X191925000Y-60296428D01*
X191960714Y-60225000D01*
X191996428Y-60189285D01*
X192067857Y-60153571D01*
X192246428Y-60153571D01*
X192317857Y-60189285D01*
X192353571Y-60225000D01*
X192389285Y-60296428D01*
X192389285Y-60475000D01*
X192353571Y-60546428D01*
X192317857Y-60582142D01*
%TO.C,R17*%
X193989285Y-58432142D02*
X193632142Y-58682142D01*
X193989285Y-58860714D02*
X193239285Y-58860714D01*
X193239285Y-58575000D01*
X193275000Y-58503571D01*
X193310714Y-58467857D01*
X193382142Y-58432142D01*
X193489285Y-58432142D01*
X193560714Y-58467857D01*
X193596428Y-58503571D01*
X193632142Y-58575000D01*
X193632142Y-58860714D01*
X193989285Y-57717857D02*
X193989285Y-58146428D01*
X193989285Y-57932142D02*
X193239285Y-57932142D01*
X193346428Y-58003571D01*
X193417857Y-58075000D01*
X193453571Y-58146428D01*
X193239285Y-57467857D02*
X193239285Y-56967857D01*
X193989285Y-57289285D01*
%TO.C,R18*%
X192389285Y-64632142D02*
X192032142Y-64882142D01*
X192389285Y-65060714D02*
X191639285Y-65060714D01*
X191639285Y-64775000D01*
X191675000Y-64703571D01*
X191710714Y-64667857D01*
X191782142Y-64632142D01*
X191889285Y-64632142D01*
X191960714Y-64667857D01*
X191996428Y-64703571D01*
X192032142Y-64775000D01*
X192032142Y-65060714D01*
X192389285Y-63917857D02*
X192389285Y-64346428D01*
X192389285Y-64132142D02*
X191639285Y-64132142D01*
X191746428Y-64203571D01*
X191817857Y-64275000D01*
X191853571Y-64346428D01*
X191960714Y-63489285D02*
X191925000Y-63560714D01*
X191889285Y-63596428D01*
X191817857Y-63632142D01*
X191782142Y-63632142D01*
X191710714Y-63596428D01*
X191675000Y-63560714D01*
X191639285Y-63489285D01*
X191639285Y-63346428D01*
X191675000Y-63275000D01*
X191710714Y-63239285D01*
X191782142Y-63203571D01*
X191817857Y-63203571D01*
X191889285Y-63239285D01*
X191925000Y-63275000D01*
X191960714Y-63346428D01*
X191960714Y-63489285D01*
X191996428Y-63560714D01*
X192032142Y-63596428D01*
X192103571Y-63632142D01*
X192246428Y-63632142D01*
X192317857Y-63596428D01*
X192353571Y-63560714D01*
X192389285Y-63489285D01*
X192389285Y-63346428D01*
X192353571Y-63275000D01*
X192317857Y-63239285D01*
X192246428Y-63203571D01*
X192103571Y-63203571D01*
X192032142Y-63239285D01*
X191996428Y-63275000D01*
X191960714Y-63346428D01*
%TO.C,R19*%
X195139285Y-67982142D02*
X194782142Y-68232142D01*
X195139285Y-68410714D02*
X194389285Y-68410714D01*
X194389285Y-68125000D01*
X194425000Y-68053571D01*
X194460714Y-68017857D01*
X194532142Y-67982142D01*
X194639285Y-67982142D01*
X194710714Y-68017857D01*
X194746428Y-68053571D01*
X194782142Y-68125000D01*
X194782142Y-68410714D01*
X195139285Y-67267857D02*
X195139285Y-67696428D01*
X195139285Y-67482142D02*
X194389285Y-67482142D01*
X194496428Y-67553571D01*
X194567857Y-67625000D01*
X194603571Y-67696428D01*
X195139285Y-66910714D02*
X195139285Y-66767857D01*
X195103571Y-66696428D01*
X195067857Y-66660714D01*
X194960714Y-66589285D01*
X194817857Y-66553571D01*
X194532142Y-66553571D01*
X194460714Y-66589285D01*
X194425000Y-66625000D01*
X194389285Y-66696428D01*
X194389285Y-66839285D01*
X194425000Y-66910714D01*
X194460714Y-66946428D01*
X194532142Y-66982142D01*
X194710714Y-66982142D01*
X194782142Y-66946428D01*
X194817857Y-66910714D01*
X194853571Y-66839285D01*
X194853571Y-66696428D01*
X194817857Y-66625000D01*
X194782142Y-66589285D01*
X194710714Y-66553571D01*
%TO.C,R20*%
X194739285Y-70462142D02*
X194382142Y-70712142D01*
X194739285Y-70890714D02*
X193989285Y-70890714D01*
X193989285Y-70605000D01*
X194025000Y-70533571D01*
X194060714Y-70497857D01*
X194132142Y-70462142D01*
X194239285Y-70462142D01*
X194310714Y-70497857D01*
X194346428Y-70533571D01*
X194382142Y-70605000D01*
X194382142Y-70890714D01*
X194060714Y-70176428D02*
X194025000Y-70140714D01*
X193989285Y-70069285D01*
X193989285Y-69890714D01*
X194025000Y-69819285D01*
X194060714Y-69783571D01*
X194132142Y-69747857D01*
X194203571Y-69747857D01*
X194310714Y-69783571D01*
X194739285Y-70212142D01*
X194739285Y-69747857D01*
X193989285Y-69283571D02*
X193989285Y-69212142D01*
X194025000Y-69140714D01*
X194060714Y-69105000D01*
X194132142Y-69069285D01*
X194275000Y-69033571D01*
X194453571Y-69033571D01*
X194596428Y-69069285D01*
X194667857Y-69105000D01*
X194703571Y-69140714D01*
X194739285Y-69212142D01*
X194739285Y-69283571D01*
X194703571Y-69355000D01*
X194667857Y-69390714D01*
X194596428Y-69426428D01*
X194453571Y-69462142D01*
X194275000Y-69462142D01*
X194132142Y-69426428D01*
X194060714Y-69390714D01*
X194025000Y-69355000D01*
X193989285Y-69283571D01*
%TO.C,R21*%
X197289285Y-70462142D02*
X196932142Y-70712142D01*
X197289285Y-70890714D02*
X196539285Y-70890714D01*
X196539285Y-70605000D01*
X196575000Y-70533571D01*
X196610714Y-70497857D01*
X196682142Y-70462142D01*
X196789285Y-70462142D01*
X196860714Y-70497857D01*
X196896428Y-70533571D01*
X196932142Y-70605000D01*
X196932142Y-70890714D01*
X196610714Y-70176428D02*
X196575000Y-70140714D01*
X196539285Y-70069285D01*
X196539285Y-69890714D01*
X196575000Y-69819285D01*
X196610714Y-69783571D01*
X196682142Y-69747857D01*
X196753571Y-69747857D01*
X196860714Y-69783571D01*
X197289285Y-70212142D01*
X197289285Y-69747857D01*
X197289285Y-69033571D02*
X197289285Y-69462142D01*
X197289285Y-69247857D02*
X196539285Y-69247857D01*
X196646428Y-69319285D01*
X196717857Y-69390714D01*
X196753571Y-69462142D01*
%TO.C,RV5*%
X174521471Y-57946485D02*
X174271471Y-57589342D01*
X174092900Y-57946485D02*
X174092900Y-57196485D01*
X174378614Y-57196485D01*
X174450042Y-57232200D01*
X174485757Y-57267914D01*
X174521471Y-57339342D01*
X174521471Y-57446485D01*
X174485757Y-57517914D01*
X174450042Y-57553628D01*
X174378614Y-57589342D01*
X174092900Y-57589342D01*
X174735757Y-57196485D02*
X174985757Y-57946485D01*
X175235757Y-57196485D01*
X175842900Y-57196485D02*
X175485757Y-57196485D01*
X175450042Y-57553628D01*
X175485757Y-57517914D01*
X175557185Y-57482200D01*
X175735757Y-57482200D01*
X175807185Y-57517914D01*
X175842900Y-57553628D01*
X175878614Y-57625057D01*
X175878614Y-57803628D01*
X175842900Y-57875057D01*
X175807185Y-57910771D01*
X175735757Y-57946485D01*
X175557185Y-57946485D01*
X175485757Y-57910771D01*
X175450042Y-57875057D01*
%TO.C,RV11*%
X173440428Y-66039285D02*
X173190428Y-65682142D01*
X173011857Y-66039285D02*
X173011857Y-65289285D01*
X173297571Y-65289285D01*
X173369000Y-65325000D01*
X173404714Y-65360714D01*
X173440428Y-65432142D01*
X173440428Y-65539285D01*
X173404714Y-65610714D01*
X173369000Y-65646428D01*
X173297571Y-65682142D01*
X173011857Y-65682142D01*
X173654714Y-65289285D02*
X173904714Y-66039285D01*
X174154714Y-65289285D01*
X174797571Y-66039285D02*
X174369000Y-66039285D01*
X174583285Y-66039285D02*
X174583285Y-65289285D01*
X174511857Y-65396428D01*
X174440428Y-65467857D01*
X174369000Y-65503571D01*
X175511857Y-66039285D02*
X175083285Y-66039285D01*
X175297571Y-66039285D02*
X175297571Y-65289285D01*
X175226142Y-65396428D01*
X175154714Y-65467857D01*
X175083285Y-65503571D01*
%TO.C,RV16*%
X197146428Y-57739285D02*
X196896428Y-57382142D01*
X196717857Y-57739285D02*
X196717857Y-56989285D01*
X197003571Y-56989285D01*
X197075000Y-57025000D01*
X197110714Y-57060714D01*
X197146428Y-57132142D01*
X197146428Y-57239285D01*
X197110714Y-57310714D01*
X197075000Y-57346428D01*
X197003571Y-57382142D01*
X196717857Y-57382142D01*
X197360714Y-56989285D02*
X197610714Y-57739285D01*
X197860714Y-56989285D01*
X198503571Y-57739285D02*
X198075000Y-57739285D01*
X198289285Y-57739285D02*
X198289285Y-56989285D01*
X198217857Y-57096428D01*
X198146428Y-57167857D01*
X198075000Y-57203571D01*
X199146428Y-56989285D02*
X199003571Y-56989285D01*
X198932142Y-57025000D01*
X198896428Y-57060714D01*
X198825000Y-57167857D01*
X198789285Y-57310714D01*
X198789285Y-57596428D01*
X198825000Y-57667857D01*
X198860714Y-57703571D01*
X198932142Y-57739285D01*
X199075000Y-57739285D01*
X199146428Y-57703571D01*
X199182142Y-57667857D01*
X199217857Y-57596428D01*
X199217857Y-57417857D01*
X199182142Y-57346428D01*
X199146428Y-57310714D01*
X199075000Y-57275000D01*
X198932142Y-57275000D01*
X198860714Y-57310714D01*
X198825000Y-57346428D01*
X198789285Y-57417857D01*
%TO.C,R4*%
X178875000Y-63489285D02*
X178625000Y-63132142D01*
X178446428Y-63489285D02*
X178446428Y-62739285D01*
X178732142Y-62739285D01*
X178803571Y-62775000D01*
X178839285Y-62810714D01*
X178875000Y-62882142D01*
X178875000Y-62989285D01*
X178839285Y-63060714D01*
X178803571Y-63096428D01*
X178732142Y-63132142D01*
X178446428Y-63132142D01*
X179517857Y-62989285D02*
X179517857Y-63489285D01*
X179339285Y-62703571D02*
X179160714Y-63239285D01*
X179625000Y-63239285D01*
%TO.C,J4*%
X179750000Y-70839285D02*
X179750000Y-71375000D01*
X179714285Y-71482142D01*
X179642857Y-71553571D01*
X179535714Y-71589285D01*
X179464285Y-71589285D01*
X180428571Y-71089285D02*
X180428571Y-71589285D01*
X180250000Y-70803571D02*
X180071428Y-71339285D01*
X180535714Y-71339285D01*
%TO.C,C1*%
X178817857Y-67943000D02*
X178853571Y-67978714D01*
X178889285Y-68085857D01*
X178889285Y-68157285D01*
X178853571Y-68264428D01*
X178782142Y-68335857D01*
X178710714Y-68371571D01*
X178567857Y-68407285D01*
X178460714Y-68407285D01*
X178317857Y-68371571D01*
X178246428Y-68335857D01*
X178175000Y-68264428D01*
X178139285Y-68157285D01*
X178139285Y-68085857D01*
X178175000Y-67978714D01*
X178210714Y-67943000D01*
X178889285Y-67228714D02*
X178889285Y-67657285D01*
X178889285Y-67443000D02*
X178139285Y-67443000D01*
X178246428Y-67514428D01*
X178317857Y-67585857D01*
X178353571Y-67657285D01*
%TO.C,C6*%
X192865057Y-67643600D02*
X192900771Y-67679314D01*
X192936485Y-67786457D01*
X192936485Y-67857885D01*
X192900771Y-67965028D01*
X192829342Y-68036457D01*
X192757914Y-68072171D01*
X192615057Y-68107885D01*
X192507914Y-68107885D01*
X192365057Y-68072171D01*
X192293628Y-68036457D01*
X192222200Y-67965028D01*
X192186485Y-67857885D01*
X192186485Y-67786457D01*
X192222200Y-67679314D01*
X192257914Y-67643600D01*
X192186485Y-67000742D02*
X192186485Y-67143600D01*
X192222200Y-67215028D01*
X192257914Y-67250742D01*
X192365057Y-67322171D01*
X192507914Y-67357885D01*
X192793628Y-67357885D01*
X192865057Y-67322171D01*
X192900771Y-67286457D01*
X192936485Y-67215028D01*
X192936485Y-67072171D01*
X192900771Y-67000742D01*
X192865057Y-66965028D01*
X192793628Y-66929314D01*
X192615057Y-66929314D01*
X192543628Y-66965028D01*
X192507914Y-67000742D01*
X192472200Y-67072171D01*
X192472200Y-67215028D01*
X192507914Y-67286457D01*
X192543628Y-67322171D01*
X192615057Y-67357885D01*
%TO.C,C2*%
X178817857Y-70419500D02*
X178853571Y-70455214D01*
X178889285Y-70562357D01*
X178889285Y-70633785D01*
X178853571Y-70740928D01*
X178782142Y-70812357D01*
X178710714Y-70848071D01*
X178567857Y-70883785D01*
X178460714Y-70883785D01*
X178317857Y-70848071D01*
X178246428Y-70812357D01*
X178175000Y-70740928D01*
X178139285Y-70633785D01*
X178139285Y-70562357D01*
X178175000Y-70455214D01*
X178210714Y-70419500D01*
X178210714Y-70133785D02*
X178175000Y-70098071D01*
X178139285Y-70026642D01*
X178139285Y-69848071D01*
X178175000Y-69776642D01*
X178210714Y-69740928D01*
X178282142Y-69705214D01*
X178353571Y-69705214D01*
X178460714Y-69740928D01*
X178889285Y-70169500D01*
X178889285Y-69705214D01*
%TO.C,C3*%
X192267857Y-59075000D02*
X192303571Y-59110714D01*
X192339285Y-59217857D01*
X192339285Y-59289285D01*
X192303571Y-59396428D01*
X192232142Y-59467857D01*
X192160714Y-59503571D01*
X192017857Y-59539285D01*
X191910714Y-59539285D01*
X191767857Y-59503571D01*
X191696428Y-59467857D01*
X191625000Y-59396428D01*
X191589285Y-59289285D01*
X191589285Y-59217857D01*
X191625000Y-59110714D01*
X191660714Y-59075000D01*
X191589285Y-58825000D02*
X191589285Y-58360714D01*
X191875000Y-58610714D01*
X191875000Y-58503571D01*
X191910714Y-58432142D01*
X191946428Y-58396428D01*
X192017857Y-58360714D01*
X192196428Y-58360714D01*
X192267857Y-58396428D01*
X192303571Y-58432142D01*
X192339285Y-58503571D01*
X192339285Y-58717857D01*
X192303571Y-58789285D01*
X192267857Y-58825000D01*
%TO.C,C4*%
X188775000Y-64017857D02*
X188739285Y-64053571D01*
X188632142Y-64089285D01*
X188560714Y-64089285D01*
X188453571Y-64053571D01*
X188382142Y-63982142D01*
X188346428Y-63910714D01*
X188310714Y-63767857D01*
X188310714Y-63660714D01*
X188346428Y-63517857D01*
X188382142Y-63446428D01*
X188453571Y-63375000D01*
X188560714Y-63339285D01*
X188632142Y-63339285D01*
X188739285Y-63375000D01*
X188775000Y-63410714D01*
X189417857Y-63589285D02*
X189417857Y-64089285D01*
X189239285Y-63303571D02*
X189060714Y-63839285D01*
X189525000Y-63839285D01*
%TO.C,C7*%
X180967857Y-62375000D02*
X181003571Y-62410714D01*
X181039285Y-62517857D01*
X181039285Y-62589285D01*
X181003571Y-62696428D01*
X180932142Y-62767857D01*
X180860714Y-62803571D01*
X180717857Y-62839285D01*
X180610714Y-62839285D01*
X180467857Y-62803571D01*
X180396428Y-62767857D01*
X180325000Y-62696428D01*
X180289285Y-62589285D01*
X180289285Y-62517857D01*
X180325000Y-62410714D01*
X180360714Y-62375000D01*
X180289285Y-62125000D02*
X180289285Y-61625000D01*
X181039285Y-61946428D01*
%TO.C,J3*%
X191540000Y-70788485D02*
X191540000Y-71324200D01*
X191504285Y-71431342D01*
X191432857Y-71502771D01*
X191325714Y-71538485D01*
X191254285Y-71538485D01*
X191825714Y-70788485D02*
X192290000Y-70788485D01*
X192040000Y-71074200D01*
X192147142Y-71074200D01*
X192218571Y-71109914D01*
X192254285Y-71145628D01*
X192290000Y-71217057D01*
X192290000Y-71395628D01*
X192254285Y-71467057D01*
X192218571Y-71502771D01*
X192147142Y-71538485D01*
X191932857Y-71538485D01*
X191861428Y-71502771D01*
X191825714Y-71467057D01*
%TO.C,J1B1*%
X177135285Y-49191342D02*
X177671000Y-49191342D01*
X177778142Y-49227057D01*
X177849571Y-49298485D01*
X177885285Y-49405628D01*
X177885285Y-49477057D01*
X177885285Y-48441342D02*
X177885285Y-48869914D01*
X177885285Y-48655628D02*
X177135285Y-48655628D01*
X177242428Y-48727057D01*
X177313857Y-48798485D01*
X177349571Y-48869914D01*
X177492428Y-47869914D02*
X177528142Y-47762771D01*
X177563857Y-47727057D01*
X177635285Y-47691342D01*
X177742428Y-47691342D01*
X177813857Y-47727057D01*
X177849571Y-47762771D01*
X177885285Y-47834200D01*
X177885285Y-48119914D01*
X177135285Y-48119914D01*
X177135285Y-47869914D01*
X177171000Y-47798485D01*
X177206714Y-47762771D01*
X177278142Y-47727057D01*
X177349571Y-47727057D01*
X177421000Y-47762771D01*
X177456714Y-47798485D01*
X177492428Y-47869914D01*
X177492428Y-48119914D01*
X177885285Y-46977057D02*
X177885285Y-47405628D01*
X177885285Y-47191342D02*
X177135285Y-47191342D01*
X177242428Y-47262771D01*
X177313857Y-47334200D01*
X177349571Y-47405628D01*
%TO.C,J2B1*%
X187295285Y-49242142D02*
X187831000Y-49242142D01*
X187938142Y-49277857D01*
X188009571Y-49349285D01*
X188045285Y-49456428D01*
X188045285Y-49527857D01*
X187366714Y-48920714D02*
X187331000Y-48885000D01*
X187295285Y-48813571D01*
X187295285Y-48635000D01*
X187331000Y-48563571D01*
X187366714Y-48527857D01*
X187438142Y-48492142D01*
X187509571Y-48492142D01*
X187616714Y-48527857D01*
X188045285Y-48956428D01*
X188045285Y-48492142D01*
X187652428Y-47920714D02*
X187688142Y-47813571D01*
X187723857Y-47777857D01*
X187795285Y-47742142D01*
X187902428Y-47742142D01*
X187973857Y-47777857D01*
X188009571Y-47813571D01*
X188045285Y-47885000D01*
X188045285Y-48170714D01*
X187295285Y-48170714D01*
X187295285Y-47920714D01*
X187331000Y-47849285D01*
X187366714Y-47813571D01*
X187438142Y-47777857D01*
X187509571Y-47777857D01*
X187581000Y-47813571D01*
X187616714Y-47849285D01*
X187652428Y-47920714D01*
X187652428Y-48170714D01*
X188045285Y-47027857D02*
X188045285Y-47456428D01*
X188045285Y-47242142D02*
X187295285Y-47242142D01*
X187402428Y-47313571D01*
X187473857Y-47385000D01*
X187509571Y-47456428D01*
%TO.C,D1*%
X176412085Y-69387571D02*
X175662085Y-69387571D01*
X175662085Y-69209000D01*
X175697800Y-69101857D01*
X175769228Y-69030428D01*
X175840657Y-68994714D01*
X175983514Y-68959000D01*
X176090657Y-68959000D01*
X176233514Y-68994714D01*
X176304942Y-69030428D01*
X176376371Y-69101857D01*
X176412085Y-69209000D01*
X176412085Y-69387571D01*
X176412085Y-68244714D02*
X176412085Y-68673285D01*
X176412085Y-68459000D02*
X175662085Y-68459000D01*
X175769228Y-68530428D01*
X175840657Y-68601857D01*
X175876371Y-68673285D01*
D11*
X173924980Y-67640200D02*
X174163076Y-67640200D01*
X174067838Y-67878295D02*
X174163076Y-67640200D01*
X174067838Y-67402104D01*
X174353552Y-67783057D02*
X174163076Y-67640200D01*
X174353552Y-67497342D01*
%TO.C,U1*%
X185420095Y-59548780D02*
X185420095Y-60358304D01*
X185467714Y-60453542D01*
X185515333Y-60501161D01*
X185610571Y-60548780D01*
X185801047Y-60548780D01*
X185896285Y-60501161D01*
X185943904Y-60453542D01*
X185991523Y-60358304D01*
X185991523Y-59548780D01*
X186991523Y-60548780D02*
X186420095Y-60548780D01*
X186705809Y-60548780D02*
X186705809Y-59548780D01*
X186610571Y-59691638D01*
X186515333Y-59786876D01*
X186420095Y-59834495D01*
X183464200Y-55941980D02*
X183464200Y-56180076D01*
X183226104Y-56084838D02*
X183464200Y-56180076D01*
X183702295Y-56084838D01*
X183321342Y-56370552D02*
X183464200Y-56180076D01*
X183607057Y-56370552D01*
X183464200Y-55941980D02*
X183464200Y-56180076D01*
X183226104Y-56084838D02*
X183464200Y-56180076D01*
X183702295Y-56084838D01*
X183321342Y-56370552D02*
X183464200Y-56180076D01*
X183607057Y-56370552D01*
%TO.C,U2*%
X185356595Y-67587880D02*
X185356595Y-68397404D01*
X185404214Y-68492642D01*
X185451833Y-68540261D01*
X185547071Y-68587880D01*
X185737547Y-68587880D01*
X185832785Y-68540261D01*
X185880404Y-68492642D01*
X185928023Y-68397404D01*
X185928023Y-67587880D01*
X186356595Y-67683119D02*
X186404214Y-67635500D01*
X186499452Y-67587880D01*
X186737547Y-67587880D01*
X186832785Y-67635500D01*
X186880404Y-67683119D01*
X186928023Y-67778357D01*
X186928023Y-67873595D01*
X186880404Y-68016452D01*
X186308976Y-68587880D01*
X186928023Y-68587880D01*
X183400700Y-63981080D02*
X183400700Y-64219176D01*
X183162604Y-64123938D02*
X183400700Y-64219176D01*
X183638795Y-64123938D01*
X183257842Y-64409652D02*
X183400700Y-64219176D01*
X183543557Y-64409652D01*
X183400700Y-63981080D02*
X183400700Y-64219176D01*
X183162604Y-64123938D02*
X183400700Y-64219176D01*
X183638795Y-64123938D01*
X183257842Y-64409652D02*
X183400700Y-64219176D01*
X183543557Y-64409652D01*
%TD*%
M02*
