%TF.GenerationSoftware,KiCad,Pcbnew,(5.1.9-0-10_14)*%
%TF.CreationDate,2021-05-07T17:02:22+01:00*%
%TF.ProjectId,EMGSensor3.1,454d4753-656e-4736-9f72-332e312e6b69,rev?*%
%TF.SameCoordinates,Original*%
%TF.FileFunction,Soldermask,Bot*%
%TF.FilePolarity,Negative*%
%FSLAX46Y46*%
G04 Gerber Fmt 4.6, Leading zero omitted, Abs format (unit mm)*
G04 Created by KiCad (PCBNEW (5.1.9-0-10_14)) date 2021-05-07 17:02:22*
%MOMM*%
%LPD*%
G01*
G04 APERTURE LIST*
%ADD10O,1.200000X1.750000*%
%ADD11C,0.100000*%
G04 APERTURE END LIST*
%TO.C,J1*%
G36*
G01*
X179867000Y-54155501D02*
X179867000Y-52905499D01*
G75*
G02*
X180116999Y-52655500I249999J0D01*
G01*
X180817001Y-52655500D01*
G75*
G02*
X181067000Y-52905499I0J-249999D01*
G01*
X181067000Y-54155501D01*
G75*
G02*
X180817001Y-54405500I-249999J0D01*
G01*
X180116999Y-54405500D01*
G75*
G02*
X179867000Y-54155501I0J249999D01*
G01*
G37*
D10*
X182467000Y-53530500D03*
X184467000Y-53530500D03*
%TD*%
%TO.C,J2*%
X192309500Y-53530500D03*
G36*
G01*
X189709500Y-54155501D02*
X189709500Y-52905499D01*
G75*
G02*
X189959499Y-52655500I249999J0D01*
G01*
X190659501Y-52655500D01*
G75*
G02*
X190909500Y-52905499I0J-249999D01*
G01*
X190909500Y-54155501D01*
G75*
G02*
X190659501Y-54405500I-249999J0D01*
G01*
X189959499Y-54405500D01*
G75*
G02*
X189709500Y-54155501I0J249999D01*
G01*
G37*
%TD*%
%TO.C,J4*%
G36*
G01*
X175650600Y-74539001D02*
X175650600Y-73288999D01*
G75*
G02*
X175900599Y-73039000I249999J0D01*
G01*
X176600601Y-73039000D01*
G75*
G02*
X176850600Y-73288999I0J-249999D01*
G01*
X176850600Y-74539001D01*
G75*
G02*
X176600601Y-74789000I-249999J0D01*
G01*
X175900599Y-74789000D01*
G75*
G02*
X175650600Y-74539001I0J249999D01*
G01*
G37*
X178250600Y-73914000D03*
X180250600Y-73914000D03*
X182250600Y-73914000D03*
%TD*%
%TO.C,J3*%
G36*
G01*
X189366600Y-74513601D02*
X189366600Y-73263599D01*
G75*
G02*
X189616599Y-73013600I249999J0D01*
G01*
X190316601Y-73013600D01*
G75*
G02*
X190566600Y-73263599I0J-249999D01*
G01*
X190566600Y-74513601D01*
G75*
G02*
X190316601Y-74763600I-249999J0D01*
G01*
X189616599Y-74763600D01*
G75*
G02*
X189366600Y-74513601I0J249999D01*
G01*
G37*
X191966600Y-73888600D03*
X193966600Y-73888600D03*
%TD*%
D11*
%TO.C,J1B1*%
G36*
X186642159Y-49379532D02*
G01*
X186637891Y-49393601D01*
X186630960Y-49406568D01*
X186621633Y-49417933D01*
X186610268Y-49427260D01*
X186597301Y-49434191D01*
X186583232Y-49438459D01*
X186568600Y-49439900D01*
X184689000Y-49439900D01*
X184674368Y-49438459D01*
X184660299Y-49434191D01*
X184647332Y-49427260D01*
X184635967Y-49417933D01*
X184626640Y-49406568D01*
X184619709Y-49393601D01*
X184615441Y-49379532D01*
X184614000Y-49364900D01*
X184614000Y-46266100D01*
X184615441Y-46251468D01*
X184619709Y-46237399D01*
X184626640Y-46224432D01*
X184635967Y-46213067D01*
X184647332Y-46203740D01*
X184660299Y-46196809D01*
X184674368Y-46192541D01*
X184689000Y-46191100D01*
X186568600Y-46191100D01*
X186583232Y-46192541D01*
X186597301Y-46196809D01*
X186610268Y-46203740D01*
X186621633Y-46213067D01*
X186630960Y-46224432D01*
X186637891Y-46237399D01*
X186642159Y-46251468D01*
X186643600Y-46266100D01*
X186643600Y-49364900D01*
X186642159Y-49379532D01*
G37*
G36*
X180642159Y-49379532D02*
G01*
X180637891Y-49393601D01*
X180630960Y-49406568D01*
X180621633Y-49417933D01*
X180610268Y-49427260D01*
X180597301Y-49434191D01*
X180583232Y-49438459D01*
X180568600Y-49439900D01*
X178689000Y-49439900D01*
X178674368Y-49438459D01*
X178660299Y-49434191D01*
X178647332Y-49427260D01*
X178635967Y-49417933D01*
X178626640Y-49406568D01*
X178619709Y-49393601D01*
X178615441Y-49379532D01*
X178614000Y-49364900D01*
X178614000Y-46266100D01*
X178615441Y-46251468D01*
X178619709Y-46237399D01*
X178626640Y-46224432D01*
X178635967Y-46213067D01*
X178647332Y-46203740D01*
X178660299Y-46196809D01*
X178674368Y-46192541D01*
X178689000Y-46191100D01*
X180568600Y-46191100D01*
X180583232Y-46192541D01*
X180597301Y-46196809D01*
X180610268Y-46203740D01*
X180621633Y-46213067D01*
X180630960Y-46224432D01*
X180637891Y-46237399D01*
X180642159Y-46251468D01*
X180643600Y-46266100D01*
X180643600Y-49364900D01*
X180642159Y-49379532D01*
G37*
G36*
X183642159Y-49379532D02*
G01*
X183637891Y-49393601D01*
X183630960Y-49406568D01*
X183621633Y-49417933D01*
X183610268Y-49427260D01*
X183597301Y-49434191D01*
X183583232Y-49438459D01*
X183568600Y-49439900D01*
X181689000Y-49439900D01*
X181674368Y-49438459D01*
X181660299Y-49434191D01*
X181647332Y-49427260D01*
X181635967Y-49417933D01*
X181626640Y-49406568D01*
X181619709Y-49393601D01*
X181615441Y-49379532D01*
X181614000Y-49364900D01*
X181614000Y-46266100D01*
X181615441Y-46251468D01*
X181619709Y-46237399D01*
X181626640Y-46224432D01*
X181635967Y-46213067D01*
X181647332Y-46203740D01*
X181660299Y-46196809D01*
X181674368Y-46192541D01*
X181689000Y-46191100D01*
X183568600Y-46191100D01*
X183583232Y-46192541D01*
X183597301Y-46196809D01*
X183610268Y-46203740D01*
X183621633Y-46213067D01*
X183630960Y-46224432D01*
X183637891Y-46237399D01*
X183642159Y-46251468D01*
X183643600Y-46266100D01*
X183643600Y-49364900D01*
X183642159Y-49379532D01*
G37*
%TD*%
%TO.C,J2B1*%
G36*
X193827559Y-49379532D02*
G01*
X193823291Y-49393601D01*
X193816360Y-49406568D01*
X193807033Y-49417933D01*
X193795668Y-49427260D01*
X193782701Y-49434191D01*
X193768632Y-49438459D01*
X193754000Y-49439900D01*
X191874400Y-49439900D01*
X191859768Y-49438459D01*
X191845699Y-49434191D01*
X191832732Y-49427260D01*
X191821367Y-49417933D01*
X191812040Y-49406568D01*
X191805109Y-49393601D01*
X191800841Y-49379532D01*
X191799400Y-49364900D01*
X191799400Y-46266100D01*
X191800841Y-46251468D01*
X191805109Y-46237399D01*
X191812040Y-46224432D01*
X191821367Y-46213067D01*
X191832732Y-46203740D01*
X191845699Y-46196809D01*
X191859768Y-46192541D01*
X191874400Y-46191100D01*
X193754000Y-46191100D01*
X193768632Y-46192541D01*
X193782701Y-46196809D01*
X193795668Y-46203740D01*
X193807033Y-46213067D01*
X193816360Y-46224432D01*
X193823291Y-46237399D01*
X193827559Y-46251468D01*
X193829000Y-46266100D01*
X193829000Y-49364900D01*
X193827559Y-49379532D01*
G37*
G36*
X190827559Y-49379532D02*
G01*
X190823291Y-49393601D01*
X190816360Y-49406568D01*
X190807033Y-49417933D01*
X190795668Y-49427260D01*
X190782701Y-49434191D01*
X190768632Y-49438459D01*
X190754000Y-49439900D01*
X188874400Y-49439900D01*
X188859768Y-49438459D01*
X188845699Y-49434191D01*
X188832732Y-49427260D01*
X188821367Y-49417933D01*
X188812040Y-49406568D01*
X188805109Y-49393601D01*
X188800841Y-49379532D01*
X188799400Y-49364900D01*
X188799400Y-46266100D01*
X188800841Y-46251468D01*
X188805109Y-46237399D01*
X188812040Y-46224432D01*
X188821367Y-46213067D01*
X188832732Y-46203740D01*
X188845699Y-46196809D01*
X188859768Y-46192541D01*
X188874400Y-46191100D01*
X190754000Y-46191100D01*
X190768632Y-46192541D01*
X190782701Y-46196809D01*
X190795668Y-46203740D01*
X190807033Y-46213067D01*
X190816360Y-46224432D01*
X190823291Y-46237399D01*
X190827559Y-46251468D01*
X190829000Y-46266100D01*
X190829000Y-49364900D01*
X190827559Y-49379532D01*
G37*
%TD*%
M02*
